<svg xmlns="http://www.w3.org/2000/svg" xmlns:xlink="http://www.w3.org/1999/xlink" width="500" zoomAndPan="magnify" viewBox="0 0 375 374.999991" height="500" preserveAspectRatio="xMidYMid meet" version="1.0"><defs><g/><clipPath id="83d4ae2627"><path d="M 52 137 L 115 137 L 115 216 L 52 216 Z M 52 137 " clip-rule="nonzero"/></clipPath><clipPath id="0a44b4bfc5"><path d="M 56.230469 136.132812 L 117.675781 138.738281 L 114.308594 218.164062 L 52.863281 215.558594 Z M 56.230469 136.132812 " clip-rule="nonzero"/></clipPath><clipPath id="2829a04585"><path d="M 56.230469 136.132812 L 117.675781 138.738281 L 114.308594 218.164062 L 52.863281 215.558594 Z M 56.230469 136.132812 " clip-rule="nonzero"/></clipPath><clipPath id="8e709ecbe2"><path d="M 39.164062 109.351562 L 115.664062 109.351562 L 115.664062 143.851562 L 39.164062 143.851562 Z M 39.164062 109.351562 " clip-rule="nonzero"/></clipPath></defs><g fill="#f8e9df" fill-opacity="1"><g transform="translate(101.842304, 199.049459)"><g><path d="M 4.351562 0 L 5.453125 0 L 5.453125 -37.234375 L 32.59375 0.753906 L 33.695312 0.753906 L 33.695312 -40.597656 L 32.59375 -40.597656 L 32.59375 -7.421875 L 8.875 -40.597656 L 4.351562 -40.597656 Z M 4.351562 0 "/></g></g></g><g fill="#f8e9df" fill-opacity="1"><g transform="translate(139.887784, 199.049459)"><g><path d="M 4.351562 -40.597656 L 4.351562 0 L 20.355469 0 C 48.429688 0 48.429688 -40.597656 20.300781 -40.597656 Z M 9.105469 -1.796875 L 9.105469 -38.742188 C 9.394531 -39.03125 9.570312 -39.207031 9.800781 -39.496094 L 20.300781 -39.496094 C 41.875 -39.496094 41.816406 -1.101562 20.355469 -1.101562 L 9.800781 -1.101562 C 9.570312 -1.390625 9.394531 -1.507812 9.105469 -1.796875 Z M 9.105469 -1.796875 "/></g></g></g><g fill="#f8e9df" fill-opacity="1"><g transform="translate(182.978918, 199.049459)"><g><path d="M 1.449219 -20.242188 C 1.449219 -8.699219 11.195312 0.753906 23.546875 0.753906 C 35.261719 0.753906 45.644531 -8.175781 45.644531 -20.300781 C 45.644531 -31.726562 35.957031 -41.351562 23.546875 -41.351562 C 11.832031 -41.351562 1.449219 -32.363281 1.449219 -20.242188 Z M 23.546875 -40.25 C 33.929688 -40.25 40.539062 -30.738281 40.539062 -20.300781 C 40.539062 -10.089844 34.101562 -0.347656 23.546875 -0.347656 C 13.164062 -0.347656 6.554688 -9.800781 6.554688 -20.242188 C 6.554688 -30.566406 13.109375 -40.25 23.546875 -40.25 Z M 23.546875 -40.25 "/></g></g></g><g fill="#f8e9df" fill-opacity="1"><g transform="translate(230.071787, 199.049459)"><g><path d="M 4.351562 0 L 9.105469 0 L 9.105469 -20.820312 L 12.757812 -20.820312 L 27.664062 0 L 33.40625 0 L 19.546875 -19.140625 C 18.328125 -19.488281 16.992188 -20.066406 15.660156 -20.820312 C 35.4375 -20.820312 32.828125 -40.597656 17.515625 -40.597656 L 4.351562 -40.597656 Z M 9.859375 -39.496094 L 16.007812 -39.4375 C 27.664062 -39.324219 27.664062 -21.921875 16.007812 -21.921875 L 9.105469 -21.921875 L 9.105469 -38.742188 Z M 9.859375 -39.496094 "/></g></g></g><g fill="#f8e9df" fill-opacity="1"><g transform="translate(264.927478, 199.049459)"><g><path d="M 2.667969 0 L 6.84375 -10.441406 L 27.605469 -10.441406 L 32.128906 0 L 37.351562 0 L 19.195312 -41.351562 L 18.09375 -41.351562 L 15.019531 -39.148438 L 16.179688 -36.539062 L 1.449219 0 Z M 16.761719 -35.089844 L 27.085938 -11.542969 L 7.308594 -11.542969 Z M 16.761719 -35.089844 "/></g></g></g><g fill="#f8e9df" fill-opacity="1"><g transform="translate(303.726918, 199.049459)"><g><path d="M 4.699219 -41.351562 L 3.652344 -41.351562 L 1.449219 -39.148438 L 1.449219 -38.046875 L 3.652344 -35.84375 L 3.246094 -33.871094 L 4.175781 -33.289062 L 6.902344 -38.046875 L 6.902344 -39.148438 Z M 4.699219 -41.351562 "/></g></g></g><g fill="#f8e9df" fill-opacity="1"><g transform="translate(312.078358, 199.049459)"><g><path d="M 2.898438 -8.234375 C 6.148438 -2.550781 11.425781 0.636719 17.746094 0.636719 C 24.648438 0.636719 31.609375 -2.726562 31.609375 -10.84375 C 31.609375 -25.519531 9.222656 -21.285156 9.222656 -32.882812 C 9.222656 -37.757812 12.46875 -40.019531 16.527344 -40.019531 C 20.996094 -39.960938 26.445312 -37.117188 29.578125 -31.78125 L 30.507812 -32.304688 C 27.257812 -37.988281 21.980469 -41.179688 15.660156 -41.179688 C 9.742188 -41.179688 4.117188 -38.21875 4.117188 -31.144531 C 4.117188 -17.339844 26.390625 -22.097656 26.390625 -8.875 C 26.390625 -3.710938 22.503906 -1.160156 17.804688 -0.984375 C 12.816406 -0.871094 6.902344 -3.539062 3.828125 -8.757812 Z M 2.898438 -8.234375 "/></g></g></g><g fill="#f8e9df" fill-opacity="1"><g transform="translate(29.454927, 199.049459)"><g><path d="M 4.351562 0 L 9.105469 0 L 9.105469 -19.71875 L 18.210938 -19.71875 C 36.25 -19.71875 36.25 -40.597656 18.210938 -40.597656 L 4.351562 -40.597656 Z M 9.800781 -39.496094 L 16.703125 -39.496094 C 29.753906 -39.496094 30.507812 -20.820312 16.007812 -20.820312 L 9.105469 -20.820312 L 9.105469 -38.742188 C 9.222656 -38.859375 9.6875 -39.324219 9.800781 -39.496094 Z M 9.800781 -39.496094 "/></g></g></g><g clip-path="url(#83d4ae2627)"><g clip-path="url(#0a44b4bfc5)"><g clip-path="url(#2829a04585)"><path fill="#f8e9df" d="M 99.011719 203.511719 C 99.074219 203.417969 99.761719 203.457031 100.203125 203.582031 C 100.847656 203.761719 101.191406 204.027344 101.179688 204.335938 C 101.164062 204.679688 100.632812 204.628906 99.867188 204.214844 C 99.289062 203.902344 98.941406 203.613281 99.011719 203.511719 Z M 113.699219 214.894531 C 113.5 215.109375 113.144531 215.203125 112.320312 215.25 C 111.976562 215.273438 111.417969 215.316406 111.078125 215.347656 C 110.347656 215.417969 109.980469 215.40625 109.21875 215.292969 C 108.113281 215.128906 108.117188 215.128906 104.925781 211.882812 C 103.585938 210.519531 103.328125 210.285156 102.957031 210.074219 C 102.800781 209.988281 102.632812 209.890625 102.585938 209.863281 C 102.539062 209.835938 102.34375 209.773438 102.152344 209.726562 C 101.960938 209.683594 101.621094 209.601562 101.398438 209.546875 C 101.175781 209.492188 100.730469 209.386719 100.410156 209.3125 C 98.789062 208.925781 97.6875 207.980469 97.726562 207.007812 C 97.742188 206.683594 97.941406 206.207031 98.371094 205.460938 C 98.582031 205.101562 98.804688 204.648438 98.867188 204.449219 L 98.980469 204.09375 L 99.230469 204.28125 C 99.710938 204.640625 100.214844 204.855469 100.6875 204.90625 C 101.097656 204.949219 101.140625 204.941406 101.320312 204.804688 C 101.578125 204.605469 101.632812 204.347656 101.496094 203.996094 C 101.300781 203.496094 100.648438 203.1875 99.554688 203.074219 L 98.960938 203.011719 L 98.902344 202.710938 C 98.683594 201.578125 98.105469 200.277344 96.773438 197.914062 C 96.46875 197.378906 96.222656 196.925781 96.222656 196.90625 C 96.226562 196.886719 96.28125 196.910156 96.355469 196.960938 C 96.421875 197.011719 96.660156 197.171875 96.878906 197.320312 C 97.097656 197.46875 97.496094 197.746094 97.761719 197.941406 C 98.027344 198.136719 98.871094 198.726562 99.636719 199.253906 C 100.40625 199.78125 101.21875 200.347656 101.445312 200.511719 C 102.035156 200.945312 102.050781 200.976562 102.988281 203.875 C 103.722656 206.140625 104.179688 207.085938 105 208.042969 C 105.367188 208.472656 107.523438 210.582031 108.519531 211.488281 C 109.945312 212.785156 111.042969 213.539062 111.4375 213.492188 C 111.554688 213.480469 111.679688 213.5 111.71875 213.535156 C 111.757812 213.570312 112.136719 213.738281 112.558594 213.90625 C 113.382812 214.238281 113.867188 214.507812 113.859375 214.640625 C 113.859375 214.683594 113.785156 214.796875 113.699219 214.894531 Z M 101.832031 210.125 C 101.707031 210.230469 98.902344 211.183594 97.714844 211.523438 C 96.367188 211.90625 94.359375 212.230469 92.257812 212.40625 C 88.425781 212.726562 85.503906 212.84375 82.316406 212.808594 C 81.238281 212.796875 79.496094 212.816406 78.449219 212.855469 C 75.6875 212.949219 73.527344 212.910156 69.203125 212.6875 C 65.027344 212.472656 61.265625 212.386719 60.078125 212.476562 C 58.515625 212.601562 57.09375 212.855469 56.507812 213.117188 C 56.113281 213.289062 55.828125 213.492188 54.914062 214.253906 C 54.046875 214.972656 53.609375 215.148438 53.410156 214.859375 C 53.316406 214.722656 53.316406 214.550781 53.351562 214.28125 C 53.414062 213.796875 53.699219 213.476562 54.296875 212.988281 C 55.40625 212.078125 55.539062 211.929688 55.996094 211.128906 C 56.636719 210.003906 57.203125 209.488281 58.0625 209.246094 C 58.386719 209.152344 58.644531 209.144531 60.246094 209.175781 C 61.824219 209.207031 62.105469 209.199219 62.421875 209.109375 C 62.890625 208.980469 63.273438 208.738281 63.777344 208.253906 L 64.179688 207.867188 L 64.664062 208.019531 C 65.332031 208.226562 66.730469 208.332031 67.550781 208.238281 C 68.636719 208.113281 69.761719 207.765625 70.664062 207.28125 C 71.046875 207.070312 71.050781 207.070312 71.097656 207.199219 C 71.121094 207.269531 71.132812 207.992188 71.121094 208.800781 C 71.101562 210.328125 71.121094 210.457031 71.347656 210.46875 C 71.527344 210.476562 71.808594 210.207031 72.011719 209.847656 C 72.277344 209.363281 72.4375 208.730469 72.425781 208.171875 L 72.421875 207.71875 L 73.1875 207.71875 C 73.804688 207.71875 74.105469 207.6875 74.75 207.546875 C 76.492188 207.171875 77.5625 206.78125 79.578125 205.792969 C 83.9375 203.65625 85.839844 203.125 89.546875 203.011719 C 91.613281 202.949219 92.621094 202.972656 93.941406 203.109375 C 94.421875 203.160156 95.417969 203.269531 96.15625 203.347656 C 96.894531 203.429688 97.695312 203.503906 97.9375 203.515625 C 98.324219 203.53125 98.398438 203.550781 98.5 203.671875 C 98.601562 203.789062 98.609375 203.84375 98.554688 204.070312 C 98.46875 204.4375 98.28125 204.839844 97.882812 205.519531 C 97.691406 205.839844 97.488281 206.273438 97.425781 206.476562 C 97.144531 207.40625 97.488281 208.191406 98.484375 208.90625 C 99.152344 209.386719 99.597656 209.558594 100.828125 209.816406 C 101.566406 209.972656 101.890625 210.070312 101.832031 210.125 Z M 70.914062 206.632812 C 70.878906 206.769531 69.539062 207.378906 68.820312 207.578125 C 67.484375 207.953125 66.039062 207.992188 64.980469 207.6875 L 64.445312 207.53125 L 64.832031 207.015625 C 65.6875 205.878906 66.539062 205.332031 67.765625 205.132812 C 68.273438 205.054688 68.480469 205.0625 68.964844 205.183594 C 69.601562 205.347656 70.242188 205.730469 70.617188 206.167969 C 70.792969 206.371094 70.925781 206.582031 70.914062 206.632812 Z M 67.050781 188.445312 C 67.058594 188.445312 66.769531 188.871094 66.40625 189.398438 C 65.574219 190.597656 64.824219 191.519531 64.214844 192.085938 C 63.664062 192.601562 63.515625 192.632812 63.554688 192.226562 C 63.582031 191.90625 63.863281 191.371094 64.234375 190.917969 C 64.394531 190.722656 64.902344 190.253906 65.359375 189.871094 C 65.816406 189.488281 66.378906 189.011719 66.613281 188.8125 C 66.847656 188.613281 67.046875 188.445312 67.050781 188.445312 Z M 75.035156 176.976562 C 75.066406 177.007812 74.011719 177.425781 73.769531 177.476562 C 72.496094 177.753906 71.070312 177.195312 70.632812 176.242188 C 70.574219 176.113281 70.535156 175.960938 70.527344 175.910156 C 70.496094 175.6875 70.660156 175.597656 70.78125 175.601562 C 70.84375 175.605469 71.570312 175.859375 72.394531 176.167969 C 73.304688 176.507812 74.113281 176.773438 74.457031 176.84375 C 74.765625 176.90625 75.027344 176.96875 75.035156 176.976562 Z M 73.605469 173.472656 C 73.554688 173.515625 72.355469 172.117188 71.9375 171.527344 C 71.726562 171.234375 71.472656 170.828125 71.371094 170.625 C 71.1875 170.257812 70.972656 169.546875 70.984375 169.332031 C 70.988281 169.222656 70.996094 169.222656 71.144531 169.359375 C 71.226562 169.433594 71.417969 169.648438 71.566406 169.835938 C 71.714844 170.019531 71.992188 170.425781 72.179688 170.742188 C 72.625 171.488281 73.644531 173.433594 73.605469 173.472656 Z M 62.582031 206.539062 C 61.082031 205.550781 59.492188 203.605469 58.925781 202.066406 C 58.421875 200.707031 58.109375 199.375 58.039062 198.320312 C 57.972656 197.328125 58.097656 195.890625 58.328125 194.984375 C 58.773438 193.226562 59.6875 190.917969 60.925781 188.402344 C 61.1875 187.875 61.414062 187.441406 61.429688 187.445312 C 61.445312 187.445312 61.550781 187.609375 61.660156 187.804688 C 61.773438 188.003906 61.902344 188.167969 61.949219 188.167969 C 61.996094 188.171875 62.09375 188.105469 62.164062 188.023438 C 62.335938 187.824219 62.363281 187.207031 62.234375 186.410156 L 62.140625 185.820312 L 62.304688 185.378906 C 62.980469 183.574219 63.375 181.71875 63.839844 178.167969 L 64.046875 176.558594 L 64.457031 176.066406 C 65.230469 175.125 65.941406 173.921875 66.160156 173.179688 C 66.21875 172.972656 66.3125 172.496094 66.367188 172.121094 C 66.527344 170.976562 66.40625 169.894531 65.972656 168.636719 L 65.769531 168.046875 L 66.164062 167.503906 C 66.664062 166.816406 67.167969 165.914062 67.316406 165.433594 C 67.460938 164.96875 67.503906 164.042969 67.40625 163.484375 C 67.335938 163.082031 67.335938 163.074219 67.492188 162.792969 C 67.777344 162.289062 68.378906 161.390625 68.667969 161.046875 C 68.824219 160.863281 69.042969 160.535156 69.152344 160.324219 C 69.265625 160.109375 69.464844 159.769531 69.601562 159.5625 C 70.375 158.410156 71.445312 156.335938 71.941406 155.03125 C 72.242188 154.25 72.679688 152.84375 72.859375 152.078125 L 72.980469 151.574219 L 73.4375 152.015625 C 73.6875 152.257812 74.007812 152.554688 74.144531 152.671875 C 75.152344 153.535156 76.578125 154.570312 77.351562 155.003906 C 77.820312 155.265625 78.238281 155.464844 78.28125 155.480469 C 78.433594 155.542969 78.421875 155.609375 78.253906 156.460938 C 78.035156 157.570312 77.964844 158.941406 78.09375 159.515625 C 78.398438 160.847656 79.527344 163.800781 81.039062 167.222656 C 81.488281 168.242188 82.035156 169.746094 82.023438 169.945312 C 82.023438 169.988281 81.914062 170.117188 81.785156 170.234375 L 81.550781 170.445312 L 81.078125 169.441406 C 80.476562 168.15625 79.792969 166.890625 78.878906 165.375 C 77.1875 162.566406 76.273438 161.535156 74.957031 160.960938 C 73.578125 160.359375 72.230469 160.421875 70.816406 161.152344 C 69.964844 161.59375 69.207031 162.191406 69.238281 162.398438 C 69.265625 162.59375 69.4375 162.554688 69.796875 162.261719 C 70.539062 161.660156 71.488281 161.195312 72.347656 161.015625 C 73.335938 160.8125 74.4375 161.050781 75.398438 161.679688 C 76.515625 162.414062 77.238281 163.355469 78.964844 166.316406 C 80 168.089844 80.25 168.589844 81.5625 171.460938 C 83.492188 175.6875 84.15625 176.824219 85.9375 178.953125 L 86.378906 179.484375 L 85.890625 180.53125 C 85.625 181.109375 85.230469 181.980469 85.015625 182.46875 C 84.800781 182.960938 84.328125 183.988281 83.957031 184.753906 L 83.289062 186.148438 L 82.230469 184.972656 C 81.210938 183.847656 78.503906 180.460938 77.28125 178.789062 C 76.199219 177.300781 75.355469 175.882812 73.921875 173.117188 C 72.554688 170.480469 72.117188 169.765625 71.492188 169.144531 C 71.136719 168.789062 70.941406 168.710938 70.734375 168.835938 C 70.550781 168.941406 70.535156 169.191406 70.667969 169.820312 C 70.878906 170.824219 71.460938 171.714844 72.941406 173.304688 C 73.523438 173.933594 74.035156 174.449219 74.078125 174.453125 C 74.164062 174.457031 75.332031 176.546875 75.277344 176.597656 C 75.167969 176.695312 73.953125 176.339844 72.523438 175.792969 C 71.679688 175.464844 70.910156 175.203125 70.816406 175.191406 C 70.289062 175.144531 70.078125 175.574219 70.140625 176.03125 C 70.210938 176.535156 70.8125 177.257812 71.414062 177.558594 C 71.957031 177.832031 72.332031 177.910156 73.085938 177.910156 C 73.816406 177.90625 74.136719 177.835938 74.832031 177.523438 L 75.261719 177.332031 L 75.101562 177.621094 C 74.652344 178.421875 73.082031 180.773438 72.28125 181.84375 C 72.023438 182.1875 71.363281 183.015625 70.816406 183.683594 C 70.269531 184.351562 69.640625 185.128906 69.421875 185.410156 C 68.585938 186.484375 67.289062 187.75 65.484375 189.238281 C 64.363281 190.164062 64.066406 190.453125 63.679688 190.980469 C 63.328125 191.464844 63.171875 191.84375 63.148438 192.261719 C 63.121094 192.867188 63.496094 193.085938 64.019531 192.769531 C 64.566406 192.441406 65.714844 191.125 66.605469 189.8125 C 66.886719 189.398438 67.410156 188.679688 67.769531 188.210938 C 69.425781 186.054688 69.980469 185.347656 70.910156 184.214844 C 71.457031 183.546875 72.1875 182.628906 72.527344 182.175781 C 73.535156 180.84375 75.445312 177.953125 75.683594 177.398438 C 75.738281 177.273438 75.78125 177.316406 76.246094 178.007812 C 77.425781 179.75 80.210938 183.296875 81.84375 185.132812 C 82.507812 185.878906 83.058594 186.511719 83.066406 186.539062 C 83.074219 186.566406 82.800781 187.179688 82.457031 187.902344 C 81.484375 189.960938 81.125 190.75 80.265625 192.722656 C 79.253906 195.054688 79.285156 194.980469 78.402344 196.683594 C 77.992188 197.472656 77.597656 198.246094 77.519531 198.402344 C 77.347656 198.761719 76.40625 200.257812 75.828125 201.082031 C 74.613281 202.828125 73.511719 204.195312 72.402344 205.339844 C 72.15625 205.589844 71.953125 205.824219 71.953125 205.855469 C 71.949219 205.890625 71.804688 206.03125 71.632812 206.171875 L 71.3125 206.429688 L 71.234375 206.292969 C 71.046875 205.964844 70.433594 205.390625 70.035156 205.175781 C 69.398438 204.832031 68.984375 204.726562 68.222656 204.726562 C 66.734375 204.726562 65.621094 205.335938 64.53125 206.753906 C 64.289062 207.066406 64.074219 207.328125 64.050781 207.332031 C 63.992188 207.351562 63.011719 206.820312 62.582031 206.539062 Z M 60.710938 184.222656 L 60.707031 183.578125 L 60.910156 183.9375 C 61.019531 184.136719 61.226562 184.5625 61.371094 184.886719 C 61.710938 185.660156 61.726562 185.785156 61.527344 186.222656 L 61.367188 186.578125 L 61.25 186.390625 C 60.902344 185.859375 60.71875 185.125 60.710938 184.222656 Z M 61.96875 187.496094 L 61.796875 187.246094 L 61.621094 186.992188 L 61.730469 186.753906 C 61.867188 186.449219 61.917969 186.53125 61.949219 187.089844 Z M 61.71875 184.695312 C 61.597656 184.421875 61.335938 183.875 61.132812 183.476562 L 60.761719 182.757812 L 60.835938 182.324219 C 61.007812 181.277344 61.460938 180.046875 61.988281 179.203125 C 62.472656 178.425781 63.519531 177.074219 63.554688 177.179688 C 63.566406 177.207031 63.507812 177.707031 63.429688 178.289062 C 63.042969 181.195312 62.753906 182.691406 62.269531 184.238281 C 61.933594 185.308594 61.96875 185.28125 61.71875 184.695312 Z M 60.449219 182.21875 L 60.214844 181.785156 C 59.644531 180.707031 59.496094 180.058594 59.550781 178.84375 C 59.597656 177.792969 59.78125 176.867188 60.179688 175.691406 C 60.871094 173.652344 61.691406 172.234375 62.898438 171.007812 C 64.011719 169.875 64.632812 169.257812 64.664062 169.253906 C 64.683594 169.253906 64.652344 169.480469 64.601562 169.761719 C 64.507812 170.261719 63.914062 174.410156 63.75 175.699219 C 63.707031 176.0625 63.640625 176.390625 63.609375 176.425781 C 61.640625 178.703125 60.933594 179.941406 60.535156 181.804688 Z M 65.488281 168.492188 C 65.527344 168.546875 65.636719 168.878906 65.738281 169.226562 C 66.246094 171.003906 66.09375 172.730469 65.304688 174.136719 C 65.09375 174.511719 64.53125 175.34375 64.300781 175.621094 L 64.136719 175.816406 L 64.199219 175.292969 C 64.234375 175.003906 64.40625 173.738281 64.585938 172.480469 C 65.058594 169.171875 65.28125 168.183594 65.488281 168.492188 Z M 63.996094 163.835938 C 63.589844 162.566406 63.449219 161.613281 63.496094 160.476562 C 63.554688 159.003906 63.949219 157.851562 64.8125 156.636719 C 65.167969 156.136719 65.542969 155.71875 65.566406 155.800781 C 65.574219 155.828125 65.652344 156.316406 65.742188 156.882812 C 65.835938 157.449219 66.039062 158.566406 66.195312 159.359375 C 66.351562 160.15625 66.578125 161.296875 66.691406 161.890625 L 66.90625 162.972656 L 66.523438 163.757812 C 66.148438 164.527344 65.59375 165.921875 65.425781 166.515625 C 65.378906 166.683594 65.320312 166.832031 65.292969 166.847656 C 65.230469 166.882812 64.210938 164.519531 63.996094 163.835938 Z M 65.9375 153.363281 C 66.191406 149.445312 67.183594 146.324219 69.253906 142.949219 C 70.761719 140.492188 72.152344 139.113281 73.910156 138.328125 C 74.636719 138 75.964844 137.675781 76.867188 137.601562 C 77.367188 137.558594 79.140625 137.667969 79.671875 137.769531 C 80.289062 137.890625 81.371094 138.210938 81.753906 138.386719 C 82.285156 138.628906 83.613281 139.4375 83.609375 139.515625 C 83.609375 139.523438 83.507812 139.503906 83.390625 139.46875 C 82.804688 139.300781 81.707031 139.355469 80.792969 139.59375 C 80.089844 139.78125 79.941406 139.792969 79.578125 139.6875 C 79.085938 139.546875 77.371094 139.425781 76.671875 139.480469 C 75.441406 139.585938 74.027344 140.019531 73.132812 140.566406 C 72.316406 141.070312 71.304688 142.128906 70.753906 143.054688 C 70.191406 143.996094 69.703125 145.28125 69.484375 146.382812 C 69.332031 147.15625 69.226562 150.097656 69.308594 151.265625 C 69.347656 151.78125 69.378906 152.246094 69.382812 152.296875 C 69.386719 152.355469 68.917969 152.710938 68.152344 153.238281 C 67.472656 153.703125 66.695312 154.253906 66.425781 154.460938 C 66.152344 154.671875 65.914062 154.839844 65.886719 154.839844 C 65.863281 154.839844 65.886719 154.175781 65.9375 153.363281 Z M 84.898438 141.269531 C 85.054688 141.792969 85.054688 141.820312 85.007812 142.914062 C 84.96875 143.894531 84.941406 144.105469 84.777344 144.71875 C 84.679688 145.101562 84.523438 145.679688 84.4375 146.007812 C 84.351562 146.332031 84.273438 146.589844 84.265625 146.582031 C 84.257812 146.574219 84.191406 146.054688 84.121094 145.429688 C 83.96875 144.0625 83.855469 143.46875 83.636719 142.8125 C 83.167969 141.429688 82.386719 140.527344 81.269531 140.089844 L 80.984375 139.976562 L 81.328125 139.890625 C 82.070312 139.703125 82.664062 139.695312 83.234375 139.855469 C 83.640625 139.96875 84.265625 140.304688 84.554688 140.566406 C 84.691406 140.695312 84.777344 140.867188 84.898438 141.269531 Z M 85.203125 144.648438 C 85.328125 144.125 85.460938 142.90625 85.449219 142.40625 C 85.4375 141.9375 85.4375 141.9375 85.523438 142.144531 C 85.570312 142.257812 85.652344 142.554688 85.707031 142.796875 C 85.789062 143.164062 85.800781 143.539062 85.78125 144.964844 C 85.742188 147.570312 85.878906 148.289062 86.625 149.441406 C 86.761719 149.652344 86.863281 149.832031 86.851562 149.84375 C 86.835938 149.855469 86.613281 149.707031 86.347656 149.511719 C 85.792969 149.105469 84.726562 148.015625 84.632812 147.757812 C 84.542969 147.507812 84.652344 146.722656 84.914062 145.75 C 85.03125 145.320312 85.160156 144.824219 85.203125 144.648438 Z M 72.917969 147.074219 C 73.089844 146.003906 73.792969 143.734375 74.253906 142.757812 C 74.59375 142.03125 75.148438 141.199219 75.539062 140.816406 C 76.457031 139.910156 77.351562 139.707031 78.945312 140.039062 L 79.535156 140.164062 L 79.226562 140.320312 C 79.050781 140.40625 78.648438 140.71875 78.332031 141.015625 C 77.222656 142.039062 76.046875 143.863281 75.003906 146.179688 C 74.351562 147.628906 73.894531 148.429688 73.1875 149.347656 C 72.917969 149.699219 72.90625 149.703125 72.855469 149.566406 C 72.777344 149.339844 72.816406 147.707031 72.917969 147.074219 Z M 66.558594 166.125 C 66.167969 166.847656 65.589844 167.664062 65.566406 167.519531 C 65.527344 167.25 66.867188 163.722656 67.007812 163.730469 C 67.03125 163.730469 67.058594 163.855469 67.074219 164.003906 C 67.140625 164.71875 66.996094 165.320312 66.558594 166.125 Z M 67.046875 161.605469 C 66.957031 161.144531 66.746094 160.0625 66.578125 159.203125 C 66.269531 157.640625 65.941406 155.683594 65.949219 155.46875 C 65.957031 155.296875 66.453125 154.90625 68.277344 153.640625 C 69.332031 152.90625 69.457031 152.832031 69.453125 152.925781 C 69.453125 152.949219 69.496094 153.472656 69.550781 154.085938 C 69.671875 155.480469 69.671875 156.882812 69.550781 157.660156 C 69.460938 158.242188 69.160156 159.382812 69.027344 159.65625 C 68.988281 159.738281 68.5625 160.398438 68.082031 161.125 L 67.210938 162.445312 Z M 72.710938 145.992188 C 72.453125 147.046875 72.3125 148.898438 72.4375 149.652344 L 72.507812 150.101562 L 72.277344 150.324219 C 71.808594 150.769531 69.855469 152.175781 69.792969 152.109375 C 69.746094 152.058594 69.667969 150.707031 69.648438 149.621094 C 69.609375 147.390625 69.90625 145.75 70.625 144.175781 C 71.433594 142.410156 72.753906 141.050781 74.246094 140.453125 C 74.625 140.300781 75.542969 140.035156 75.6875 140.035156 C 75.746094 140.035156 75.601562 140.203125 75.347656 140.441406 C 74.882812 140.867188 74.519531 141.386719 74.039062 142.300781 C 73.75 142.859375 72.90625 145.195312 72.710938 145.992188 Z M 69.894531 153.492188 C 69.828125 152.804688 69.828125 152.628906 69.890625 152.578125 C 69.933594 152.542969 70.335938 152.265625 70.78125 151.960938 C 71.230469 151.65625 71.816406 151.230469 72.082031 151.015625 C 72.347656 150.796875 72.582031 150.621094 72.605469 150.621094 C 72.625 150.617188 72.652344 150.691406 72.664062 150.777344 C 72.757812 151.40625 72.011719 153.929688 71.1875 155.792969 C 70.832031 156.589844 69.78125 158.535156 69.839844 158.28125 C 69.859375 158.195312 69.917969 157.816406 69.964844 157.4375 C 70.089844 156.5 70.066406 155.328125 69.894531 153.492188 Z M 84.109375 148.410156 C 83.945312 149.585938 83.605469 150.515625 82.8125 151.929688 C 82.265625 152.910156 81.8125 153.566406 80.960938 154.613281 C 80.386719 155.320312 80.289062 155.394531 79.535156 155.355469 C 78.914062 155.324219 78.453125 155.148438 77.710938 154.757812 C 77.027344 154.394531 76.648438 154.132812 75.402344 153.15625 C 73.839844 151.929688 73.351562 151.449219 73.148438 150.929688 C 72.910156 150.320312 72.914062 150.300781 73.335938 149.800781 C 74.074219 148.917969 74.683594 147.878906 75.441406 146.214844 C 76.257812 144.414062 76.667969 143.703125 77.652344 142.367188 C 78.359375 141.40625 78.976562 140.851562 79.691406 140.53125 C 80.335938 140.242188 80.570312 140.226562 81.125 140.441406 C 81.761719 140.683594 82.242188 141.066406 82.625 141.636719 C 83.277344 142.605469 83.480469 143.382812 83.820312 146.222656 C 83.863281 146.558594 83.960938 147.054688 84.042969 147.328125 C 84.1875 147.804688 84.1875 147.839844 84.109375 148.410156 Z M 83.460938 169.136719 C 84.242188 168.492188 84.902344 168 85.246094 167.816406 C 85.75 167.539062 86.421875 167.363281 87.351562 167.265625 C 87.722656 167.226562 88.128906 167.269531 88.550781 167.394531 C 90.082031 167.855469 90.921875 168.855469 91.992188 171.492188 C 92.941406 173.835938 93.746094 176.152344 94.371094 178.355469 C 94.589844 179.125 94.902344 180.109375 95.070312 180.546875 C 95.71875 182.257812 96.570312 185.128906 96.886719 186.652344 C 97.210938 188.210938 97.339844 188.496094 97.726562 188.515625 C 97.933594 188.523438 97.933594 188.523438 97.992188 189.109375 C 98.050781 189.695312 98.308594 191.039062 98.398438 191.242188 C 98.453125 191.363281 98.578125 191.53125 98.675781 191.621094 C 98.949219 191.871094 99.371094 191.839844 99.492188 191.558594 C 99.554688 191.414062 99.542969 191.382812 99.710938 192.105469 C 99.773438 192.378906 99.945312 192.976562 100.097656 193.4375 C 100.25 193.894531 100.375 194.277344 100.375 194.285156 C 100.375 194.292969 99.765625 193.625 99.019531 192.796875 C 97.449219 191.054688 93.867188 187.125 90.101562 183.019531 L 87.464844 180.144531 L 87.160156 178.722656 L 87.394531 178.148438 C 87.945312 176.800781 88.242188 175.71875 87.929688 174.707031 C 87.746094 174.113281 87.203125 174.09375 86.921875 174.585938 C 86.582031 175.1875 86.46875 176.632812 86.65625 178 C 86.738281 178.582031 86.738281 178.65625 86.648438 178.84375 L 86.546875 179.050781 L 86.238281 178.6875 C 85.121094 177.367188 84.273438 176.09375 83.441406 174.5 C 82.949219 173.550781 81.746094 170.964844 81.75 170.859375 C 81.757812 170.765625 82.953125 169.558594 83.460938 169.136719 Z M 96.085938 181.6875 C 96.234375 181.890625 96.507812 182.246094 96.691406 182.476562 C 97.289062 183.21875 97.542969 183.789062 97.929688 185.214844 C 98.117188 185.914062 98.121094 185.9375 98.082031 186.890625 C 98.039062 187.902344 97.984375 188.113281 97.773438 188.105469 C 97.644531 188.101562 97.496094 187.675781 97.347656 186.886719 C 97.148438 185.832031 96.894531 184.863281 96.359375 183.136719 C 96.0625 182.167969 95.804688 181.351562 95.785156 181.316406 C 95.730469 181.210938 95.816406 181.3125 96.085938 181.6875 Z M 99.574219 188.183594 C 99.527344 187.871094 99.441406 185.878906 99.460938 185.523438 C 99.476562 185.300781 99.480469 185.292969 99.527344 185.429688 C 99.558594 185.511719 99.609375 185.828125 99.640625 186.136719 C 99.707031 186.761719 99.648438 188.652344 99.574219 188.183594 Z M 96.289062 180.984375 C 96.472656 181.152344 96.929688 181.585938 97.304688 181.945312 C 97.679688 182.304688 98.1875 182.757812 98.433594 182.957031 C 99.246094 183.609375 99.460938 183.835938 99.628906 184.222656 C 99.714844 184.425781 99.800781 184.671875 99.816406 184.765625 C 99.84375 184.933594 99.835938 184.929688 99.714844 184.703125 C 99.574219 184.433594 99.351562 184.351562 99.203125 184.511719 C 99.015625 184.722656 99.039062 186.875 99.257812 188.960938 C 99.324219 189.605469 99.375 190.25 99.371094 190.386719 C 99.355469 190.726562 99.15625 191.386719 99.066406 191.382812 C 98.800781 191.371094 98.585938 190.617188 98.375 188.957031 C 98.292969 188.3125 98.292969 188.195312 98.371094 187.960938 C 98.425781 187.789062 98.46875 187.394531 98.492188 186.847656 C 98.527344 185.917969 98.476562 185.601562 98.125 184.429688 C 97.796875 183.34375 97.578125 182.941406 96.648438 181.757812 C 96.410156 181.453125 96.15625 181.085938 96.085938 180.941406 L 95.953125 180.679688 Z M 99.929688 189.410156 C 99.992188 188.859375 100.050781 188.160156 100.0625 187.855469 C 100.074219 187.554688 100.09375 187.316406 100.105469 187.332031 C 100.117188 187.347656 100.144531 187.675781 100.167969 188.0625 C 100.1875 188.449219 100.246094 189.28125 100.296875 189.910156 C 100.492188 192.320312 100.492188 192.65625 100.304688 192.488281 C 100.175781 192.371094 100.035156 191.859375 99.921875 191.109375 C 99.824219 190.445312 99.824219 190.363281 99.929688 189.410156 Z M 87.058594 175.445312 C 87.15625 174.992188 87.292969 174.660156 87.382812 174.664062 C 87.417969 174.667969 87.480469 174.730469 87.527344 174.804688 C 87.648438 175.015625 87.691406 175.65625 87.613281 176.144531 C 87.550781 176.546875 87.308594 177.328125 87.128906 177.726562 L 87.050781 177.898438 L 87.011719 177.695312 C 86.9375 177.296875 86.964844 175.859375 87.058594 175.445312 Z M 86.933594 180.121094 C 87.054688 180.269531 87.175781 180.523438 87.246094 180.777344 C 87.523438 181.777344 88.488281 184.488281 88.851562 185.296875 C 89.511719 186.761719 89.828125 187.300781 91.570312 189.894531 C 92.113281 190.703125 92.824219 191.800781 93.148438 192.332031 C 93.859375 193.492188 95 195.5 94.96875 195.527344 C 94.925781 195.566406 91.75 193.351562 89.363281 191.625 C 87.914062 190.574219 86.398438 189.40625 85.902344 188.960938 C 85.441406 188.546875 83.605469 186.554688 83.609375 186.472656 C 83.609375 186.4375 83.9375 185.726562 84.339844 184.894531 C 84.742188 184.0625 85.207031 183.058594 85.375 182.660156 C 85.867188 181.515625 86.65625 179.839844 86.695312 179.859375 C 86.71875 179.871094 86.824219 179.988281 86.933594 180.121094 Z M 97.570312 203.078125 C 97.453125 203.082031 96.527344 202.996094 95.511719 202.882812 C 92.75 202.574219 90.910156 202.523438 88.351562 202.671875 C 85.464844 202.839844 83.539062 203.425781 79.617188 205.320312 C 77.617188 206.289062 77.183594 206.46875 76.027344 206.804688 C 74.585938 207.226562 73.515625 207.398438 72.589844 207.359375 C 72.367188 207.347656 72.175781 207.371094 72.132812 207.410156 C 72.085938 207.453125 72.050781 207.691406 72.035156 208.085938 C 72.003906 208.742188 71.882812 209.246094 71.65625 209.628906 L 71.519531 209.859375 L 71.53125 208.660156 C 71.539062 208 71.523438 207.320312 71.496094 207.148438 C 71.445312 206.832031 71.445312 206.832031 71.640625 206.6875 C 72.144531 206.3125 72.390625 206.046875 73.917969 204.261719 C 74.617188 203.4375 76.117188 201.394531 76.691406 200.476562 C 76.90625 200.132812 77.175781 199.734375 77.285156 199.59375 C 77.398438 199.453125 77.574219 199.171875 77.679688 198.964844 C 78.597656 197.175781 78.855469 196.703125 78.917969 196.664062 C 79.03125 196.597656 80.003906 196.65625 81.121094 196.796875 C 82.457031 196.964844 84.324219 197.277344 85.628906 197.550781 C 90.140625 198.492188 93.460938 199.929688 96.914062 202.4375 C 97.769531 203.058594 97.78125 203.070312 97.570312 203.078125 Z M 97.625 202.460938 C 94.664062 200.199219 91.390625 198.59375 87.765625 197.632812 C 85.480469 197.03125 81.550781 196.378906 79.722656 196.300781 C 79.375 196.285156 79.09375 196.265625 79.09375 196.257812 C 79.09375 196.25 79.25 195.933594 79.4375 195.554688 C 79.625 195.175781 80.167969 193.976562 80.640625 192.882812 C 81.113281 191.792969 81.847656 190.164062 82.269531 189.265625 C 82.695312 188.363281 83.117188 187.464844 83.207031 187.269531 C 83.300781 187.070312 83.382812 186.910156 83.386719 186.910156 C 83.394531 186.910156 83.75 187.296875 84.175781 187.769531 C 85.421875 189.152344 86.144531 189.765625 88.777344 191.695312 C 90.5625 192.996094 91.746094 193.835938 93.828125 195.265625 L 95.445312 196.375 L 95.960938 197.292969 C 96.746094 198.6875 97.398438 199.898438 97.671875 200.460938 C 98.265625 201.671875 98.699219 203.078125 98.476562 203.070312 C 98.445312 203.066406 98.0625 202.792969 97.625 202.460938 Z M 110.21875 211.851562 C 110.1875 211.882812 109.164062 211.027344 108.703125 210.589844 C 108.25 210.15625 107.382812 209.113281 106.957031 208.492188 C 106.621094 208.003906 106.320312 207.378906 106.328125 207.191406 C 106.335938 207.058594 106.359375 207.0625 106.636719 207.273438 C 107.007812 207.550781 107.550781 208.210938 108.847656 209.949219 C 110.347656 211.964844 110.25 211.828125 110.21875 211.851562 Z M 102.578125 197.707031 C 102.894531 198.140625 103.53125 198.917969 103.992188 199.4375 C 105.113281 200.695312 106.285156 202.191406 106.917969 203.164062 C 107.230469 203.644531 107.785156 204.683594 107.980469 205.164062 C 108.082031 205.40625 108.492188 206.53125 108.890625 207.660156 C 109.292969 208.792969 109.761719 210.035156 109.933594 210.421875 C 110.105469 210.804688 110.242188 211.121094 110.230469 211.121094 C 110.222656 211.121094 109.695312 210.421875 109.0625 209.566406 C 107.683594 207.714844 107.289062 207.246094 106.84375 206.925781 C 106.4375 206.640625 106.234375 206.613281 106.050781 206.832031 C 105.945312 206.953125 105.917969 207.039062 105.933594 207.238281 C 105.96875 207.742188 106.546875 208.734375 107.363281 209.695312 C 107.570312 209.9375 107.722656 210.136719 107.699219 210.136719 C 107.679688 210.136719 107.34375 209.824219 106.949219 209.445312 C 105.332031 207.890625 104.789062 207.234375 104.292969 206.222656 C 103.996094 205.617188 103.871094 205.273438 103.203125 203.269531 C 102.917969 202.402344 102.566406 201.433594 102.421875 201.117188 C 102.355469 200.972656 102.246094 200.699219 102.144531 200.574219 C 102.019531 200.421875 101.683594 200.191406 101.523438 200.074219 C 101.167969 199.820312 100.460938 199.324219 99.941406 198.972656 C 99.425781 198.621094 98.542969 198.003906 97.980469 197.601562 C 97.417969 197.203125 96.6875 196.699219 96.359375 196.484375 C 95.800781 196.117188 95.746094 196.0625 95.550781 195.691406 C 94.597656 193.902344 93.195312 191.582031 91.90625 189.671875 C 91.492188 189.058594 90.921875 188.191406 90.636719 187.746094 C 90.355469 187.296875 90.070312 186.863281 90.007812 186.777344 C 89.863281 186.582031 89.132812 185.003906 88.878906 184.328125 C 88.773438 184.050781 88.527344 183.359375 88.332031 182.789062 C 88.136719 182.214844 87.925781 181.601562 87.863281 181.425781 C 87.753906 181.109375 87.800781 181.152344 89.808594 183.292969 C 90.9375 184.5 92.207031 185.878906 92.628906 186.367188 C 93.046875 186.851562 94.714844 188.6875 96.328125 190.445312 C 99.820312 194.246094 101.308594 195.980469 102.578125 197.707031 Z M 88.238281 150.984375 C 88.25 150.984375 88.449219 151.074219 88.679688 151.1875 C 89.644531 151.644531 90.300781 152.289062 90.679688 153.125 C 91.085938 154.015625 90.800781 155.101562 90.640625 155.507812 C 90.367188 156.203125 89.914062 157.023438 89.152344 158.210938 C 88.277344 159.574219 88.113281 159.875 87.839844 160.589844 C 87.515625 161.441406 87.390625 162 87.308594 162.921875 L 87.234375 163.738281 L 87.097656 163.351562 C 86.886719 162.761719 86.835938 162.308594 86.90625 161.597656 C 86.996094 160.632812 87.34375 159.695312 88.382812 157.59375 C 89.179688 155.984375 89.257812 155.761719 89.324219 154.925781 C 89.429688 153.609375 89.136719 152.417969 88.453125 151.359375 C 88.320312 151.152344 88.222656 150.984375 88.238281 150.984375 Z M 114.144531 214.304688 C 113.957031 214.101562 113.324219 213.761719 112.667969 213.511719 C 111.882812 213.21875 111.246094 212.746094 111.257812 212.46875 C 111.261719 212.429688 110.960938 211.714844 110.59375 210.886719 C 110.175781 209.945312 109.648438 208.597656 109.191406 207.300781 C 108.414062 205.101562 108.058594 204.277344 107.472656 203.304688 C 106.835938 202.242188 105.570312 200.597656 104.242188 199.101562 C 103.78125 198.582031 103.140625 197.800781 102.824219 197.367188 C 102.507812 196.9375 101.984375 196.257812 101.664062 195.863281 L 101.082031 195.144531 L 100.726562 194.101562 C 100.53125 193.527344 100.371094 193.035156 100.371094 193.015625 C 100.371094 192.992188 100.433594 192.960938 100.511719 192.945312 C 100.863281 192.871094 100.894531 192.472656 100.726562 190.308594 C 100.660156 189.503906 100.578125 188.300781 100.539062 187.636719 C 100.40625 185.40625 100.207031 184.285156 99.847656 183.746094 C 99.664062 183.476562 99.554688 183.371094 98.757812 182.707031 C 98.402344 182.40625 97.839844 181.902344 97.507812 181.578125 C 96.347656 180.453125 95.695312 179.9375 95.414062 179.925781 C 95.234375 179.917969 95.214844 179.863281 94.609375 177.722656 C 94.210938 176.320312 93.734375 174.921875 92.945312 172.828125 C 91.488281 168.972656 90.664062 167.757812 89.101562 167.152344 C 88.476562 166.910156 87.988281 166.832031 87.328125 166.878906 C 85.976562 166.972656 85.167969 167.285156 84.0625 168.148438 C 83.664062 168.460938 83.121094 168.914062 82.863281 169.15625 C 82.375 169.605469 82.332031 169.636719 82.335938 169.527344 C 82.34375 169.347656 81.820312 167.992188 81.121094 166.378906 C 79.742188 163.183594 79.367188 162.234375 78.675781 160.121094 C 78.332031 159.074219 78.316406 158.179688 78.605469 156.585938 C 78.691406 156.109375 78.769531 155.65625 78.773438 155.632812 C 78.773438 155.613281 79.0625 155.699219 79.4375 155.726562 C 80.515625 155.804688 80.582031 155.742188 81.625 154.425781 C 82.386719 153.460938 82.722656 152.957031 83.289062 151.917969 C 83.933594 150.734375 84.289062 149.777344 84.476562 148.703125 C 84.503906 148.550781 84.542969 148.425781 84.566406 148.429688 C 84.589844 148.429688 84.746094 148.582031 84.914062 148.769531 C 85.394531 149.300781 86.296875 150.015625 86.921875 150.355469 C 87.488281 150.660156 87.5 150.671875 87.898438 151.25 C 88.558594 152.214844 88.851562 153.023438 88.960938 154.195312 C 89.046875 155.113281 88.902344 155.625 88.117188 157.214844 C 86.640625 160.183594 86.300781 161.363281 86.523438 162.730469 C 86.628906 163.378906 86.828125 163.875 87.304688 164.660156 C 87.796875 165.46875 87.910156 165.605469 88.058594 165.519531 C 88.21875 165.429688 88.214844 165.296875 88.035156 165.03125 C 87.496094 164.214844 87.578125 162.339844 88.21875 160.722656 C 88.46875 160.09375 88.8125 159.472656 89.480469 158.445312 C 90.453125 156.949219 90.964844 155.941406 91.171875 155.121094 C 91.480469 153.886719 91.214844 152.84375 90.34375 151.894531 C 89.84375 151.351562 89.464844 151.097656 88.453125 150.636719 L 87.703125 150.292969 L 87.308594 149.734375 C 86.773438 148.980469 86.578125 148.605469 86.402344 148.007812 C 86.195312 147.324219 86.128906 146.445312 86.179688 145.179688 C 86.234375 143.871094 86.191406 143.085938 86.027344 142.417969 C 85.878906 141.804688 85.546875 141.074219 85.257812 140.714844 C 85.144531 140.574219 85.011719 140.375 84.964844 140.273438 C 84.707031 139.71875 83.027344 138.488281 81.867188 138.007812 C 80.410156 137.40625 78.441406 137.09375 76.832031 137.210938 C 75.269531 137.328125 73.753906 137.816406 72.5625 138.597656 C 71.957031 138.992188 70.855469 140.039062 70.261719 140.78125 C 68.957031 142.410156 67.402344 145.261719 66.675781 147.34375 C 66.019531 149.230469 65.519531 152.128906 65.496094 154.175781 L 65.480469 155.253906 L 65.175781 155.5625 C 64.527344 156.214844 63.847656 157.296875 63.527344 158.183594 C 63.265625 158.90625 63.140625 159.574219 63.105469 160.417969 C 63.027344 162.246094 63.390625 163.734375 64.515625 166.199219 L 65.097656 167.484375 L 65.011719 167.890625 C 64.960938 168.113281 64.890625 168.351562 64.851562 168.421875 C 64.8125 168.488281 64.421875 168.902344 63.984375 169.339844 C 62.417969 170.910156 62.167969 171.171875 61.773438 171.675781 C 61.296875 172.285156 60.460938 173.78125 60.128906 174.621094 C 59.472656 176.289062 59.183594 177.632812 59.167969 179.089844 C 59.152344 180.417969 59.28125 180.894531 60.015625 182.261719 L 60.335938 182.867188 L 60.3125 183.425781 C 60.253906 184.84375 60.429688 185.800781 60.894531 186.585938 L 61.160156 187.027344 L 60.640625 188.074219 C 59.644531 190.074219 58.765625 192.152344 58.304688 193.609375 C 57.445312 196.308594 57.398438 198.496094 58.144531 201.007812 C 58.554688 202.382812 58.890625 203.109375 59.609375 204.144531 C 60.023438 204.742188 61.050781 205.863281 61.621094 206.335938 C 62.050781 206.695312 62.996094 207.300781 63.425781 207.5 C 63.597656 207.578125 63.734375 207.660156 63.734375 207.683594 C 63.734375 207.707031 63.621094 207.84375 63.488281 207.984375 C 63.203125 208.28125 62.613281 208.660156 62.296875 208.742188 C 62.164062 208.777344 61.355469 208.789062 60.261719 208.769531 C 58.273438 208.730469 58.046875 208.753906 57.390625 209.070312 C 56.660156 209.421875 56.140625 209.992188 55.53125 211.109375 C 55.246094 211.625 55.171875 211.714844 54.644531 212.152344 C 53.25 213.308594 53.050781 213.578125 52.941406 214.46875 C 52.890625 214.878906 53.027344 215.054688 53.125 215.167969 C 53.289062 215.355469 53.429688 215.386719 53.585938 215.394531 C 53.988281 215.410156 54.464844 215.160156 55.1875 214.550781 C 56.039062 213.832031 56.253906 213.675781 56.605469 213.515625 C 57.304688 213.203125 58.832031 212.949219 60.765625 212.824219 C 61.164062 212.796875 64.011719 212.878906 68.894531 213.058594 C 76.292969 213.332031 76.433594 213.332031 78.195312 213.257812 C 79.179688 213.21875 80.867188 213.191406 81.945312 213.203125 C 84.863281 213.230469 87.234375 213.160156 90.15625 212.957031 C 94.023438 212.6875 95.859375 212.445312 97.546875 211.988281 C 98.5 211.726562 101.210938 210.804688 101.839844 210.527344 L 102.421875 210.269531 L 102.707031 210.417969 C 103.089844 210.613281 103.371094 210.863281 104.597656 212.117188 C 107.769531 215.355469 107.90625 215.46875 108.8125 215.625 C 109.808594 215.792969 110.257812 215.824219 110.914062 215.753906 C 111.269531 215.71875 111.835938 215.675781 112.175781 215.65625 C 113.429688 215.59375 113.75 215.492188 114.0625 215.070312 C 114.304688 214.738281 114.328125 214.503906 114.144531 214.304688 " fill-opacity="1" fill-rule="nonzero"/></g></g></g><g clip-path="url(#8e709ecbe2)"><path fill="#f8e9df" d="M 92.148438 109.460938 C 92.226562 109.703125 92.09375 109.882812 92.015625 110.066406 C 91.199219 112.015625 90.183594 113.871094 89.257812 115.765625 C 87.695312 118.953125 86.082031 122.109375 84.757812 125.410156 C 83.972656 127.367188 83.09375 129.289062 82.292969 131.242188 C 82.230469 131.394531 82.171875 131.699219 81.984375 131.613281 C 81.757812 131.507812 81.972656 131.273438 82.039062 131.109375 C 83.039062 128.679688 84.027344 126.242188 85.054688 123.824219 C 86.101562 121.367188 87.359375 119.011719 88.527344 116.617188 C 89.648438 114.324219 90.785156 112.039062 91.917969 109.75 C 91.964844 109.652344 91.984375 109.527344 92.148438 109.460938 Z M 63.347656 109.675781 C 63.539062 110.320312 63.726562 110.96875 63.984375 111.589844 C 64.902344 113.785156 65.921875 115.949219 66.660156 118.210938 C 68.148438 122.753906 70.074219 127.128906 71.667969 131.628906 C 71.714844 131.765625 71.726562 132.042969 71.949219 131.960938 C 72.148438 131.886719 71.96875 131.6875 71.929688 131.554688 C 71.5625 130.328125 71.082031 129.136719 70.613281 127.945312 C 68.214844 121.882812 65.984375 115.753906 63.613281 109.679688 C 63.566406 109.554688 63.546875 109.394531 63.347656 109.351562 C 63.285156 109.476562 63.320312 109.578125 63.347656 109.675781 Z M 90.578125 138.699219 C 92.449219 137.84375 94.316406 136.976562 96.183594 136.113281 C 99.050781 134.785156 101.882812 133.390625 104.765625 132.09375 C 106.984375 131.097656 109.246094 130.1875 111.375 129 C 111.53125 128.914062 111.734375 128.878906 111.855469 128.578125 C 104.398438 131.898438 97.148438 135.441406 89.828125 138.84375 C 90.117188 138.929688 90.351562 138.804688 90.578125 138.699219 Z M 92.148438 143.980469 C 94.714844 143.898438 97.28125 144.0625 99.847656 143.96875 C 101.6875 143.902344 103.527344 144.023438 105.367188 144.058594 C 107.664062 144.097656 109.953125 143.964844 112.246094 143.878906 C 113.179688 143.84375 114.109375 143.816406 115.042969 143.78125 C 115.144531 143.777344 115.292969 143.777344 115.289062 143.652344 C 115.28125 143.5 115.128906 143.5625 115.039062 143.566406 C 114.507812 143.582031 113.976562 143.609375 113.445312 143.628906 C 108.949219 143.804688 104.453125 143.65625 99.957031 143.800781 C 97.171875 143.886719 94.382812 143.621094 91.597656 143.75 C 91.4375 143.757812 91.261719 143.707031 91.105469 143.886719 C 91.464844 143.996094 91.808594 143.988281 92.148438 143.980469 Z M 62.863281 143.660156 C 62.332031 143.640625 61.800781 143.636719 61.269531 143.625 C 59.066406 143.570312 56.871094 143.824219 54.667969 143.792969 C 52.632812 143.765625 50.601562 143.683594 48.566406 143.652344 C 45.550781 143.613281 42.53125 143.675781 39.511719 143.71875 C 39.390625 143.71875 39.199219 143.671875 39.191406 143.84375 C 39.183594 144.042969 39.386719 143.960938 39.496094 143.960938 C 40.945312 143.96875 42.398438 143.988281 43.847656 143.972656 C 49.070312 143.921875 54.289062 144 59.511719 143.882812 C 60.585938 143.859375 61.660156 143.878906 62.738281 143.875 C 62.894531 143.871094 63.078125 143.925781 63.210938 143.773438 C 63.125 143.632812 62.984375 143.664062 62.863281 143.660156 Z M 43.433594 128.78125 C 46.015625 129.988281 48.597656 131.183594 51.078125 132.601562 C 54.464844 134.535156 58.070312 136.046875 61.503906 137.902344 C 62.402344 138.386719 63.351562 138.777344 64.28125 139.203125 C 64.359375 139.238281 64.476562 139.363281 64.539062 139.207031 C 64.582031 139.097656 64.453125 139.066406 64.375 139.023438 C 64.125 138.890625 63.875 138.753906 63.617188 138.628906 C 61.457031 137.5625 59.28125 136.523438 57.136719 135.429688 C 52.519531 133.074219 47.902344 130.726562 43.257812 128.429688 C 43.144531 128.375 43.042969 128.269531 42.855469 128.371094 C 43.003906 128.605469 43.226562 128.683594 43.433594 128.78125 Z M 77.332031 114.269531 C 77.308594 115.964844 77.277344 117.664062 77.265625 119.359375 C 77.234375 123.117188 77.179688 126.878906 77.246094 130.636719 C 77.25 130.800781 77.183594 131.078125 77.429688 131.070312 C 77.648438 131.0625 77.550781 130.796875 77.558594 130.644531 C 77.65625 127.882812 77.441406 125.125 77.53125 122.363281 C 77.617188 119.761719 77.554688 117.152344 77.550781 114.546875 C 77.550781 114.386719 77.601562 114.207031 77.441406 114.054688 C 77.335938 114.113281 77.332031 114.1875 77.332031 114.269531 Z M 98.871094 122.644531 C 98.78125 122.6875 98.699219 122.753906 98.625 122.824219 C 97.605469 123.796875 96.59375 124.785156 95.558594 125.746094 C 94.355469 126.867188 93.121094 127.953125 91.925781 129.082031 C 90.234375 130.6875 88.59375 132.34375 86.988281 134.03125 C 86.878906 134.144531 86.777344 134.261719 86.679688 134.382812 C 86.632812 134.445312 86.59375 134.527344 86.660156 134.59375 C 86.742188 134.679688 86.824219 134.625 86.890625 134.558594 C 87.074219 134.375 87.253906 134.1875 87.4375 134.003906 C 88.414062 133.039062 89.4375 132.117188 90.351562 131.097656 C 91.664062 129.640625 93.0625 128.277344 94.550781 127.007812 C 96.003906 125.773438 97.339844 124.414062 98.710938 123.09375 C 98.820312 122.984375 98.917969 122.863281 99.003906 122.761719 C 98.996094 122.644531 98.933594 122.613281 98.871094 122.644531 Z M 56.042969 122.285156 C 56.113281 122.488281 56.28125 122.621094 56.425781 122.765625 C 59.570312 125.867188 62.546875 129.136719 65.691406 132.242188 C 66.394531 132.933594 67.058594 133.660156 67.71875 134.390625 C 67.792969 134.472656 67.886719 134.597656 68.007812 134.488281 C 68.132812 134.378906 68.015625 134.277344 67.9375 134.195312 C 67.65625 133.886719 67.382812 133.578125 67.09375 133.277344 C 65.230469 131.332031 63.277344 129.472656 61.394531 127.542969 C 59.910156 126.027344 58.511719 124.421875 56.957031 122.96875 C 56.679688 122.710938 56.398438 122.457031 56.121094 122.199219 C 56.09375 122.226562 56.070312 122.257812 56.042969 122.285156 Z M 69.976562 132.910156 C 69.941406 132.609375 69.753906 132.371094 69.597656 132.128906 C 68.3125 130.152344 67.050781 128.160156 65.699219 126.230469 C 65.417969 125.824219 65.140625 125.417969 64.855469 125.015625 C 64.808594 124.945312 64.738281 124.851562 64.636719 124.929688 C 64.554688 124.992188 64.625 125.070312 64.65625 125.136719 C 64.6875 125.195312 64.726562 125.246094 64.761719 125.300781 C 66.171875 127.378906 67.660156 129.40625 68.914062 131.589844 C 69.191406 132.078125 69.550781 132.515625 69.875 132.972656 C 69.910156 132.953125 69.941406 132.929688 69.976562 132.910156 Z M 74.914062 131.085938 C 74.910156 130.675781 74.753906 130.300781 74.679688 129.90625 C 74.183594 127.304688 73.695312 124.699219 73.199219 122.09375 C 73.164062 121.917969 73.171875 121.582031 72.984375 121.621094 C 72.753906 121.671875 72.882812 121.972656 72.921875 122.160156 C 73.414062 124.539062 74.007812 126.898438 74.304688 129.316406 C 74.386719 129.980469 74.578125 130.625 74.777344 131.28125 C 74.925781 131.214844 74.914062 131.144531 74.914062 131.085938 Z M 65.902344 136.046875 C 65.511719 135.683594 65.066406 135.394531 64.628906 135.089844 C 63.179688 134.089844 61.730469 133.089844 60.339844 132.003906 C 59.902344 131.660156 59.4375 131.351562 58.980469 131.035156 C 58.890625 130.976562 58.753906 130.890625 58.675781 131.03125 C 58.613281 131.140625 58.746094 131.210938 58.828125 131.269531 C 59.089844 131.460938 59.355469 131.644531 59.621094 131.828125 C 60.082031 132.136719 60.558594 132.429688 61.011719 132.753906 C 62.59375 133.878906 64.085938 135.132812 65.707031 136.207031 C 65.835938 136.292969 65.941406 136.464844 66.152344 136.382812 C 66.128906 136.21875 66.003906 136.140625 65.902344 136.046875 Z M 63.585938 141.253906 C 63.53125 141.226562 63.476562 141.179688 63.417969 141.171875 C 62.207031 140.964844 61.039062 140.566406 59.835938 140.332031 C 58.386719 140.054688 56.996094 139.550781 55.554688 139.25 C 55.296875 139.195312 55.027344 139.066406 54.734375 139.203125 C 54.867188 139.394531 55.054688 139.40625 55.226562 139.449219 C 56.378906 139.742188 57.535156 140.007812 58.695312 140.261719 C 59.878906 140.523438 61.042969 140.886719 62.21875 141.183594 C 62.660156 141.292969 63.109375 141.390625 63.566406 141.351562 C 63.574219 141.320312 63.582031 141.285156 63.585938 141.253906 Z M 88.925781 136.644531 C 89.285156 136.390625 89.636719 136.125 89.992188 135.867188 C 91.707031 134.640625 93.421875 133.414062 95.132812 132.183594 C 95.332031 132.042969 95.507812 131.867188 95.691406 131.703125 C 95.75 131.648438 95.855469 131.578125 95.765625 131.484375 C 95.699219 131.414062 95.617188 131.484375 95.558594 131.527344 C 95.257812 131.730469 94.964844 131.945312 94.667969 132.148438 C 93.65625 132.847656 92.777344 133.722656 91.730469 134.375 C 90.75 134.980469 89.8125 135.648438 88.90625 136.359375 C 88.765625 136.46875 88.597656 136.558594 88.550781 136.773438 C 88.738281 136.832031 88.828125 136.71875 88.925781 136.644531 Z M 85.265625 132.113281 C 86.230469 130.550781 87.203125 128.992188 88.300781 127.519531 C 88.71875 126.957031 89.089844 126.363281 89.4375 125.757812 C 89.496094 125.648438 89.609375 125.488281 89.484375 125.410156 C 89.34375 125.320312 89.269531 125.507812 89.207031 125.609375 C 87.875 127.828125 86.359375 129.929688 84.964844 132.109375 C 84.796875 132.371094 84.589844 132.621094 84.535156 132.949219 C 84.882812 132.75 85.070312 132.429688 85.265625 132.113281 Z M 79.851562 131.152344 C 79.890625 131.019531 79.933594 130.886719 79.957031 130.75 C 80.460938 128.160156 80.914062 125.5625 81.519531 122.996094 C 81.578125 122.730469 81.617188 122.460938 81.660156 122.195312 C 81.671875 122.09375 81.679688 121.957031 81.546875 121.941406 C 81.414062 121.925781 81.40625 122.066406 81.375 122.160156 C 81.355469 122.210938 81.359375 122.265625 81.351562 122.316406 C 80.996094 124.695312 80.460938 127.039062 79.992188 129.394531 C 79.878906 129.96875 79.765625 130.550781 79.75 131.140625 C 79.785156 131.144531 79.820312 131.148438 79.851562 131.152344 Z M 99.332031 139.503906 C 96.507812 140.097656 93.6875 140.675781 90.90625 141.449219 C 91.484375 141.535156 99.152344 139.757812 99.332031 139.503906 Z M 53.753906 139.019531 C 53.792969 139.023438 53.859375 138.980469 53.875 138.945312 C 53.90625 138.867188 53.84375 138.824219 53.78125 138.808594 C 53.332031 138.683594 52.894531 138.507812 52.40625 138.5625 C 52.824219 138.8125 53.273438 138.964844 53.753906 139.019531 Z M 63.378906 123.054688 C 63.347656 123.046875 63.285156 123.050781 63.277344 123.066406 C 63.265625 123.109375 63.253906 123.167969 63.273438 123.207031 C 63.449219 123.539062 63.667969 123.84375 63.914062 124.128906 C 63.960938 124.179688 64.019531 124.207031 64.085938 124.175781 C 64.113281 124.160156 64.121094 124.113281 64.128906 124.101562 C 64.128906 123.949219 63.503906 123.085938 63.378906 123.054688 Z M 96.605469 130.703125 C 96.542969 130.753906 96.5 130.835938 96.550781 130.910156 C 96.609375 130.992188 96.691406 130.945312 96.757812 130.90625 C 97.085938 130.703125 97.378906 130.460938 97.585938 130.121094 C 97.207031 130.242188 96.902344 130.46875 96.605469 130.703125 Z M 72.699219 120.542969 C 72.714844 120.613281 72.738281 120.703125 72.839844 120.691406 C 72.917969 120.683594 72.949219 120.617188 72.933594 120.546875 C 72.835938 120.132812 72.820312 119.695312 72.527344 119.335938 C 72.492188 119.753906 72.605469 120.148438 72.699219 120.542969 Z M 82.042969 119.84375 C 82.050781 119.804688 82.011719 119.738281 81.976562 119.722656 C 81.898438 119.683594 81.855469 119.753906 81.84375 119.816406 C 81.75 120.191406 81.609375 120.566406 81.746094 120.972656 C 82 120.632812 81.988281 120.230469 82.042969 119.84375 Z M 90.820312 123.410156 C 90.527344 123.792969 90.140625 124.113281 90.042969 124.625 C 90.375 124.265625 90.714844 123.914062 90.820312 123.410156 Z M 56.441406 129.546875 C 56.707031 129.925781 57.085938 130.140625 57.515625 130.296875 C 57.238281 129.9375 56.902344 129.648438 56.441406 129.546875 Z M 100.300781 139.324219 C 100.726562 139.253906 101.175781 139.277344 101.519531 138.949219 C 101.09375 139.015625 100.636719 138.980469 100.300781 139.324219 Z M 100.300781 139.324219 " fill-opacity="1" fill-rule="nonzero"/><path fill="#f8e9df" d="M 92.148438 109.460938 C 92.226562 109.703125 92.09375 109.882812 92.015625 110.066406 C 91.199219 112.015625 90.183594 113.871094 89.257812 115.765625 C 87.695312 118.953125 86.082031 122.109375 84.757812 125.410156 C 83.972656 127.367188 83.09375 129.289062 82.292969 131.242188 C 82.230469 131.394531 82.171875 131.699219 81.984375 131.613281 C 81.757812 131.507812 81.972656 131.273438 82.039062 131.109375 C 83.039062 128.679688 84.027344 126.242188 85.054688 123.824219 C 86.101562 121.367188 87.359375 119.011719 88.527344 116.617188 C 89.648438 114.324219 90.785156 112.039062 91.917969 109.75 C 91.964844 109.652344 91.984375 109.527344 92.148438 109.460938 Z M 63.347656 109.675781 C 63.539062 110.320312 63.726562 110.96875 63.984375 111.589844 C 64.902344 113.785156 65.921875 115.949219 66.660156 118.210938 C 68.148438 122.753906 70.074219 127.128906 71.667969 131.628906 C 71.714844 131.765625 71.726562 132.042969 71.949219 131.960938 C 72.148438 131.886719 71.96875 131.6875 71.929688 131.554688 C 71.5625 130.328125 71.082031 129.136719 70.613281 127.945312 C 68.214844 121.882812 65.984375 115.753906 63.613281 109.679688 C 63.566406 109.554688 63.546875 109.394531 63.347656 109.351562 C 63.285156 109.476562 63.320312 109.578125 63.347656 109.675781 Z M 90.578125 138.699219 C 92.449219 137.84375 94.316406 136.976562 96.183594 136.113281 C 99.050781 134.785156 101.882812 133.390625 104.765625 132.09375 C 106.984375 131.097656 109.246094 130.1875 111.375 129 C 111.53125 128.914062 111.734375 128.878906 111.855469 128.578125 C 104.398438 131.898438 97.148438 135.441406 89.828125 138.84375 C 90.117188 138.929688 90.351562 138.804688 90.578125 138.699219 Z M 92.148438 143.980469 C 94.714844 143.898438 97.28125 144.0625 99.847656 143.96875 C 101.6875 143.902344 103.527344 144.023438 105.367188 144.058594 C 107.664062 144.097656 109.953125 143.964844 112.246094 143.878906 C 113.179688 143.84375 114.109375 143.816406 115.042969 143.78125 C 115.144531 143.777344 115.292969 143.777344 115.289062 143.652344 C 115.28125 143.5 115.128906 143.5625 115.039062 143.566406 C 114.507812 143.582031 113.976562 143.609375 113.445312 143.628906 C 108.949219 143.804688 104.453125 143.65625 99.957031 143.800781 C 97.171875 143.886719 94.382812 143.621094 91.597656 143.75 C 91.4375 143.757812 91.261719 143.707031 91.105469 143.886719 C 91.464844 143.996094 91.808594 143.988281 92.148438 143.980469 Z M 62.863281 143.660156 C 62.332031 143.640625 61.800781 143.636719 61.269531 143.625 C 59.066406 143.570312 56.871094 143.824219 54.667969 143.792969 C 52.632812 143.765625 50.601562 143.683594 48.566406 143.652344 C 45.550781 143.613281 42.53125 143.675781 39.511719 143.71875 C 39.390625 143.71875 39.199219 143.671875 39.191406 143.84375 C 39.183594 144.042969 39.386719 143.960938 39.496094 143.960938 C 40.945312 143.96875 42.398438 143.988281 43.847656 143.972656 C 49.070312 143.921875 54.289062 144 59.511719 143.882812 C 60.585938 143.859375 61.660156 143.878906 62.738281 143.875 C 62.894531 143.871094 63.078125 143.925781 63.210938 143.773438 C 63.125 143.632812 62.984375 143.664062 62.863281 143.660156 Z M 43.433594 128.78125 C 46.015625 129.988281 48.597656 131.183594 51.078125 132.601562 C 54.464844 134.535156 58.070312 136.046875 61.503906 137.902344 C 62.402344 138.386719 63.351562 138.777344 64.28125 139.203125 C 64.359375 139.238281 64.476562 139.363281 64.539062 139.207031 C 64.582031 139.097656 64.453125 139.066406 64.375 139.023438 C 64.125 138.890625 63.875 138.753906 63.617188 138.628906 C 61.457031 137.5625 59.28125 136.523438 57.136719 135.429688 C 52.519531 133.074219 47.902344 130.726562 43.257812 128.429688 C 43.144531 128.375 43.042969 128.269531 42.855469 128.371094 C 43.003906 128.605469 43.226562 128.683594 43.433594 128.78125 Z M 77.332031 114.269531 C 77.308594 115.964844 77.277344 117.664062 77.265625 119.359375 C 77.234375 123.117188 77.179688 126.878906 77.246094 130.636719 C 77.25 130.800781 77.183594 131.078125 77.429688 131.070312 C 77.648438 131.0625 77.550781 130.796875 77.558594 130.644531 C 77.65625 127.882812 77.441406 125.125 77.53125 122.363281 C 77.617188 119.761719 77.554688 117.152344 77.550781 114.546875 C 77.550781 114.386719 77.601562 114.207031 77.441406 114.054688 C 77.335938 114.113281 77.332031 114.1875 77.332031 114.269531 Z M 98.871094 122.644531 C 98.78125 122.6875 98.699219 122.753906 98.625 122.824219 C 97.605469 123.796875 96.59375 124.785156 95.558594 125.746094 C 94.355469 126.867188 93.121094 127.953125 91.925781 129.082031 C 90.234375 130.6875 88.59375 132.34375 86.988281 134.03125 C 86.878906 134.144531 86.777344 134.261719 86.679688 134.382812 C 86.632812 134.445312 86.59375 134.527344 86.660156 134.59375 C 86.742188 134.679688 86.824219 134.625 86.890625 134.558594 C 87.074219 134.375 87.253906 134.1875 87.4375 134.003906 C 88.414062 133.039062 89.4375 132.117188 90.351562 131.097656 C 91.664062 129.640625 93.0625 128.277344 94.550781 127.007812 C 96.003906 125.773438 97.339844 124.414062 98.710938 123.09375 C 98.820312 122.984375 98.917969 122.863281 99.003906 122.761719 C 98.996094 122.644531 98.933594 122.613281 98.871094 122.644531 Z M 56.042969 122.285156 C 56.113281 122.488281 56.28125 122.621094 56.425781 122.765625 C 59.570312 125.867188 62.546875 129.136719 65.691406 132.242188 C 66.394531 132.933594 67.058594 133.660156 67.71875 134.390625 C 67.792969 134.472656 67.886719 134.597656 68.007812 134.488281 C 68.132812 134.378906 68.015625 134.277344 67.9375 134.195312 C 67.65625 133.886719 67.382812 133.578125 67.09375 133.277344 C 65.230469 131.332031 63.277344 129.472656 61.394531 127.542969 C 59.910156 126.027344 58.511719 124.421875 56.957031 122.96875 C 56.679688 122.710938 56.398438 122.457031 56.121094 122.199219 C 56.09375 122.226562 56.070312 122.257812 56.042969 122.285156 Z M 69.976562 132.910156 C 69.941406 132.609375 69.753906 132.371094 69.597656 132.128906 C 68.3125 130.152344 67.050781 128.160156 65.699219 126.230469 C 65.417969 125.824219 65.140625 125.417969 64.855469 125.015625 C 64.808594 124.945312 64.738281 124.851562 64.636719 124.929688 C 64.554688 124.992188 64.625 125.070312 64.65625 125.136719 C 64.6875 125.195312 64.726562 125.246094 64.761719 125.300781 C 66.171875 127.378906 67.660156 129.40625 68.914062 131.589844 C 69.191406 132.078125 69.550781 132.515625 69.875 132.972656 C 69.910156 132.953125 69.941406 132.929688 69.976562 132.910156 Z M 74.914062 131.085938 C 74.910156 130.675781 74.753906 130.300781 74.679688 129.90625 C 74.183594 127.304688 73.695312 124.699219 73.199219 122.09375 C 73.164062 121.917969 73.171875 121.582031 72.984375 121.621094 C 72.753906 121.671875 72.882812 121.972656 72.921875 122.160156 C 73.414062 124.539062 74.007812 126.898438 74.304688 129.316406 C 74.386719 129.980469 74.578125 130.625 74.777344 131.28125 C 74.925781 131.214844 74.914062 131.144531 74.914062 131.085938 Z M 65.902344 136.046875 C 65.511719 135.683594 65.066406 135.394531 64.628906 135.089844 C 63.179688 134.089844 61.730469 133.089844 60.339844 132.003906 C 59.902344 131.660156 59.4375 131.351562 58.980469 131.035156 C 58.890625 130.976562 58.753906 130.890625 58.675781 131.03125 C 58.613281 131.140625 58.746094 131.210938 58.828125 131.269531 C 59.089844 131.460938 59.355469 131.644531 59.621094 131.828125 C 60.082031 132.136719 60.558594 132.429688 61.011719 132.753906 C 62.59375 133.878906 64.085938 135.132812 65.707031 136.207031 C 65.835938 136.292969 65.941406 136.464844 66.152344 136.382812 C 66.128906 136.21875 66.003906 136.140625 65.902344 136.046875 Z M 63.585938 141.253906 C 63.53125 141.226562 63.476562 141.179688 63.417969 141.171875 C 62.207031 140.964844 61.039062 140.566406 59.835938 140.332031 C 58.386719 140.054688 56.996094 139.550781 55.554688 139.25 C 55.296875 139.195312 55.027344 139.066406 54.734375 139.203125 C 54.867188 139.394531 55.054688 139.40625 55.226562 139.449219 C 56.378906 139.742188 57.535156 140.007812 58.695312 140.261719 C 59.878906 140.523438 61.042969 140.886719 62.21875 141.183594 C 62.660156 141.292969 63.109375 141.390625 63.566406 141.351562 C 63.574219 141.320312 63.582031 141.285156 63.585938 141.253906 Z M 88.925781 136.644531 C 89.285156 136.390625 89.636719 136.125 89.992188 135.867188 C 91.707031 134.640625 93.421875 133.414062 95.132812 132.183594 C 95.332031 132.042969 95.507812 131.867188 95.691406 131.703125 C 95.75 131.648438 95.855469 131.578125 95.765625 131.484375 C 95.699219 131.414062 95.617188 131.484375 95.558594 131.527344 C 95.257812 131.730469 94.964844 131.945312 94.667969 132.148438 C 93.65625 132.847656 92.777344 133.722656 91.730469 134.375 C 90.75 134.980469 89.8125 135.648438 88.90625 136.359375 C 88.765625 136.46875 88.597656 136.558594 88.550781 136.773438 C 88.738281 136.832031 88.828125 136.71875 88.925781 136.644531 Z M 85.265625 132.113281 C 86.230469 130.550781 87.203125 128.992188 88.300781 127.519531 C 88.71875 126.957031 89.089844 126.363281 89.4375 125.757812 C 89.496094 125.648438 89.609375 125.488281 89.484375 125.410156 C 89.34375 125.320312 89.269531 125.507812 89.207031 125.609375 C 87.875 127.828125 86.359375 129.929688 84.964844 132.109375 C 84.796875 132.371094 84.589844 132.621094 84.535156 132.949219 C 84.882812 132.75 85.070312 132.429688 85.265625 132.113281 Z M 79.851562 131.152344 C 79.890625 131.019531 79.933594 130.886719 79.957031 130.75 C 80.460938 128.160156 80.914062 125.5625 81.519531 122.996094 C 81.578125 122.730469 81.617188 122.460938 81.660156 122.195312 C 81.671875 122.09375 81.679688 121.957031 81.546875 121.941406 C 81.414062 121.925781 81.40625 122.066406 81.375 122.160156 C 81.355469 122.210938 81.359375 122.265625 81.351562 122.316406 C 80.996094 124.695312 80.460938 127.039062 79.992188 129.394531 C 79.878906 129.96875 79.765625 130.550781 79.75 131.140625 C 79.785156 131.144531 79.820312 131.148438 79.851562 131.152344 Z M 99.332031 139.503906 C 96.507812 140.097656 93.6875 140.675781 90.90625 141.449219 C 91.484375 141.535156 99.152344 139.757812 99.332031 139.503906 Z M 53.753906 139.019531 C 53.792969 139.023438 53.859375 138.980469 53.875 138.945312 C 53.90625 138.867188 53.84375 138.824219 53.78125 138.808594 C 53.332031 138.683594 52.894531 138.507812 52.40625 138.5625 C 52.824219 138.8125 53.273438 138.964844 53.753906 139.019531 Z M 63.378906 123.054688 C 63.347656 123.046875 63.285156 123.050781 63.277344 123.066406 C 63.265625 123.109375 63.253906 123.167969 63.273438 123.207031 C 63.449219 123.539062 63.667969 123.84375 63.914062 124.128906 C 63.960938 124.179688 64.019531 124.207031 64.085938 124.175781 C 64.113281 124.160156 64.121094 124.113281 64.128906 124.101562 C 64.128906 123.949219 63.503906 123.085938 63.378906 123.054688 Z M 96.605469 130.703125 C 96.542969 130.753906 96.5 130.835938 96.550781 130.910156 C 96.609375 130.992188 96.691406 130.945312 96.757812 130.90625 C 97.085938 130.703125 97.378906 130.460938 97.585938 130.121094 C 97.207031 130.242188 96.902344 130.46875 96.605469 130.703125 Z M 72.699219 120.542969 C 72.714844 120.613281 72.738281 120.703125 72.839844 120.691406 C 72.917969 120.683594 72.949219 120.617188 72.933594 120.546875 C 72.835938 120.132812 72.820312 119.695312 72.527344 119.335938 C 72.492188 119.753906 72.605469 120.148438 72.699219 120.542969 Z M 82.042969 119.84375 C 82.050781 119.804688 82.011719 119.738281 81.976562 119.722656 C 81.898438 119.683594 81.855469 119.753906 81.84375 119.816406 C 81.75 120.191406 81.609375 120.566406 81.746094 120.972656 C 82 120.632812 81.988281 120.230469 82.042969 119.84375 Z M 90.820312 123.410156 C 90.527344 123.792969 90.140625 124.113281 90.042969 124.625 C 90.375 124.265625 90.714844 123.914062 90.820312 123.410156 Z M 56.441406 129.546875 C 56.707031 129.925781 57.085938 130.140625 57.515625 130.296875 C 57.238281 129.9375 56.902344 129.648438 56.441406 129.546875 Z M 100.300781 139.324219 C 100.726562 139.253906 101.175781 139.277344 101.519531 138.949219 C 101.09375 139.015625 100.636719 138.980469 100.300781 139.324219 Z M 100.300781 139.324219 " fill-opacity="1" fill-rule="nonzero"/></g><g fill="#d9d9d9" fill-opacity="1"><g transform="translate(114.04897, 231.60233)"><g><path d="M 6.601562 -21.109375 L 7.003906 -20.707031 L 7.003906 0 L 9.546875 0 L 9.546875 -20.707031 L 9.949219 -21.109375 L 15.777344 -21.109375 L 15.777344 -21.699219 L 0.773438 -21.699219 L 0.773438 -21.109375 Z M 6.601562 -21.109375 "/></g></g></g><g fill="#d9d9d9" fill-opacity="1"><g transform="translate(130.600914, 231.60233)"><g><path d="M 2.324219 0 L 4.867188 0 L 4.867188 -11.128906 L 6.820312 -11.128906 L 14.785156 0 L 17.855469 0 L 10.445312 -10.230469 C 9.796875 -10.414062 9.082031 -10.726562 8.371094 -11.128906 C 18.941406 -11.128906 17.542969 -21.699219 9.359375 -21.699219 L 2.324219 -21.699219 Z M 5.269531 -21.109375 L 8.554688 -21.078125 C 14.785156 -21.015625 14.785156 -11.71875 8.554688 -11.71875 L 4.867188 -11.71875 L 4.867188 -20.707031 Z M 5.269531 -21.109375 "/></g></g></g><g fill="#d9d9d9" fill-opacity="1"><g transform="translate(149.229595, 231.60233)"><g><path d="M 2.324219 0 L 14.414062 0 L 14.414062 -0.589844 L 5.269531 -0.589844 C 5.113281 -0.742188 5.023438 -0.804688 4.867188 -0.960938 L 4.867188 -11.128906 L 9.917969 -11.128906 L 9.917969 -11.71875 L 4.867188 -11.71875 L 4.867188 -20.707031 L 5.269531 -21.109375 L 13.453125 -21.109375 L 13.453125 -21.699219 L 2.324219 -21.699219 Z M 2.324219 0 "/></g></g></g><g fill="#d9d9d9" fill-opacity="1"><g transform="translate(165.626551, 231.60233)"><g><path d="M 1.425781 0 L 3.65625 -5.578125 L 14.753906 -5.578125 L 17.171875 0 L 19.960938 0 L 10.261719 -22.101562 L 9.671875 -22.101562 L 8.027344 -20.921875 L 8.648438 -19.527344 L 0.773438 0 Z M 8.957031 -18.753906 L 14.476562 -6.167969 L 3.90625 -6.167969 Z M 8.957031 -18.753906 "/></g></g></g><g fill="#d9d9d9" fill-opacity="1"><g transform="translate(186.36297, 231.60233)"><g><path d="M 1.550781 -4.402344 C 3.285156 -1.363281 6.105469 0.339844 9.484375 0.339844 C 13.175781 0.339844 16.894531 -1.457031 16.894531 -5.796875 C 16.894531 -13.640625 4.929688 -11.375 4.929688 -17.574219 C 4.929688 -20.179688 6.664062 -21.386719 8.835938 -21.386719 C 11.222656 -21.355469 14.136719 -19.839844 15.808594 -16.988281 L 16.304688 -17.265625 C 14.570312 -20.304688 11.75 -22.007812 8.371094 -22.007812 C 5.207031 -22.007812 2.199219 -20.425781 2.199219 -16.644531 C 2.199219 -9.269531 14.105469 -11.808594 14.105469 -4.742188 C 14.105469 -1.984375 12.027344 -0.621094 9.515625 -0.527344 C 6.851562 -0.464844 3.6875 -1.890625 2.046875 -4.679688 Z M 1.550781 -4.402344 "/></g></g></g><g fill="#d9d9d9" fill-opacity="1"><g transform="translate(204.805672, 231.60233)"><g><path d="M 2.324219 -8.398438 C 2.324219 -3.535156 6.261719 0.402344 11.097656 0.402344 C 15.964844 0.402344 19.902344 -3.535156 19.902344 -8.398438 L 19.902344 -21.699219 L 19.3125 -21.699219 L 19.3125 -8.398438 C 19.3125 -3.378906 15.621094 -0.804688 11.996094 -0.804688 C 8.398438 -0.804688 4.867188 -3.285156 4.867188 -8.398438 L 4.867188 -21.699219 L 2.324219 -21.699219 Z M 2.324219 -8.398438 "/></g></g></g><g fill="#d9d9d9" fill-opacity="1"><g transform="translate(227.029902, 231.60233)"><g><path d="M 2.324219 0 L 4.867188 0 L 4.867188 -11.128906 L 6.820312 -11.128906 L 14.785156 0 L 17.855469 0 L 10.445312 -10.230469 C 9.796875 -10.414062 9.082031 -10.726562 8.371094 -11.128906 C 18.941406 -11.128906 17.542969 -21.699219 9.359375 -21.699219 L 2.324219 -21.699219 Z M 5.269531 -21.109375 L 8.554688 -21.078125 C 14.785156 -21.015625 14.785156 -11.71875 8.554688 -11.71875 L 4.867188 -11.71875 L 4.867188 -20.707031 Z M 5.269531 -21.109375 "/></g></g></g><g fill="#d9d9d9" fill-opacity="1"><g transform="translate(245.658582, 231.60233)"><g><path d="M 2.324219 0 L 14.414062 0 L 14.414062 -0.589844 L 5.269531 -0.589844 C 5.113281 -0.742188 5.023438 -0.804688 4.867188 -0.960938 L 4.867188 -11.128906 L 9.917969 -11.128906 L 9.917969 -11.71875 L 4.867188 -11.71875 L 4.867188 -20.707031 L 5.269531 -21.109375 L 13.453125 -21.109375 L 13.453125 -21.699219 L 2.324219 -21.699219 Z M 2.324219 0 "/></g></g></g><g fill="#d9d9d9" fill-opacity="1"><g transform="translate(139.148048, 248.536166)"><g><path d="M 0.601562 0 L 1.257812 0 L 1.257812 -2.871094 L 1.761719 -2.871094 L 3.816406 0 L 4.609375 0 L 2.695312 -2.640625 C 2.527344 -2.6875 2.34375 -2.769531 2.160156 -2.871094 C 4.886719 -2.871094 4.527344 -5.601562 2.417969 -5.601562 L 0.601562 -5.601562 Z M 1.359375 -5.449219 L 2.207031 -5.441406 C 3.816406 -5.425781 3.816406 -3.023438 2.207031 -3.023438 L 1.257812 -3.023438 L 1.257812 -5.34375 Z M 1.359375 -5.449219 "/></g></g></g><g fill="#d9d9d9" fill-opacity="1"><g transform="translate(143.956412, 248.536166)"><g><path d="M 0.367188 0 L 0.945312 -1.441406 L 3.808594 -1.441406 L 4.433594 0 L 5.152344 0 L 2.648438 -5.703125 L 2.496094 -5.703125 L 2.070312 -5.398438 L 2.230469 -5.039062 L 0.199219 0 Z M 2.3125 -4.839844 L 3.734375 -1.59375 L 1.007812 -1.59375 Z M 2.3125 -4.839844 "/></g></g></g><g fill="#d9d9d9" fill-opacity="1"><g transform="translate(149.30882, 248.536166)"><g><path d="M 0.601562 -5.601562 L 0.601562 0 L 2.808594 0 C 6.679688 0 6.679688 -5.601562 2.800781 -5.601562 Z M 1.257812 -0.246094 L 1.257812 -5.34375 C 1.296875 -5.382812 1.320312 -5.410156 1.351562 -5.449219 L 2.800781 -5.449219 C 5.777344 -5.449219 5.769531 -0.152344 2.808594 -0.152344 L 1.351562 -0.152344 C 1.320312 -0.191406 1.296875 -0.207031 1.257812 -0.246094 Z M 1.257812 -0.246094 "/></g></g></g><g fill="#d9d9d9" fill-opacity="1"><g transform="translate(155.253269, 248.536166)"><g><path d="M 0.601562 0 L 1.257812 0 L 1.257812 -5.601562 L 0.601562 -5.601562 Z M 0.601562 0 "/></g></g></g><g fill="#d9d9d9" fill-opacity="1"><g transform="translate(157.109414, 248.536166)"><g><path d="M 0.367188 0 L 0.945312 -1.441406 L 3.808594 -1.441406 L 4.433594 0 L 5.152344 0 L 2.648438 -5.703125 L 2.496094 -5.703125 L 2.070312 -5.398438 L 2.230469 -5.039062 L 0.199219 0 Z M 2.3125 -4.839844 L 3.734375 -1.59375 L 1.007812 -1.59375 Z M 2.3125 -4.839844 "/></g></g></g><g fill="#d9d9d9" fill-opacity="1"><g transform="translate(162.461822, 248.536166)"><g><path d="M 0.601562 0 L 0.753906 0 L 0.753906 -5.136719 L 4.496094 0.105469 L 4.648438 0.105469 L 4.648438 -5.601562 L 4.496094 -5.601562 L 4.496094 -1.023438 L 1.222656 -5.601562 L 0.601562 -5.601562 Z M 0.601562 0 "/></g></g></g><g fill="#d9d9d9" fill-opacity="1"><g transform="translate(167.710219, 248.536166)"><g><path d="M 0.199219 -2.792969 C 0.199219 -1.199219 1.542969 0.105469 3.25 0.105469 C 4.097656 0.105469 4.847656 -0.335938 5.296875 -1.121094 L 5.167969 -1.191406 C 4.777344 -0.519531 4.113281 -0.046875 3.25 -0.046875 C 1.816406 -0.046875 0.902344 -1.351562 0.902344 -2.792969 C 0.902344 -4.214844 1.800781 -5.550781 3.238281 -5.550781 C 4.105469 -5.550781 4.769531 -5.082031 5.160156 -4.410156 L 5.289062 -4.480469 C 4.839844 -5.265625 4.089844 -5.703125 3.238281 -5.703125 C 1.632812 -5.703125 0.199219 -4.464844 0.199219 -2.792969 Z M 0.199219 -2.792969 "/></g></g></g><g fill="#d9d9d9" fill-opacity="1"><g transform="translate(173.206639, 248.536166)"><g><path d="M 0.601562 0 L 3.71875 0 L 3.71875 -0.152344 L 1.359375 -0.152344 C 1.320312 -0.191406 1.296875 -0.207031 1.257812 -0.246094 L 1.257812 -2.871094 L 2.558594 -2.871094 L 2.558594 -3.023438 L 1.257812 -3.023438 L 1.257812 -5.34375 L 1.359375 -5.449219 L 3.472656 -5.449219 L 3.472656 -5.601562 L 0.601562 -5.601562 Z M 0.601562 0 "/></g></g></g><g fill="#d9d9d9" fill-opacity="1"><g transform="translate(177.438955, 248.536166)"><g/></g></g><g fill="#d9d9d9" fill-opacity="1"><g transform="translate(180.239165, 248.536166)"><g><path d="M 0.601562 -2.167969 C 0.601562 -0.910156 1.617188 0.105469 2.863281 0.105469 C 4.121094 0.105469 5.136719 -0.910156 5.136719 -2.167969 L 5.136719 -5.601562 L 4.984375 -5.601562 L 4.984375 -2.167969 C 4.984375 -0.871094 4.03125 -0.207031 3.097656 -0.207031 C 2.167969 -0.207031 1.257812 -0.847656 1.257812 -2.167969 L 1.257812 -5.601562 L 0.601562 -5.601562 Z M 0.601562 -2.167969 "/></g></g></g><g fill="#d9d9d9" fill-opacity="1"><g transform="translate(185.975602, 248.536166)"><g><path d="M 0.601562 0 L 0.753906 0 L 0.753906 -5.136719 L 4.496094 0.105469 L 4.648438 0.105469 L 4.648438 -5.601562 L 4.496094 -5.601562 L 4.496094 -1.023438 L 1.222656 -5.601562 L 0.601562 -5.601562 Z M 0.601562 0 "/></g></g></g><g fill="#d9d9d9" fill-opacity="1"><g transform="translate(191.223999, 248.536166)"><g><path d="M 0.601562 0 L 1.257812 0 L 1.257812 -2.871094 L 2.558594 -2.871094 L 2.558594 -3.023438 L 1.257812 -3.023438 L 1.257812 -5.34375 L 1.359375 -5.449219 L 3.472656 -5.449219 L 3.472656 -5.601562 L 0.601562 -5.601562 Z M 0.601562 0 "/></g></g></g><g fill="#d9d9d9" fill-opacity="1"><g transform="translate(195.008286, 248.536166)"><g><path d="M 0.367188 0 L 0.945312 -1.441406 L 3.808594 -1.441406 L 4.433594 0 L 5.152344 0 L 2.648438 -5.703125 L 2.496094 -5.703125 L 2.070312 -5.398438 L 2.230469 -5.039062 L 0.199219 0 Z M 2.3125 -4.839844 L 3.734375 -1.59375 L 1.007812 -1.59375 Z M 2.3125 -4.839844 "/></g></g></g><g fill="#d9d9d9" fill-opacity="1"><g transform="translate(200.360694, 248.536166)"><g><path d="M 0.601562 -5.601562 L 0.601562 0 L 2.808594 0 C 6.679688 0 6.679688 -5.601562 2.800781 -5.601562 Z M 1.257812 -0.246094 L 1.257812 -5.34375 C 1.296875 -5.382812 1.320312 -5.410156 1.351562 -5.449219 L 2.800781 -5.449219 C 5.777344 -5.449219 5.769531 -0.152344 2.808594 -0.152344 L 1.351562 -0.152344 C 1.320312 -0.191406 1.296875 -0.207031 1.257812 -0.246094 Z M 1.257812 -0.246094 "/></g></g></g><g fill="#d9d9d9" fill-opacity="1"><g transform="translate(206.305143, 248.536166)"><g><path d="M 0.601562 0 L 1.257812 0 L 1.257812 -5.601562 L 0.601562 -5.601562 Z M 0.601562 0 "/></g></g></g><g fill="#d9d9d9" fill-opacity="1"><g transform="translate(208.161288, 248.536166)"><g><path d="M 0.601562 0 L 0.753906 0 L 0.753906 -5.136719 L 4.496094 0.105469 L 4.648438 0.105469 L 4.648438 -5.601562 L 4.496094 -5.601562 L 4.496094 -1.023438 L 1.222656 -5.601562 L 0.601562 -5.601562 Z M 0.601562 0 "/></g></g></g><g fill="#d9d9d9" fill-opacity="1"><g transform="translate(213.409685, 248.536166)"><g><path d="M 0.199219 -2.792969 C 0.199219 -1.199219 1.542969 0.105469 3.25 0.105469 C 4.105469 0.105469 4.847656 -0.335938 5.304688 -1.121094 L 5.304688 0.0078125 L 5.457031 0.0078125 L 5.457031 -3.527344 L 4.800781 -3.527344 L 4.800781 -0.703125 C 4.410156 -0.296875 3.878906 -0.046875 3.25 -0.046875 C 1.816406 -0.046875 0.902344 -1.351562 0.902344 -2.792969 C 0.902344 -4.214844 1.808594 -5.550781 3.25 -5.550781 C 4.113281 -5.550781 4.777344 -5.082031 5.167969 -4.410156 L 5.296875 -4.480469 C 4.847656 -5.265625 4.097656 -5.703125 3.25 -5.703125 C 1.632812 -5.703125 0.199219 -4.464844 0.199219 -2.792969 Z M 0.199219 -2.792969 "/></g></g></g></svg>