<svg xmlns="http://www.w3.org/2000/svg" xmlns:xlink="http://www.w3.org/1999/xlink" width="1280" zoomAndPan="magnify" viewBox="0 0 960 599.999999" height="800" preserveAspectRatio="xMidYMid meet" version="1.0"><defs><clipPath id="4cf19eefdd"><path d="M 60 415 L 563.25 415 L 563.25 517 L 60 517 Z M 60 415 " clip-rule="nonzero"/></clipPath><clipPath id="5183bd35dd"><path d="M 509.109375 415.464844 L 528.5625 415.464844 L 528.5625 434.964844 L 509.109375 434.964844 Z M 509.109375 415.464844 " clip-rule="nonzero"/></clipPath></defs><path fill="#ffffff" d="M 298.578125 305.046875 C 286.125 306.484375 276.566406 306.308594 269.90625 304.527344 C 263.25 302.746094 257.996094 298.960938 254.152344 293.164062 C 249.960938 284.300781 247.636719 279.222656 247.179688 277.925781 C 244.933594 271.578125 244.683594 265.339844 245.113281 261.140625 C 245.675781 255.65625 248.6875 248.511719 254.152344 239.703125 C 254.929688 233.582031 256.222656 228.15625 258.027344 223.433594 C 259.832031 218.710938 263.445312 211.910156 268.875 203.03125 L 269.648438 173.847656 C 271.9375 167.167969 274.089844 162.433594 276.105469 159.644531 C 278.121094 156.851562 280.445312 155.390625 283.078125 155.253906 C 285.300781 155.039062 287.367188 155.558594 289.277344 156.800781 C 291.1875 158.046875 294.804688 161.230469 300.125 166.359375 C 304.519531 158.6875 309.515625 152.832031 315.105469 148.796875 C 320.699219 144.757812 328.101562 141.65625 337.316406 139.496094 L 338.609375 136.914062 L 338.765625 121.722656 L 334.476562 84.746094 L 328.792969 84.746094 L 337.574219 71.832031 C 338.359375 68.988281 339.132812 66.921875 339.898438 65.632812 C 340.667969 64.347656 342.097656 62.882812 344.191406 61.242188 C 344.230469 60.769531 345.953125 60.511719 349.363281 60.46875 C 352.769531 60.425781 358.140625 60.597656 365.46875 60.984375 C 368.597656 61.703125 370.75 62.652344 371.925781 63.828125 C 373.101562 65 374.136719 67.5 375.027344 71.316406 L 387.617188 84.765625 L 379.675781 85.261719 L 378.898438 109.796875 C 377.796875 114.003906 376.761719 116.847656 375.800781 118.320312 C 374.839844 119.792969 373.289062 120.914062 371.152344 121.675781 L 358.496094 122.453125 L 356.945312 137.433594 L 357.980469 139.496094 C 364.445312 141.34375 368.832031 142.808594 371.152344 143.886719 C 376.71875 146.480469 381.753906 150.234375 385.613281 156.800781 C 388.320312 161.398438 391.117188 167.75 394.914062 174.363281 C 398.253906 180.1875 404.367188 190.429688 413.25 205.097656 L 422.03125 212.84375 L 426.421875 221.625 L 437.011719 229.632812 L 441.917969 213.621094 C 431.933594 198.46875 426.9375 188.828125 426.9375 184.695312 C 426.9375 182.96875 427.984375 181.339844 429.003906 180.304688 C 430.429688 178.863281 432.386719 177.976562 435.722656 178.238281 C 437.945312 178.414062 440.097656 179.789062 442.179688 182.371094 L 471.878906 262.171875 C 468.921875 271.859375 466.339844 279.09375 464.128906 283.867188 C 461.921875 288.644531 458.648438 293.378906 454.316406 298.070312 C 448.070312 301.574219 442.820312 303.640625 438.5625 304.269531 C 434.300781 304.902344 427.328125 304.296875 417.640625 302.464844 C 414.25 300.910156 412.011719 299.445312 410.925781 298.070312 C 406.90625 292.976562 405.226562 286.515625 403.175781 283.09375 C 400.300781 278.285156 398.578125 273.808594 398.011719 269.664062 L 384.582031 226.015625 L 326.46875 224.210938 L 321.046875 268.371094 C 318.082031 280.375 314.894531 289.15625 311.492188 294.714844 C 308.082031 300.273438 303.777344 303.71875 298.578125 305.046875 Z M 298.578125 305.046875 " fill-opacity="1" fill-rule="evenodd"/><path fill="#ffffff" d="M 302.578125 314.558594 C 301.527344 314.371094 300.75 314.277344 300.253906 314.277344 C 298.335938 314.285156 296.773438 314.1875 295.859375 312.726562 C 294.585938 310.695312 294.929688 308.285156 296.890625 305.492188 L 302.320312 303.679688 L 304.90625 303.679688 L 323.773438 304.457031 L 329.71875 303.679688 L 350.65625 302.90625 C 352.894531 303.941406 353.667969 305.921875 352.980469 308.851562 C 352.292969 311.78125 350.394531 313.589844 347.292969 314.277344 L 341.089844 314.558594 L 299.21875 506.550781 L 272.335938 506.550781 C 276.9375 476.390625 280.644531 453.707031 283.449219 438.5 C 286.257812 423.296875 292.632812 381.980469 302.578125 314.558594 Z M 368.230469 314.558594 C 368.191406 313.949219 366.554688 313.855469 363.320312 314.277344 C 360.5625 312.898438 359.441406 310.746094 359.960938 307.816406 C 360.476562 304.886719 361.769531 303.335938 363.835938 303.164062 L 367.714844 303.679688 L 379.601562 303.679688 L 391.492188 304.457031 L 404.675781 303.164062 C 408.8125 303.507812 410.878906 305.40625 410.878906 308.851562 C 410.878906 310.808594 410.21875 311.828125 409.328125 312.726562 C 408.878906 313.183594 408.015625 313.703125 406.742188 314.277344 L 402.609375 314.558594 L 413.207031 506.808594 L 385.289062 506.808594 C 381.53125 472.238281 379.117188 448 378.054688 434.101562 C 376.785156 417.546875 369.613281 335.257812 368.230469 314.558594 Z M 368.230469 314.558594 " fill-opacity="1" fill-rule="evenodd"/><path stroke-linecap="butt" transform="matrix(0.811693, 0, 0, 0.811655, 59.999998, 60.080998)" fill="none" stroke-linejoin="miter" d="M 298.854359 313.211578 L 346.300496 313.211578 L 294.715636 549.755625 L 261.59622 549.755625 C 267.26531 512.59198 271.832343 484.64465 275.287696 465.913634 C 278.747862 447.177806 286.601812 396.278725 298.854359 313.211578 Z M 379.737535 313.211578 L 422.092079 313.211578 L 435.148309 550.073263 L 400.753589 550.073263 C 396.123993 507.480896 393.149887 477.618113 391.840895 460.494538 C 390.276843 440.098329 381.441149 338.714059 379.737535 313.211578 Z M 379.737535 313.211578 " stroke="#263e4b" stroke-width="0.955" stroke-opacity="1" stroke-miterlimit="4"/><path fill="#bad9ea" d="M 326.617188 143.007812 L 297.476562 143.148438 C 282.9375 143.214844 270.980469 154.628906 270.242188 169.148438 L 269.753906 178.71875 C 270.207031 173.796875 270.8125 170.347656 271.5625 168.367188 C 272.753906 165.226562 274.128906 163.417969 275.695312 161.382812 C 278.066406 158.300781 280.75 155.699219 282.933594 155.171875 C 287.929688 153.964844 293.53125 157.84375 299.734375 166.816406 C 300.773438 164.804688 301.636719 163.253906 302.320312 162.15625 C 303.6875 159.96875 305.140625 157.609375 307.746094 155.171875 C 312.917969 150.339844 319.207031 146.289062 326.617188 143.007812 Z M 326.617188 143.007812 " fill-opacity="1" fill-rule="evenodd"/><path fill="#bad9ea" d="M 302.835938 303.175781 C 305.496094 304.144531 310.492188 304.574219 317.828125 304.46875 C 321.820312 304.410156 329.011719 303.21875 335.144531 302.917969 C 338.566406 302.746094 343.734375 302.746094 350.65625 302.917969 L 356.597656 287.132812 L 362.285156 287.132812 L 364.09375 302.917969 C 370.144531 303.292969 374.453125 303.554688 377.019531 303.691406 C 382.539062 303.992188 387.132812 304.210938 390.71875 304.210938 C 396.804688 304.210938 401.285156 303.777344 404.160156 302.917969 L 390.976562 229.171875 L 329.71875 231.5 C 328.917969 242.730469 325.988281 255.066406 320.929688 268.503906 C 319.851562 271.367188 319.679688 274.988281 318.605469 278.59375 C 316.964844 284.089844 315.160156 289.40625 313.175781 293.082031 C 311.296875 296.570312 307.847656 299.9375 302.835938 303.175781 Z M 302.835938 303.175781 " fill-opacity="1" fill-rule="evenodd"/><path fill="#263e4b" d="M 403.75 303.089844 L 397.832031 268.570312 C 397.796875 268.355469 397.9375 268.15625 398.148438 268.121094 C 398.359375 268.082031 398.558594 268.226562 398.597656 268.4375 L 404.484375 302.785156 L 405.320312 302.785156 C 408.605469 302.785156 411.265625 305.453125 411.265625 308.738281 C 411.265625 312.023438 408.605469 314.6875 405.320312 314.6875 L 364.535156 314.6875 C 361.625 314.6875 359.265625 312.328125 359.265625 309.414062 C 359.265625 309.167969 359.285156 308.925781 359.316406 308.683594 L 359.625 306.464844 C 359.90625 304.464844 361.453125 302.898438 363.414062 302.578125 L 361.933594 287.519531 L 356.867188 287.519531 L 351.1875 302.605469 C 352.769531 302.972656 353.894531 304.453125 353.765625 306.125 C 353.753906 306.269531 353.734375 306.414062 353.703125 306.554688 L 353.230469 308.816406 C 352.515625 312.238281 349.503906 314.6875 346.011719 314.6875 L 298.726562 314.6875 C 296.546875 314.6875 294.78125 312.921875 294.78125 310.738281 C 294.78125 310.328125 294.84375 309.917969 294.972656 309.523438 C 295.316406 308.457031 295.746094 307.078125 296.261719 305.390625 C 296.324219 305.183594 296.542969 305.070312 296.746094 305.132812 C 296.953125 305.195312 297.066406 305.410156 297.003906 305.617188 C 296.488281 307.308594 296.054688 308.691406 295.710938 309.761719 C 295.609375 310.078125 295.554688 310.410156 295.554688 310.738281 C 295.554688 312.492188 296.976562 313.914062 298.726562 313.914062 L 346.011719 313.914062 C 349.136719 313.914062 351.832031 311.71875 352.472656 308.660156 L 352.945312 306.398438 C 352.96875 306.289062 352.984375 306.179688 352.992188 306.066406 C 353.101562 304.652344 352.046875 303.417969 350.636719 303.304688 C 347.429688 303.242188 345.160156 303.210938 343.828125 303.207031 C 340.230469 303.203125 330.082031 303.792969 327.960938 304.078125 C 323.140625 304.722656 320.589844 304.816406 316.421875 304.675781 C 316.285156 304.671875 316.285156 304.671875 316.148438 304.664062 C 314.660156 304.617188 313.945312 304.597656 312.996094 304.597656 C 309.550781 304.597656 306.972656 304.511719 305.265625 304.335938 C 303.257812 304.132812 302.351562 303.847656 302.453125 303.121094 L 303.21875 303.230469 C 303.230469 303.171875 303.214844 303.132812 303.203125 303.113281 C 303.257812 303.15625 303.371094 303.207031 303.535156 303.257812 C 303.914062 303.378906 304.519531 303.480469 305.34375 303.566406 C 307.019531 303.734375 309.574219 303.820312 312.996094 303.820312 C 313.957031 303.820312 314.679688 303.839844 316.175781 303.890625 C 316.3125 303.894531 316.3125 303.894531 316.445312 303.898438 C 320.574219 304.039062 323.085938 303.949219 327.855469 303.308594 C 330.019531 303.019531 340.199219 302.425781 343.832031 302.429688 C 345.128906 302.433594 347.316406 302.464844 350.386719 302.523438 L 356.238281 286.996094 C 356.292969 286.84375 356.4375 286.746094 356.597656 286.746094 L 365.644531 286.746094 C 365.859375 286.746094 366.035156 286.917969 366.035156 287.132812 C 366.035156 287.347656 365.859375 287.519531 365.644531 287.519531 L 362.714844 287.519531 L 364.199219 302.621094 C 365.910156 302.902344 369.328125 303.046875 374.433594 303.046875 C 376.351562 303.046875 385.730469 303.570312 388.429688 303.824219 C 391.503906 304.113281 396.613281 303.867188 403.75 303.089844 Z M 404.171875 303.5625 L 404.203125 303.820312 C 396.824219 304.636719 391.546875 304.894531 388.355469 304.597656 C 385.679688 304.34375 376.324219 303.820312 374.433594 303.820312 C 368.976562 303.820312 365.429688 303.660156 363.761719 303.328125 L 363.765625 303.3125 C 362.03125 303.492188 360.636719 304.832031 360.394531 306.570312 L 360.085938 308.792969 C 360.054688 308.996094 360.042969 309.207031 360.042969 309.414062 C 360.042969 311.898438 362.054688 313.914062 364.535156 313.914062 L 405.320312 313.914062 C 408.175781 313.914062 410.492188 311.597656 410.492188 308.738281 C 410.492188 305.878906 408.175781 303.5625 405.320312 303.5625 Z M 404.171875 303.5625 " fill-opacity="1" fill-rule="nonzero"/><path fill="#263e4b" d="M 359.035156 122.4375 L 357.53125 138.34375 C 369.785156 142.511719 377.617188 146.132812 381.0625 149.234375 C 385.53125 153.257812 396.988281 176.511719 402.859375 191.773438 C 404.628906 196.382812 407.378906 199.300781 414.046875 204.707031 L 414.609375 205.160156 C 421.304688 210.585938 424.042969 213.515625 425.71875 218.171875 C 428.304688 225.363281 433.484375 227.089844 441.476562 223.386719 C 441.667969 223.296875 441.898438 223.382812 441.988281 223.574219 C 442.078125 223.769531 441.996094 224 441.800781 224.089844 C 433.417969 227.976562 427.742188 226.082031 424.988281 218.4375 C 423.378906 213.957031 420.710938 211.101562 414.121094 205.761719 L 413.558594 205.308594 C 406.789062 199.820312 403.972656 196.832031 402.132812 192.054688 C 396.316406 176.925781 384.882812 153.714844 380.546875 149.8125 C 377.175781 146.777344 369.3125 143.15625 356.992188 138.980469 C 356.820312 138.921875 356.714844 138.753906 356.730469 138.574219 L 358.257812 122.4375 L 353.757812 122.4375 C 353.542969 122.4375 353.367188 122.265625 353.367188 122.050781 C 353.367188 121.835938 353.542969 121.664062 353.757812 121.664062 L 358.679688 121.664062 C 358.679688 121.664062 358.683594 121.664062 358.6875 121.664062 L 367.296875 121.664062 C 372.632812 121.664062 375.726562 119.492188 377.34375 115.101562 C 378.640625 111.578125 378.957031 107.5 378.957031 98.789062 L 378.957031 92.851562 C 378.957031 92.769531 378.957031 92.703125 378.957031 92.554688 C 378.960938 89.667969 378.828125 88.007812 378.210938 85.472656 C 378.195312 85.457031 378.179688 85.4375 378.15625 85.417969 C 378.097656 85.355469 378.011719 85.277344 377.90625 85.179688 L 340.941406 85.179688 C 340.726562 85.179688 340.550781 85.003906 340.550781 84.792969 C 340.550781 84.578125 340.726562 84.402344 340.941406 84.402344 L 378.054688 84.402344 C 378.148438 84.402344 378.238281 84.4375 378.308594 84.5 C 378.765625 84.90625 378.902344 85.042969 378.945312 85.214844 C 379.597656 87.863281 379.738281 89.585938 379.734375 92.554688 C 379.734375 92.707031 379.734375 92.769531 379.734375 92.851562 L 379.734375 98.789062 C 379.734375 107.597656 379.414062 111.726562 378.070312 115.371094 C 376.34375 120.0625 372.957031 122.4375 367.296875 122.4375 Z M 472.28125 261.664062 L 473.027344 261.886719 C 466.53125 283.964844 459.636719 296.835938 452.25 300.519531 C 440.628906 306.320312 426.414062 306.765625 414.84375 301.085938 C 413.316406 300.335938 412.113281 299.289062 410.898438 297.675781 C 410.027344 296.527344 409.171875 295.144531 407.804688 292.746094 C 407.445312 292.117188 406.082031 289.699219 405.882812 289.347656 C 405.023438 287.835938 404.285156 286.550781 403.496094 285.207031 C 402.414062 283.371094 400.882812 279.316406 398.878906 273.019531 L 399.617188 272.785156 C 401.601562 279.027344 403.121094 283.046875 404.164062 284.816406 C 404.957031 286.160156 405.695312 287.449219 406.554688 288.964844 C 406.757812 289.320312 408.121094 291.734375 408.476562 292.359375 C 409.828125 294.730469 410.671875 296.09375 411.515625 297.207031 C 412.664062 298.726562 413.773438 299.695312 415.1875 300.390625 C 426.53125 305.960938 440.492188 305.519531 451.90625 299.824219 C 459.027344 296.273438 465.847656 283.542969 472.28125 261.664062 Z M 472.28125 261.664062 " fill-opacity="1" fill-rule="nonzero"/><path fill="#bad9ea" d="M 365.90625 141.972656 L 370.558594 143.785156 C 373.832031 153.789062 376.328125 162.328125 378.054688 169.402344 C 379.777344 176.476562 380.898438 186.996094 381.414062 200.96875 L 374.949219 199.15625 C 375.46875 187.945312 374.519531 178.027344 372.109375 169.402344 C 371.058594 165.644531 368.988281 156.503906 365.90625 141.972656 Z M 326.359375 143.007812 L 330.75 141.199219 C 331.785156 148.847656 332.304688 154.882812 332.304688 159.3125 C 332.304688 163.738281 332.304688 168.222656 332.304688 172.765625 L 325.582031 182.339844 C 326.617188 179.234375 327.132812 172.25 327.132812 161.382812 C 327.132812 150.511719 326.875 144.390625 326.359375 143.007812 Z M 326.359375 143.007812 " fill-opacity="1" fill-rule="evenodd"/><path fill="#263e4b" d="M 365.785156 142.054688 L 365.632812 141.351562 L 371.128906 143.492188 L 371.183594 143.664062 C 374.460938 153.679688 376.960938 162.226562 378.6875 169.308594 C 380.417969 176.414062 381.539062 186.957031 382.058594 200.957031 L 382.078125 201.488281 L 374.808594 199.449219 L 374.824219 199.140625 C 375.335938 187.96875 374.394531 178.089844 371.992188 169.507812 C 370.941406 165.738281 368.871094 156.59375 365.785156 142.054688 Z M 372.738281 169.296875 C 375.140625 177.886719 376.097656 187.742188 375.609375 198.867188 L 381.265625 200.453125 C 380.738281 186.769531 379.628906 176.445312 377.933594 169.496094 C 376.222656 162.472656 373.746094 154.003906 370.503906 144.082031 L 366.691406 142.597656 C 369.691406 156.707031 371.707031 165.613281 372.738281 169.296875 Z M 326.253906 143.144531 L 326.121094 142.792969 L 331.328125 140.648438 L 331.394531 141.148438 C 332.429688 148.808594 332.949219 154.863281 332.949219 159.3125 L 332.949219 172.890625 L 324.636719 184.730469 L 325.472656 182.21875 C 326.488281 179.167969 327.003906 172.203125 327.003906 161.382812 C 327.003906 150.597656 326.746094 144.457031 326.253906 143.144531 Z M 327.78125 161.382812 C 327.78125 170.351562 327.429688 176.6875 326.71875 180.414062 L 332.171875 172.644531 L 332.171875 159.3125 C 332.171875 155 331.679688 149.144531 330.691406 141.75 L 327.085938 143.234375 C 327.554688 145.179688 327.78125 151.175781 327.78125 161.382812 Z M 327.78125 161.382812 " fill-opacity="1" fill-rule="nonzero"/><path fill="#263e4b" d="M 358.554688 143.121094 L 359.296875 142.898438 L 394.460938 261.703125 C 396.46875 272.203125 403.710938 277.429688 416.308594 277.429688 C 428.910156 277.429688 439.269531 269.007812 447.402344 252.09375 L 448.101562 252.429688 C 439.851562 269.589844 429.25 278.207031 416.308594 278.207031 C 403.359375 278.207031 395.78125 272.738281 393.707031 261.886719 Z M 377.671875 239.207031 L 378.4375 239.324219 C 374.445312 265.199219 366.945312 278.207031 355.824219 278.207031 C 346.824219 278.207031 340.839844 250.179688 338.378906 196.589844 C 337.914062 186.484375 337.65625 169.230469 337.601562 144.820312 L 338.375 144.820312 C 338.429688 169.21875 338.6875 186.460938 339.152344 196.550781 C 341.582031 249.445312 347.558594 277.429688 355.824219 277.429688 C 366.414062 277.429688 373.734375 264.734375 377.671875 239.207031 Z M 377.671875 239.207031 " fill-opacity="1" fill-rule="nonzero"/><path fill="#263e4b" d="M 416.296875 226.476562 L 443.378906 223.632812 L 444.980469 238.871094 L 417.898438 241.71875 Z M 391.175781 199.15625 L 388.628906 174.941406 C 389.652344 172.320312 392.34375 170.785156 396.703125 170.324219 C 401.0625 169.867188 404.015625 170.8125 405.558594 173.160156 L 408.101562 197.375 Z M 462.269531 191.683594 L 445.34375 193.460938 L 442.796875 169.246094 C 443.816406 166.628906 446.507812 165.089844 450.871094 164.632812 C 455.230469 164.171875 458.179688 165.117188 459.722656 167.46875 Z M 462.269531 191.683594 " fill-opacity="1" fill-rule="evenodd"/><path fill="#ffffff" d="M 389.050781 226.042969 L 385.117188 188.621094 C 386.761719 184.566406 391.074219 182.171875 398.050781 181.4375 C 405.027344 180.707031 409.742188 182.152344 412.199219 185.773438 L 416.132812 223.199219 Z M 470.300781 217.503906 L 443.214844 220.351562 L 439.28125 182.925781 C 440.929688 178.875 445.242188 176.480469 452.21875 175.746094 C 459.195312 175.011719 463.910156 176.457031 466.367188 180.082031 Z M 470.300781 217.503906 " fill-opacity="1" fill-rule="evenodd"/><path stroke-linecap="round" transform="matrix(0.811693, 0, 0, 0.811655, 59.999998, 60.080998)" fill-opacity="1" fill="#ffffff" fill-rule="evenodd" stroke-linejoin="round" d="M 405.176248 204.60345 L 400.330092 158.493003 C 402.360954 153.502236 407.67392 150.552053 416.268991 149.647266 C 424.864061 148.747292 430.672712 150.523177 433.694943 154.989359 L 438.5411 201.094995 Z M 505.275614 194.082895 L 471.910763 197.591351 L 467.064606 151.480904 C 469.090656 146.485324 474.403622 143.539954 482.998693 142.635167 C 491.593764 141.73038 497.402414 143.511078 500.429458 147.972448 Z M 505.275614 194.082895 " stroke="#263e4b" stroke-width="0.955" stroke-opacity="1" stroke-miterlimit="4"/><path fill="#ffffff" d="M 388.214844 267.523438 L 383.664062 224.226562 C 386.015625 219.492188 391.992188 216.621094 401.582031 215.609375 C 411.175781 214.601562 417.613281 216.171875 420.902344 220.316406 L 425.453125 263.609375 Z M 479.621094 257.917969 L 442.378906 261.828125 L 437.832031 218.535156 C 440.183594 213.796875 446.15625 210.925781 455.75 209.917969 C 465.34375 208.910156 471.78125 210.476562 475.070312 214.621094 Z M 479.621094 257.917969 " fill-opacity="1" fill-rule="evenodd"/><path fill="#263e4b" d="M 388.136719 267.921875 C 387.921875 267.945312 387.730469 267.789062 387.710938 267.574219 L 383.160156 224.28125 C 383.152344 224.207031 383.164062 224.132812 383.195312 224.066406 C 385.621094 219.1875 391.714844 216.257812 401.421875 215.238281 C 411.132812 214.214844 417.699219 215.816406 421.085938 220.085938 C 421.132812 220.144531 421.160156 220.214844 421.167969 220.285156 L 425.71875 263.582031 C 425.742188 263.792969 425.585938 263.984375 425.375 264.007812 Z M 424.90625 263.277344 L 420.410156 220.480469 C 417.199219 216.527344 410.910156 215.019531 401.503906 216.007812 C 392.097656 216.996094 386.257812 219.78125 383.941406 224.3125 L 388.441406 267.109375 Z M 479.886719 257.886719 C 479.910156 258.101562 479.753906 258.292969 479.542969 258.316406 L 442.300781 262.230469 C 442.089844 262.25 441.898438 262.097656 441.875 261.882812 L 437.324219 218.589844 C 437.316406 218.515625 437.332031 218.441406 437.363281 218.375 C 439.789062 213.492188 445.878906 210.566406 455.589844 209.542969 C 465.300781 208.523438 471.867188 210.121094 475.253906 214.394531 C 475.300781 214.449219 475.328125 214.519531 475.335938 214.59375 Z M 479.074219 257.582031 L 474.578125 214.789062 C 471.367188 210.835938 465.074219 209.328125 455.671875 210.316406 C 446.265625 211.304688 440.425781 214.085938 438.109375 218.621094 L 442.605469 261.417969 Z M 479.074219 257.582031 " fill-opacity="1" fill-rule="nonzero"/><path fill="#263e4b" d="M 407.382812 271.929688 C 397.097656 273.011719 388.464844 271.042969 388.09375 267.535156 C 387.726562 264.027344 395.761719 260.308594 406.046875 259.230469 C 416.332031 258.148438 424.964844 260.113281 425.335938 263.621094 C 425.703125 267.128906 417.664062 270.847656 407.382812 271.929688 Z M 461.546875 266.234375 C 451.265625 267.316406 442.628906 265.351562 442.261719 261.84375 C 441.894531 258.335938 449.929688 254.617188 460.214844 253.535156 C 470.496094 252.453125 479.132812 254.421875 479.5 257.929688 C 479.871094 261.4375 471.832031 265.15625 461.546875 266.234375 Z M 461.546875 266.234375 " fill-opacity="1" fill-rule="evenodd"/><path fill="#263e4b" d="M 378.941406 233.363281 C 382.191406 233.019531 384.550781 230.105469 384.207031 226.851562 C 383.867188 223.601562 380.953125 221.242188 377.703125 221.582031 C 374.453125 221.925781 372.09375 224.839844 372.433594 228.089844 C 372.777344 231.34375 375.691406 233.703125 378.941406 233.363281 Z M 378.859375 232.589844 C 376.035156 232.886719 373.503906 230.835938 373.207031 228.011719 C 372.910156 225.183594 374.957031 222.652344 377.785156 222.355469 C 380.609375 222.058594 383.140625 224.109375 383.4375 226.933594 C 383.734375 229.761719 381.683594 232.292969 378.859375 232.589844 Z M 378.859375 232.589844 " fill-opacity="1" fill-rule="nonzero"/><path fill="#263e4b" d="M 254.832031 239.765625 L 260.054688 237.863281 C 260.257812 237.792969 260.480469 237.894531 260.554688 238.097656 C 260.625 238.296875 260.523438 238.519531 260.320312 238.59375 L 255.675781 240.285156 L 260.386719 243.070312 C 260.570312 243.179688 260.632812 243.417969 260.523438 243.601562 C 260.414062 243.785156 260.175781 243.847656 259.992188 243.738281 L 254.734375 240.628906 L 254.632812 240.664062 C 254.589844 240.679688 254.542969 240.6875 254.496094 240.6875 C 245.003906 253.339844 242.808594 265.828125 247.882812 278.1875 C 252.828125 290.238281 255.050781 294.539062 258.800781 298.25 C 263.121094 302.53125 269.070312 304.753906 279.359375 305.894531 C 298.757812 308.042969 310.089844 301.609375 315.136719 287.261719 C 318.289062 278.300781 320.09375 272.023438 320.546875 268.453125 C 320.574219 268.242188 320.765625 268.089844 320.980469 268.117188 C 321.191406 268.144531 321.339844 268.339844 321.316406 268.550781 C 320.851562 272.191406 319.039062 278.507812 315.867188 287.519531 C 310.695312 302.21875 299.019531 308.851562 279.273438 306.664062 C 268.828125 305.507812 262.71875 303.226562 258.253906 298.800781 C 254.402344 294.988281 252.152344 290.636719 247.164062 278.484375 C 241.953125 265.785156 244.25 252.945312 254.035156 240.011719 C 255.085938 226.878906 259.847656 214.585938 268.316406 203.140625 C 276.757812 191.730469 285.457031 183.152344 294.417969 177.410156 C 300.472656 161.347656 309.265625 150.59375 320.796875 145.164062 C 326.546875 142.460938 330.859375 140.664062 333.746094 139.769531 C 335.679688 139.171875 337.054688 138.953125 337.824219 139.195312 L 339.152344 114.785156 C 339.164062 114.570312 339.347656 114.40625 339.5625 114.417969 C 339.773438 114.429688 339.9375 114.613281 339.925781 114.828125 L 338.542969 140.21875 C 338.515625 140.722656 337.769531 140.703125 337.769531 140.199219 C 337.769531 139.722656 336.574219 139.707031 333.972656 140.511719 C 331.128906 141.390625 326.84375 143.175781 321.128906 145.867188 C 309.765625 151.214844 301.085938 161.851562 295.097656 177.804688 C 295.066406 177.882812 295.011719 177.949219 294.941406 177.996094 C 286.03125 183.683594 277.363281 192.21875 268.941406 203.601562 C 260.621094 214.84375 255.921875 226.894531 254.832031 239.765625 Z M 254.832031 239.765625 " fill-opacity="1" fill-rule="nonzero"/><path fill="#ffffff" d="M 338.246094 137.058594 L 334.617188 146.253906 C 334.40625 146.785156 334.667969 147.386719 335.199219 147.59375 C 335.40625 147.679688 335.636719 147.691406 335.855469 147.628906 L 351.363281 143.328125 L 361.628906 146.984375 C 362.167969 147.175781 362.757812 146.894531 362.949219 146.355469 C 363.0625 146.035156 363.011719 145.675781 362.8125 145.402344 L 357.117188 137.574219 C 356.058594 138.496094 353.796875 138.957031 350.328125 138.957031 C 346.859375 138.957031 342.832031 138.324219 338.246094 137.058594 Z M 338.246094 137.058594 " fill-opacity="1" fill-rule="evenodd"/><path fill="#263e4b" d="M 351.121094 143.609375 L 336.21875 147.746094 C 335.917969 147.828125 335.601562 147.8125 335.3125 147.695312 C 334.585938 147.40625 334.226562 146.582031 334.515625 145.851562 L 338.144531 136.65625 C 338.21875 136.472656 338.417969 136.375 338.609375 136.425781 C 343.160156 137.683594 347.15625 138.308594 350.585938 138.308594 C 353.96875 138.308594 356.15625 137.863281 357.121094 137.023438 C 357.292969 136.875 357.554688 136.90625 357.6875 137.089844 L 363.382812 144.910156 C 363.65625 145.289062 363.730469 145.78125 363.570312 146.226562 C 363.308594 146.964844 362.496094 147.351562 361.757812 147.089844 L 351.898438 143.578125 C 351.917969 143.726562 351.9375 143.898438 351.960938 144.097656 C 352.058594 144.941406 352.203125 146.246094 352.398438 148.011719 C 352.785156 151.550781 353.367188 156.941406 354.140625 164.183594 C 354.164062 164.398438 354.011719 164.589844 353.796875 164.613281 C 353.585938 164.636719 353.394531 164.480469 353.371094 164.269531 C 352.59375 157.023438 352.015625 151.632812 351.625 148.097656 C 351.433594 146.332031 351.285156 145.027344 351.191406 144.1875 C 351.164062 143.960938 351.140625 143.769531 351.121094 143.609375 Z M 351.113281 139.082031 C 351.199219 139.414062 351.28125 139.785156 351.355469 140.191406 C 351.484375 140.847656 351.582031 141.484375 351.699219 142.320312 L 351.75 142.675781 C 351.75 142.683594 351.753906 142.695312 351.753906 142.703125 L 362.015625 146.359375 C 362.351562 146.476562 362.722656 146.300781 362.839844 145.964844 C 362.914062 145.765625 362.878906 145.539062 362.753906 145.367188 L 357.292969 137.867188 C 356.121094 138.644531 354.070312 139.039062 351.113281 139.082031 Z M 350.992188 142.839844 C 350.988281 142.824219 350.984375 142.804688 350.980469 142.78125 L 350.933594 142.429688 C 350.816406 141.601562 350.71875 140.980469 350.597656 140.335938 C 350.503906 139.867188 350.410156 139.445312 350.3125 139.085938 C 346.953125 139.054688 343.097656 138.445312 338.738281 137.265625 L 335.234375 146.136719 C 335.105469 146.46875 335.269531 146.84375 335.601562 146.976562 C 335.730469 147.027344 335.875 147.035156 336.011719 146.996094 Z M 350.992188 142.839844 " fill-opacity="1" fill-rule="nonzero"/><path fill="#ffffff" d="M 298.183594 225.886719 C 319.632812 191.660156 331.953125 172.773438 335.144531 169.21875 C 337.636719 166.449219 341.90625 166.21875 344.675781 168.710938 C 346.75 170.574219 347.464844 173.523438 346.472656 176.128906 L 338.765625 196.390625 " fill-opacity="1" fill-rule="evenodd"/><path fill="#263e4b" d="M 298.421875 226.273438 C 319.847656 192.089844 332.175781 173.1875 335.34375 169.660156 C 337.691406 167.046875 341.714844 166.835938 344.328125 169.1875 C 346.28125 170.945312 346.953125 173.726562 346.015625 176.1875 L 338.3125 196.433594 L 339.035156 196.707031 L 346.742188 176.460938 C 347.792969 173.703125 347.039062 170.582031 344.84375 168.609375 C 341.914062 165.96875 337.402344 166.210938 334.769531 169.140625 C 331.550781 172.722656 319.238281 191.597656 297.765625 225.863281 Z M 298.421875 226.273438 " fill-opacity="1" fill-rule="nonzero"/><path fill="#263e4b" d="M 346.097656 100.074219 C 345.492188 99.894531 344.855469 99.796875 344.191406 99.796875 C 340.480469 99.796875 337.472656 102.8125 337.472656 106.527344 C 337.472656 109.683594 339.644531 112.332031 342.574219 113.058594 L 342.269531 119.316406 C 342.1875 120.988281 340.800781 122.292969 339.128906 122.269531 L 331.152344 122.15625 C 330.640625 122.148438 330.132812 122.074219 329.640625 121.929688 C 326.625 121.050781 324.894531 117.894531 325.773438 114.878906 L 334.539062 84.792969 L 335.578125 84.792969 L 335.582031 84.785156 L 336.796875 84.792969 L 341.347656 84.792969 L 341.351562 84.8125 L 352.164062 84.867188 C 350.914062 90.605469 349.792969 94.445312 348.800781 96.375 C 348.089844 97.757812 347.1875 98.988281 346.097656 100.074219 Z M 382.832031 84.792969 C 383.851562 89.105469 382.277344 91.261719 378.109375 91.261719 C 373.941406 91.261719 367.6875 89.105469 359.351562 84.792969 Z M 382.832031 84.792969 " fill-opacity="1" fill-rule="evenodd"/><path fill="#ffffff" d="M 287.167969 234.917969 L 322.261719 203.648438 C 327.371094 199.09375 334 196.621094 340.84375 196.707031 L 380.804688 197.222656 C 386.265625 197.292969 390.726562 201.597656 390.992188 207.050781 C 391.242188 212.210938 387.261719 216.597656 382.101562 216.847656 C 381.984375 216.855469 381.867188 216.859375 381.75 216.859375 L 347.914062 217.230469 C 345.84375 217.253906 344.183594 218.949219 344.207031 221.019531 C 344.207031 221.019531 344.207031 221.019531 344.207031 221.023438 C 344.234375 223.117188 345.910156 224.820312 348.003906 224.878906 L 382.929688 225.832031 C 387.6875 225.964844 391.484375 229.847656 391.507812 234.605469 C 391.535156 239.296875 387.75 243.121094 383.058594 243.144531 C 383.046875 243.144531 383.03125 243.144531 383.015625 243.144531 L 349.726562 243.144531 C 347.675781 243.144531 346.015625 244.804688 346.015625 246.851562 C 346.015625 246.867188 346.015625 246.882812 346.019531 246.898438 C 346.042969 249.148438 347.480469 251.140625 349.605469 251.878906 L 370.925781 259.28125 C 374.613281 260.558594 376.566406 264.589844 375.285156 268.277344 C 375.226562 268.441406 375.164062 268.601562 375.097656 268.761719 C 373.390625 272.710938 368.941406 274.703125 364.859375 273.339844 L 330.207031 261.777344 L 311.457031 274.289062 C 301.84375 280.703125 288.84375 278.113281 282.429688 268.496094 C 281.824219 267.59375 281.292969 266.644531 280.835938 265.65625 C 279.203125 262.121094 278.695312 257.058594 279.308594 250.464844 C 279.867188 244.476562 282.675781 238.921875 287.167969 234.917969 Z M 287.167969 234.917969 " fill-opacity="1" fill-rule="evenodd"/><path fill="#263e4b" d="M 285.769531 271.667969 L 292.308594 267.460938 C 290.066406 265.316406 288.253906 262.683594 286.722656 259.621094 C 284.503906 255.179688 285.234375 246.691406 288.867188 234.097656 L 287.628906 235.203125 C 283.203125 239.144531 280.4375 244.621094 279.890625 250.527344 C 279.285156 257.046875 279.789062 262.035156 281.386719 265.492188 C 281.832031 266.457031 282.351562 267.386719 282.9375 268.269531 C 283.777344 269.523438 284.726562 270.660156 285.769531 271.667969 Z M 286.355469 272.214844 C 293.167969 278.304688 303.476562 279.28125 311.429688 273.972656 L 313.238281 272.765625 C 306.050781 274.0625 300.203125 273.003906 295.519531 269.992188 C 294.585938 269.394531 293.714844 268.730469 292.898438 268.003906 Z M 289.28125 232.691406 C 289.28125 232.6875 289.28125 232.6875 289.28125 232.683594 C 289.328125 232.535156 289.449219 232.433594 289.59375 232.410156 L 322.207031 203.355469 C 327.386719 198.738281 334.101562 196.230469 341.035156 196.320312 L 381.019531 196.835938 C 386.675781 196.90625 391.300781 201.375 391.578125 207.03125 C 391.839844 212.40625 387.699219 216.976562 382.328125 217.234375 C 382.207031 217.242188 382.085938 217.246094 381.960938 217.246094 L 348.113281 217.617188 C 346.261719 217.636719 344.773438 219.160156 344.792969 221.015625 L 344.792969 221.019531 C 344.816406 222.90625 346.324219 224.4375 348.207031 224.488281 L 383.144531 225.445312 C 388.109375 225.582031 392.070312 229.636719 392.09375 234.605469 C 392.121094 239.507812 388.167969 243.507812 383.269531 243.535156 L 349.917969 243.535156 C 348.085938 243.535156 346.601562 245.019531 346.601562 246.851562 C 346.601562 246.871094 346.601562 246.871094 346.601562 246.890625 C 346.628906 248.980469 347.957031 250.828125 349.929688 251.511719 L 371.253906 258.914062 C 375.140625 260.261719 377.199219 264.511719 375.851562 268.398438 C 375.789062 268.574219 375.722656 268.746094 375.648438 268.914062 C 373.863281 273.054688 369.210938 275.132812 364.941406 273.707031 L 330.460938 262.203125 L 311.859375 274.617188 C 302.0625 281.15625 288.824219 278.507812 282.292969 268.699219 C 281.683594 267.78125 281.144531 266.820312 280.683594 265.820312 C 279.019531 262.21875 278.503906 257.097656 279.117188 250.457031 C 279.683594 244.355469 282.542969 238.695312 287.113281 234.621094 Z M 289.960938 233.125 C 286.082031 246.195312 285.246094 254.929688 287.417969 259.273438 C 289.558594 263.566406 292.257812 266.976562 295.9375 269.339844 C 300.726562 272.417969 306.789062 273.382812 314.386719 271.746094 C 314.492188 271.722656 314.597656 271.746094 314.683594 271.800781 L 330.347656 261.347656 L 365.1875 272.972656 C 369.074219 274.269531 373.308594 272.375 374.9375 268.605469 C 375.003906 268.457031 375.0625 268.300781 375.117188 268.144531 C 376.324219 264.660156 374.480469 260.855469 371 259.648438 L 349.675781 252.246094 C 347.394531 251.453125 345.855469 249.316406 345.828125 246.902344 C 345.828125 246.875 345.828125 246.875 345.828125 246.851562 C 345.828125 244.589844 347.660156 242.757812 349.917969 242.757812 L 383.265625 242.757812 C 387.738281 242.734375 391.34375 239.085938 391.320312 234.609375 C 391.296875 230.058594 387.667969 226.347656 383.125 226.222656 L 348.1875 225.265625 C 345.886719 225.203125 344.046875 223.332031 344.019531 221.027344 L 344.019531 221.023438 C 343.992188 218.738281 345.824219 216.867188 348.105469 216.839844 L 381.953125 216.472656 C 382.066406 216.46875 382.179688 216.464844 382.292969 216.460938 C 387.234375 216.21875 391.042969 212.015625 390.800781 207.070312 C 390.546875 201.820312 386.257812 197.675781 381.007812 197.609375 L 341.027344 197.09375 C 334.285156 197.007812 327.757812 199.449219 322.722656 203.933594 Z M 289.960938 233.125 " fill-opacity="1" fill-rule="nonzero"/><path fill="#ffffff" d="M 462.097656 206.257812 L 462.101562 207.308594 C 462.128906 212.675781 466.484375 217.011719 471.851562 217.011719 L 479.207031 217.011719 C 473.128906 217.480469 469.164062 219.464844 467.316406 222.964844 C 464.40625 228.476562 466.515625 235.304688 472.027344 238.214844 C 473.652344 239.074219 475.460938 239.523438 477.300781 239.523438 L 480.5 239.523438 L 479.625 239.953125 C 473.472656 242.96875 470.933594 250.402344 473.953125 256.550781 C 474.136719 256.921875 474.335938 257.285156 474.554688 257.636719 C 477.492188 261.726562 483.191406 262.664062 487.285156 259.726562 C 487.558594 259.527344 487.820312 259.316406 488.070312 259.09375 L 493.777344 253.953125 C 496.929688 251.113281 498.410156 246.863281 497.707031 242.679688 C 497.65625 242.375 497.605469 242.097656 497.558594 241.851562 C 497.261719 240.34375 496.226562 238.101562 494.457031 235.125 C 495.664062 232.710938 496.007812 229.777344 495.492188 226.328125 C 494.972656 222.878906 493.507812 219.859375 491.097656 217.269531 C 492.269531 214.257812 492.445312 210.894531 491.613281 207.179688 C 491.285156 205.707031 490.828125 204.453125 490.246094 203.417969 C 489.179688 201.515625 487.257812 200.25 485.089844 200.023438 L 470.660156 198.507812 C 466.402344 198.0625 462.585938 201.152344 462.140625 205.410156 C 462.109375 205.691406 462.097656 205.972656 462.097656 206.257812 Z M 462.097656 206.257812 " fill-opacity="1" fill-rule="evenodd"/><path fill="#263e4b" d="M 480.605469 238.875 L 494.351562 234.546875 C 495.460938 232.234375 495.769531 229.429688 495.277344 226.125 C 494.769531 222.761719 493.347656 219.824219 491 217.296875 L 491 217.398438 L 479.085938 217.167969 C 473.308594 217.667969 469.574219 219.582031 467.828125 222.886719 C 465.019531 228.207031 467.046875 234.800781 472.363281 237.613281 C 473.929688 238.441406 475.675781 238.875 477.449219 238.875 Z M 480.8125 239.625 L 479.957031 240.046875 C 474.007812 242.964844 471.550781 250.160156 474.464844 256.113281 C 474.644531 256.476562 474.839844 256.828125 475.039062 257.148438 C 477.855469 261.074219 483.3125 261.96875 487.234375 259.148438 C 487.492188 258.960938 487.742188 258.761719 487.980469 258.546875 L 493.679688 253.410156 C 496.738281 250.65625 498.175781 246.527344 497.492188 242.464844 C 497.441406 242.171875 497.394531 241.90625 497.347656 241.667969 C 497.070312 240.257812 496.101562 238.136719 494.449219 235.328125 Z M 479.375 216.394531 L 490.996094 216.625 C 492.058594 213.75 492.195312 210.546875 491.402344 207.003906 C 491.082031 205.570312 490.640625 204.355469 490.078125 203.351562 C 489.074219 201.558594 487.261719 200.367188 485.21875 200.152344 L 470.789062 198.636719 C 466.742188 198.210938 463.117188 201.152344 462.691406 205.199219 C 462.664062 205.46875 462.652344 205.738281 462.652344 206.003906 L 462.660156 207.046875 C 462.683594 212.199219 466.863281 216.363281 472.007812 216.363281 L 479.375 216.363281 Z M 467.140625 222.523438 C 468.523438 219.910156 471.019531 218.121094 474.617188 217.140625 L 472.007812 217.140625 C 466.433594 217.140625 461.910156 212.632812 461.882812 207.050781 L 461.878906 206.007812 C 461.875 205.710938 461.890625 205.414062 461.921875 205.121094 C 462.390625 200.644531 466.398438 197.394531 470.871094 197.863281 L 485.300781 199.378906 C 487.59375 199.621094 489.625 200.960938 490.757812 202.972656 C 491.355469 204.042969 491.824219 205.332031 492.160156 206.835938 C 492.984375 210.53125 492.839844 213.898438 491.714844 216.925781 C 494.082031 219.53125 495.527344 222.5625 496.042969 226.011719 C 496.558594 229.445312 496.234375 232.394531 495.066406 234.847656 C 496.792969 237.769531 497.804688 239.984375 498.105469 241.515625 C 498.15625 241.761719 498.203125 242.035156 498.253906 242.335938 C 498.984375 246.660156 497.453125 251.054688 494.199219 253.988281 L 488.496094 259.125 C 488.238281 259.355469 487.96875 259.574219 487.6875 259.777344 C 483.417969 262.847656 477.472656 261.875 474.394531 257.582031 C 474.167969 257.214844 473.957031 256.839844 473.769531 256.453125 C 470.761719 250.3125 473.125 242.933594 479.035156 239.652344 L 477.449219 239.652344 C 475.550781 239.652344 473.679688 239.1875 472 238.296875 C 466.308594 235.285156 464.132812 228.222656 467.140625 222.523438 Z M 471.996094 200.703125 C 472.210938 200.699219 472.386719 200.871094 472.390625 201.085938 C 472.394531 201.300781 472.222656 201.476562 472.007812 201.480469 C 469.148438 201.519531 467.882812 203.230469 468.128906 206.808594 C 468.375 210.40625 469.648438 212.019531 471.976562 211.855469 C 472.191406 211.84375 472.378906 212.003906 472.390625 212.21875 C 472.40625 212.429688 472.246094 212.617188 472.03125 212.628906 C 469.195312 212.828125 467.625 210.835938 467.355469 206.863281 C 467.082031 202.871094 468.652344 200.75 471.996094 200.703125 Z M 475.703125 222.835938 C 475.917969 222.816406 476.105469 222.976562 476.121094 223.191406 C 476.140625 223.402344 475.980469 223.589844 475.769531 223.609375 C 472.917969 223.847656 471.773438 225.640625 472.269531 229.195312 C 472.765625 232.765625 474.148438 234.289062 476.460938 233.964844 C 476.675781 233.933594 476.871094 234.082031 476.898438 234.292969 C 476.929688 234.507812 476.78125 234.703125 476.570312 234.730469 C 473.753906 235.128906 472.050781 233.25 471.5 229.304688 C 470.949219 225.339844 472.371094 223.117188 475.703125 222.835938 Z M 481.136719 245.46875 C 481.347656 245.425781 481.554688 245.558594 481.597656 245.769531 C 481.640625 245.980469 481.507812 246.183594 481.296875 246.226562 C 478.5 246.8125 477.582031 248.734375 478.503906 252.203125 C 479.433594 255.683594 480.992188 257.027344 483.246094 256.421875 C 483.453125 256.367188 483.667969 256.488281 483.722656 256.695312 C 483.777344 256.902344 483.65625 257.117188 483.449219 257.171875 C 480.703125 257.90625 478.78125 256.253906 477.753906 252.402344 C 476.726562 248.535156 477.863281 246.152344 481.136719 245.46875 Z M 481.136719 245.46875 " fill-opacity="1" fill-rule="nonzero"/><path fill="#ffffff" d="M 145.28125 314.917969 L 157.832031 445.988281 L 164.292969 445.988281 L 158.140625 313.65625 C 157.980469 310.183594 155.03125 307.5 151.558594 307.660156 C 151.453125 307.667969 151.347656 307.675781 151.242188 307.683594 C 147.597656 308.039062 144.933594 311.277344 145.28125 314.917969 Z M 145.28125 314.917969 " fill-opacity="1" fill-rule="evenodd"/><path fill="#263e4b" d="M 144.894531 314.710938 L 157.480469 446.132812 L 164.699219 446.132812 L 158.527344 313.394531 C 158.355469 309.707031 155.230469 306.859375 151.542969 307.03125 C 151.429688 307.035156 151.316406 307.042969 151.203125 307.054688 C 147.347656 307.429688 144.527344 310.855469 144.894531 314.710938 Z M 158.183594 445.359375 L 145.667969 314.636719 C 145.339844 311.207031 147.847656 308.160156 151.277344 307.824219 C 151.378906 307.816406 151.476562 307.808594 151.578125 307.804688 C 154.835938 307.652344 157.601562 310.171875 157.753906 313.429688 L 163.886719 445.359375 Z M 158.183594 445.359375 " fill-opacity="1" fill-rule="nonzero"/><path fill="#263e4b" d="M 154.664062 449.773438 C 154.585938 449.972656 154.359375 450.066406 154.160156 449.984375 C 153.960938 449.90625 153.867188 449.679688 153.949219 449.480469 C 159.0625 436.972656 162.039062 428.234375 162.878906 423.285156 C 162.914062 423.074219 163.113281 422.929688 163.324219 422.96875 C 163.535156 423.003906 163.679688 423.203125 163.644531 423.414062 C 162.792969 428.4375 159.800781 437.214844 154.664062 449.773438 Z M 162.59375 406.015625 C 162.664062 406.21875 162.550781 406.4375 162.351562 406.503906 C 162.148438 406.574219 161.925781 406.464844 161.859375 406.261719 C 159.582031 399.472656 154.984375 393.679688 148.046875 388.878906 C 147.871094 388.757812 147.828125 388.515625 147.949219 388.339844 C 148.070312 388.164062 148.3125 388.121094 148.488281 388.242188 C 155.554688 393.132812 160.261719 399.058594 162.59375 406.015625 Z M 157.03125 433.503906 C 156.945312 433.699219 156.714844 433.785156 156.519531 433.699219 C 156.324219 433.609375 156.238281 433.378906 156.324219 433.183594 C 157.019531 431.660156 157.480469 430.414062 157.714844 429.460938 C 160.933594 416.339844 158.9375 406.75 153.242188 399.9375 C 153.101562 399.773438 153.125 399.527344 153.289062 399.390625 C 153.453125 399.253906 153.699219 399.277344 153.835938 399.441406 C 159.695312 406.449219 161.742188 416.292969 158.46875 429.644531 C 158.21875 430.652344 157.742188 431.9375 157.03125 433.503906 Z M 147.894531 308.511719 C 147.867188 308.300781 148.015625 308.105469 148.226562 308.078125 C 148.441406 308.050781 148.632812 308.199219 148.660156 308.414062 C 152.023438 334.75 164.628906 348.675781 186.542969 350.3125 C 186.753906 350.328125 186.914062 350.515625 186.898438 350.726562 C 186.882812 350.941406 186.695312 351.101562 186.484375 351.085938 C 164.179688 349.421875 151.296875 335.191406 147.894531 308.511719 Z M 153.570312 308.113281 C 153.550781 307.898438 153.707031 307.710938 153.917969 307.6875 C 154.132812 307.667969 154.320312 307.824219 154.339844 308.039062 C 156.542969 331.230469 167.027344 343.320312 185.863281 344.703125 C 186.078125 344.722656 186.238281 344.90625 186.222656 345.121094 C 186.207031 345.332031 186.019531 345.496094 185.804688 345.476562 C 166.566406 344.0625 155.804688 331.65625 153.570312 308.113281 Z M 153.570312 308.113281 " fill-opacity="1" fill-rule="nonzero"/><path fill="#263e4b" d="M 359.960938 102.386719 C 358.960938 102.386719 358.152344 101.460938 358.152344 100.316406 C 358.152344 99.171875 358.960938 98.246094 359.960938 98.246094 C 360.957031 98.246094 361.769531 99.171875 361.769531 100.316406 C 361.769531 101.460938 360.957031 102.386719 359.960938 102.386719 Z M 375.984375 102.386719 C 374.984375 102.386719 374.175781 101.460938 374.175781 100.316406 C 374.175781 99.171875 374.984375 98.246094 375.984375 98.246094 C 376.984375 98.246094 377.792969 99.171875 377.792969 100.316406 C 377.792969 101.460938 376.984375 102.386719 375.984375 102.386719 Z M 356.378906 98.496094 C 356.238281 98.660156 355.996094 98.679688 355.832031 98.542969 C 355.667969 98.402344 355.648438 98.160156 355.785156 97.996094 C 355.847656 97.921875 355.960938 97.800781 356.113281 97.648438 C 356.371094 97.394531 356.660156 97.140625 356.972656 96.902344 C 357.894531 96.207031 358.855469 95.789062 359.824219 95.789062 C 361.230469 95.789062 362 96.125 362.773438 96.976562 C 362.894531 97.109375 363.019531 97.257812 363.183594 97.460938 C 363.230469 97.519531 363.527344 97.886719 363.621094 98 C 363.757812 98.167969 363.730469 98.410156 363.5625 98.546875 C 363.398438 98.683594 363.15625 98.65625 363.019531 98.492188 C 362.925781 98.375 362.628906 98.003906 362.582031 97.949219 C 362.425781 97.757812 362.3125 97.621094 362.199219 97.5 C 361.574219 96.808594 361.011719 96.5625 359.824219 96.5625 C 359.054688 96.5625 358.238281 96.921875 357.441406 97.519531 C 357.15625 97.738281 356.894531 97.96875 356.660156 98.199219 C 356.523438 98.335938 356.425781 98.441406 356.378906 98.496094 Z M 372.929688 98.484375 C 372.796875 98.65625 372.554688 98.683594 372.386719 98.550781 C 372.21875 98.417969 372.1875 98.175781 372.320312 98.007812 C 372.378906 97.933594 372.480469 97.8125 372.625 97.65625 C 372.863281 97.402344 373.132812 97.148438 373.425781 96.910156 C 374.285156 96.210938 375.1875 95.789062 376.101562 95.789062 C 377.417969 95.789062 378.144531 96.128906 378.867188 96.988281 C 378.984375 97.121094 379.097656 97.269531 379.25 97.46875 C 379.292969 97.527344 379.570312 97.898438 379.65625 98.011719 C 379.785156 98.183594 379.75 98.425781 379.578125 98.554688 C 379.410156 98.683594 379.164062 98.652344 379.035156 98.480469 C 378.949219 98.363281 378.671875 97.992188 378.628906 97.9375 C 378.488281 97.746094 378.378906 97.609375 378.277344 97.488281 C 377.699219 96.804688 377.1875 96.5625 376.101562 96.5625 C 375.398438 96.5625 374.648438 96.917969 373.914062 97.511719 C 373.648438 97.726562 373.40625 97.957031 373.191406 98.1875 C 373.0625 98.324219 372.972656 98.429688 372.929688 98.484375 Z M 370.207031 105.621094 L 373.261719 105.621094 L 369.847656 96.835938 C 369.769531 96.632812 369.867188 96.410156 370.066406 96.332031 C 370.265625 96.253906 370.492188 96.351562 370.570312 96.554688 L 374.1875 105.867188 C 374.289062 106.121094 374.101562 106.398438 373.828125 106.398438 L 370.207031 106.398438 C 369.996094 106.398438 369.820312 106.222656 369.820312 106.007812 C 369.820312 105.792969 369.996094 105.621094 370.207031 105.621094 Z M 368.324219 111.007812 C 368.136719 111.109375 367.902344 111.039062 367.800781 110.847656 C 367.699219 110.660156 367.769531 110.425781 367.957031 110.324219 C 369.363281 109.570312 370.714844 109.570312 371.960938 110.335938 C 372.144531 110.445312 372.203125 110.6875 372.089844 110.867188 C 371.976562 111.050781 371.738281 111.109375 371.558594 110.996094 C 370.550781 110.382812 369.492188 110.382812 368.324219 111.007812 Z M 368.324219 111.007812 " fill-opacity="1" fill-rule="evenodd"/><path fill="#ffffff" d="M 83.132812 338.34375 L 103.8125 402.253906 L 205.910156 388.539062 L 205.910156 313.761719 L 105.046875 333.957031 L 103.8125 342.742188 L 97.195312 335.527344 Z M 83.132812 338.34375 " fill-opacity="1" fill-rule="evenodd"/><path fill="#263e4b" d="M 97.484375 335.027344 C 97.390625 334.929688 97.253906 334.882812 97.121094 334.910156 L 83.058594 337.726562 C 82.832031 337.769531 82.691406 338.003906 82.765625 338.226562 L 103.441406 402.136719 C 103.5 402.316406 103.675781 402.425781 103.863281 402.402344 L 205.960938 388.6875 C 206.152344 388.660156 206.296875 388.496094 206.296875 388.304688 L 206.296875 313.523438 C 206.296875 313.28125 206.074219 313.097656 205.832031 313.144531 L 104.972656 333.339844 C 104.808594 333.371094 104.6875 333.5 104.664062 333.664062 L 103.542969 341.636719 Z M 97.058594 335.714844 L 103.527344 342.765625 C 103.746094 343.007812 104.148438 342.882812 104.195312 342.558594 L 105.394531 334.042969 L 205.519531 313.996094 L 205.519531 387.964844 L 104.082031 401.589844 L 83.636719 338.402344 Z M 97.058594 335.714844 " fill-opacity="1" fill-rule="nonzero"/><path fill="#ffffff" d="M 60.386719 516.25 L 94.765625 516.25 C 108.304688 480.96875 120.738281 458.941406 132.0625 450.167969 C 132.730469 449.652344 128.742188 443.90625 120.09375 432.933594 C 125.699219 437.367188 129.578125 440.214844 131.726562 441.46875 C 132.738281 442.0625 132.824219 433.609375 131.984375 416.113281 L 141.242188 444.160156 C 144.765625 442.386719 147.453125 441.148438 149.304688 440.4375 C 175.324219 430.429688 196.691406 455.703125 213.40625 516.25 L 562.863281 516.25 " fill-opacity="1" fill-rule="evenodd"/><g clip-path="url(#4cf19eefdd)"><path fill="#263e4b" d="M 131.53125 441.679688 C 131.898438 441.898438 132.234375 441.695312 132.414062 441.308594 C 132.53125 441.054688 132.621094 440.675781 132.695312 440.148438 C 132.835938 439.144531 132.917969 437.582031 132.9375 435.453125 C 132.976562 431.6875 132.832031 426.136719 132.503906 418.796875 L 140.871094 444.15625 C 140.945312 444.382812 141.203125 444.488281 141.414062 444.382812 C 144.929688 442.617188 147.605469 441.378906 149.441406 440.671875 C 175.15625 430.785156 196.371094 455.875 213.03125 516.226562 C 213.078125 516.394531 213.230469 516.511719 213.40625 516.511719 L 562.863281 516.511719 C 563.078125 516.511719 563.25 516.339844 563.25 516.125 C 563.25 515.910156 563.078125 515.738281 562.863281 515.738281 L 213.699219 515.738281 C 196.941406 455.199219 175.449219 429.84375 149.164062 439.949219 C 147.371094 440.640625 144.804688 441.820312 141.46875 443.488281 L 132.351562 415.867188 C 132.210938 415.4375 131.578125 415.558594 131.597656 416.007812 C 132.019531 424.75 132.207031 431.230469 132.164062 435.445312 C 132.140625 437.542969 132.0625 439.078125 131.929688 440.042969 C 131.875 440.4375 131.808594 440.726562 131.742188 440.90625 C 129.578125 439.609375 125.773438 436.808594 120.335938 432.503906 C 119.976562 432.21875 119.507812 432.6875 119.789062 433.046875 C 124.109375 438.527344 127.265625 442.703125 129.253906 445.570312 C 130.242188 446.992188 130.941406 448.09375 131.347656 448.859375 C 131.542969 449.226562 131.667969 449.511719 131.71875 449.707031 C 131.730469 449.746094 131.738281 449.777344 131.742188 449.804688 C 120.394531 458.65625 107.992188 480.625 94.5 515.738281 L 60.386719 515.738281 C 60.171875 515.738281 60 515.910156 60 516.125 C 60 516.339844 60.171875 516.511719 60.386719 516.511719 L 94.765625 516.511719 C 94.925781 516.511719 95.070312 516.414062 95.125 516.261719 C 108.644531 481.046875 121.050781 459.070312 132.300781 450.351562 C 132.933594 449.859375 132.15625 448.390625 129.890625 445.125 C 128.210938 442.703125 125.707031 439.359375 122.378906 435.09375 C 126.65625 438.417969 129.703125 440.613281 131.53125 441.679688 Z M 131.53125 441.679688 " fill-opacity="1" fill-rule="nonzero"/></g><path fill="#263e4b" d="M 363.953125 60.082031 L 349.269531 60.082031 C 342.671875 60.082031 337.316406 65.402344 337.25 71.992188 L 328.535156 84.570312 C 328.355469 84.828125 328.539062 85.179688 328.851562 85.179688 L 387.785156 85.179688 C 388.128906 85.179688 388.300781 84.769531 388.0625 84.523438 L 375.453125 71.4375 C 375.371094 65.152344 370.253906 60.082031 363.953125 60.082031 Z M 337.957031 72.335938 C 338.003906 72.269531 338.027344 72.191406 338.027344 72.113281 C 338.027344 65.898438 343.058594 60.855469 349.269531 60.855469 L 363.953125 60.855469 C 369.878906 60.855469 374.679688 65.664062 374.679688 71.59375 C 374.679688 71.695312 374.71875 71.792969 374.789062 71.863281 L 386.871094 84.402344 L 329.59375 84.402344 Z M 337.957031 72.335938 " fill-opacity="1" fill-rule="nonzero"/><path fill="#bad9ea" d="M 374.910156 71.855469 L 337.472656 72.371094 L 334.886719 76.253906 L 379.085938 76.253906 Z M 374.910156 71.855469 " fill-opacity="1" fill-rule="evenodd"/><path fill="#263e4b" d="M 375.164062 71.207031 L 337.726562 71.726562 C 337.597656 71.726562 337.480469 71.792969 337.410156 71.898438 L 334.824219 75.777344 C 334.652344 76.035156 334.835938 76.382812 335.144531 76.382812 L 379.34375 76.382812 C 379.6875 76.382812 379.859375 75.972656 379.625 75.726562 L 375.449219 71.328125 C 375.375 71.25 375.269531 71.207031 375.164062 71.207031 Z M 378.441406 75.605469 L 335.871094 75.605469 L 337.941406 72.496094 L 375.003906 71.984375 Z M 378.441406 75.605469 " fill-opacity="1" fill-rule="nonzero"/><path fill="#ffffff" d="M 270.011719 506.035156 L 265.617188 527.25 L 348.84375 527.25 C 345.03125 519.191406 340.550781 513.582031 335.40625 510.433594 C 330.261719 507.28125 320.867188 505.8125 307.230469 506.035156 L 314.210938 469.808594 L 272.335938 470.066406 L 271.820312 497.234375 Z M 270.011719 506.035156 " fill-opacity="1" fill-rule="evenodd"/><path fill="#ffffff" d="M 382.445312 502.929688 L 382.445312 527.511719 L 392.785156 527.25 L 458.957031 527.25 C 455.140625 519.191406 450.660156 513.582031 445.515625 510.433594 C 440.371094 507.28125 430.980469 505.8125 417.339844 506.035156 L 423.800781 470.390625 L 378.570312 470.066406 L 381.929688 497.234375 Z M 382.445312 502.929688 " fill-opacity="1" fill-rule="evenodd"/><path fill="#bad9ea" d="M 271.820312 497.496094 C 275.777344 498.136719 278.878906 500.636719 281.125 505 C 283.371094 509.359375 284.578125 515.226562 284.742188 522.59375 L 266.652344 522.335938 " fill-opacity="1" fill-rule="evenodd"/><path fill="#bad9ea" d="M 382.445312 497.496094 C 389.507812 499.171875 394.160156 502.191406 396.40625 506.550781 C 398.652344 510.914062 399.683594 516.261719 399.507812 522.59375 L 382.445312 522.335938 Z M 382.445312 497.496094 " fill-opacity="1" fill-rule="evenodd"/><path fill="#263e4b" d="M 284.675781 469.863281 L 287.554688 450.015625 L 281.382812 450.015625 L 281.382812 449.238281 L 287.667969 449.238281 L 289.207031 438.628906 L 283.710938 438.628906 L 283.710938 437.855469 L 313.691406 437.855469 L 313.691406 438.628906 L 307.683594 438.628906 L 305.714844 449.238281 L 311.367188 449.238281 L 311.367188 450.015625 L 305.574219 450.015625 L 301.914062 469.753906 L 314.679688 469.675781 L 308.960938 499.355469 L 310.9375 493.941406 C 311.019531 493.714844 311.125 493.496094 311.246094 493.285156 C 312.367188 491.375 314.824219 490.734375 316.734375 491.855469 C 317.054688 492.042969 317.347656 492.285156 317.59375 492.5625 C 318.890625 494.027344 318.753906 496.265625 317.289062 497.5625 L 308.101562 505.699219 C 309.828125 505.269531 314.078125 504.175781 320.316406 502.554688 C 320.523438 502.5 320.734375 502.625 320.789062 502.832031 C 320.84375 503.039062 320.71875 503.25 320.511719 503.304688 C 315.964844 504.488281 312.6875 505.335938 310.523438 505.886719 C 322.460938 505.9375 330.8125 507.425781 335.605469 510.359375 C 340.824219 513.554688 345.351562 519.21875 349.195312 527.34375 L 349.457031 527.898438 L 265.140625 527.898438 L 269.632812 506.214844 L 271.433594 497.453125 L 271.957031 469.941406 Z M 285.460938 469.855469 L 292.960938 469.8125 L 295.988281 450.015625 L 288.339844 450.015625 Z M 293.746094 469.804688 L 301.125 469.761719 L 304.785156 450.015625 L 296.773438 450.015625 Z M 307.558594 506.675781 C 307.527344 506.683594 307.492188 506.683594 307.457031 506.679688 L 298.710938 506.9375 C 298.5 506.945312 298.320312 506.777344 298.3125 506.5625 C 298.308594 506.347656 298.476562 506.167969 298.691406 506.164062 L 306.5 505.933594 L 297.042969 497.5625 C 295.582031 496.265625 295.445312 494.027344 296.742188 492.5625 C 296.988281 492.285156 297.277344 492.042969 297.601562 491.855469 C 299.511719 490.734375 301.96875 491.375 303.089844 493.285156 C 303.210938 493.496094 303.316406 493.714844 303.398438 493.941406 L 307.167969 504.277344 L 307.289062 503.945312 L 313.738281 470.457031 L 272.71875 470.710938 L 272.214844 497.203125 C 280.261719 499.597656 284.875 507.878906 285.125 521.945312 L 345.417969 521.945312 C 342.367188 516.964844 338.960938 513.324219 335.203125 511.023438 C 330.175781 507.945312 320.953125 506.484375 307.558594 506.675781 Z M 308.039062 504.152344 L 307.90625 504.835938 L 316.773438 496.980469 C 317.917969 495.96875 318.023438 494.21875 317.011719 493.078125 C 316.820312 492.859375 316.59375 492.671875 316.339844 492.523438 C 314.800781 491.621094 312.820312 492.136719 311.914062 493.675781 C 311.816406 493.847656 311.730469 494.023438 311.664062 494.207031 Z M 345.882812 522.722656 L 267.003906 522.722656 L 266.09375 527.121094 L 348.230469 527.121094 C 347.472656 525.558594 346.691406 524.09375 345.882812 522.722656 Z M 267.164062 521.945312 L 284.351562 521.945312 C 284.105469 508.261719 279.695312 500.308594 272.113281 497.984375 L 270.390625 506.371094 Z M 302.667969 494.207031 C 302.601562 494.023438 302.519531 493.847656 302.417969 493.675781 C 301.515625 492.136719 299.535156 491.621094 297.992188 492.523438 C 297.742188 492.671875 297.515625 492.859375 297.320312 493.078125 C 296.308594 494.21875 296.414062 495.96875 297.558594 496.980469 L 306.601562 504.988281 Z M 306.894531 438.628906 L 298.515625 438.628906 L 296.894531 449.238281 L 304.929688 449.238281 Z M 297.734375 438.628906 L 289.988281 438.628906 L 288.453125 449.238281 L 296.109375 449.238281 Z M 297.734375 438.628906 " fill-opacity="1" fill-rule="nonzero"/><path fill="#bad9ea" d="M 268.460938 193.722656 L 259.929688 193.722656 L 269.234375 178.976562 " fill-opacity="1" fill-rule="evenodd"/><path fill="#263e4b" d="M 387.65625 469.730469 L 384.796875 450.015625 L 379.863281 450.015625 L 379.863281 449.238281 L 384.683594 449.238281 L 383.144531 438.628906 L 378.3125 438.628906 L 378.3125 437.855469 L 409.585938 437.855469 L 409.585938 438.628906 L 402.90625 438.628906 L 403.976562 449.238281 L 409.84375 449.238281 L 409.84375 450.015625 L 404.054688 450.015625 L 406.050781 469.835938 L 424.261719 469.941406 L 418.367188 504.125 L 422.082031 493.941406 C 422.164062 493.714844 422.265625 493.496094 422.390625 493.285156 C 423.511719 491.375 425.96875 490.734375 427.878906 491.855469 C 428.199219 492.042969 428.488281 492.285156 428.738281 492.5625 C 430.03125 494.027344 429.898438 496.265625 428.433594 497.5625 L 419.65625 505.335938 C 421.84375 504.777344 425.515625 503.832031 430.425781 502.554688 C 430.632812 502.5 430.84375 502.625 430.898438 502.832031 C 430.953125 503.039062 430.828125 503.25 430.621094 503.304688 C 426.078125 504.488281 422.800781 505.332031 420.636719 505.882812 C 432.707031 505.917969 441.148438 507.402344 445.976562 510.359375 C 451.191406 513.554688 455.71875 519.21875 459.5625 527.34375 L 459.828125 527.898438 L 382.0625 527.898438 L 382.058594 527.511719 L 381.804688 497.546875 L 378.128906 469.675781 Z M 388.441406 469.734375 L 396.226562 469.78125 L 394.472656 450.015625 L 385.578125 450.015625 Z M 397.003906 469.785156 L 405.269531 469.832031 L 403.273438 450.015625 L 395.253906 450.015625 Z M 382.527344 497.117188 C 393.753906 499.378906 399.550781 507.695312 399.886719 521.945312 L 455.789062 521.945312 C 452.734375 516.964844 449.328125 513.324219 445.570312 511.023438 C 440.5625 507.953125 431.390625 506.496094 418.074219 506.671875 C 418.023438 506.683594 417.96875 506.683594 417.917969 506.675781 C 417.828125 506.675781 417.734375 506.679688 417.644531 506.679688 C 417.617188 506.683594 417.59375 506.683594 417.566406 506.679688 L 408.824219 506.9375 C 408.609375 506.945312 408.429688 506.777344 408.421875 506.5625 C 408.417969 506.347656 408.585938 506.167969 408.800781 506.164062 L 416.609375 505.933594 L 407.15625 497.5625 C 405.691406 496.265625 405.554688 494.027344 406.851562 492.5625 C 407.097656 492.285156 407.386719 492.042969 407.710938 491.855469 C 409.621094 490.734375 412.078125 491.375 413.199219 493.285156 C 413.320312 493.496094 413.425781 493.714844 413.507812 493.941406 L 417.464844 504.792969 L 423.34375 470.710938 L 379.011719 470.457031 Z M 382.578125 497.917969 L 382.785156 521.945312 L 399.109375 521.945312 C 398.78125 508.132812 393.28125 500.160156 382.578125 497.917969 Z M 456.253906 522.722656 L 382.792969 522.722656 L 382.832031 527.121094 L 458.597656 527.121094 C 457.84375 525.558594 457.058594 524.09375 456.253906 522.722656 Z M 412.777344 494.207031 C 412.710938 494.023438 412.628906 493.847656 412.53125 493.675781 C 411.625 492.136719 409.644531 491.621094 408.101562 492.523438 C 407.851562 492.671875 407.625 492.859375 407.433594 493.078125 C 406.417969 494.21875 406.527344 495.96875 407.667969 496.980469 L 416.710938 504.988281 Z M 422.808594 494.207031 L 418.878906 504.988281 L 427.917969 496.980469 C 429.0625 495.96875 429.167969 494.21875 428.15625 493.078125 C 427.964844 492.859375 427.738281 492.671875 427.484375 492.523438 C 425.945312 491.621094 423.960938 492.136719 423.058594 493.675781 C 422.960938 493.847656 422.875 494.023438 422.808594 494.207031 Z M 402.128906 438.628906 L 394.242188 438.628906 L 395.183594 449.238281 L 403.195312 449.238281 Z M 393.464844 438.628906 L 383.929688 438.628906 L 385.46875 449.238281 L 394.40625 449.238281 Z M 393.464844 438.628906 " fill-opacity="1" fill-rule="nonzero"/><path fill="#bad9ea" d="M 135.425781 366.019531 L 136.191406 370.835938 L 131.757812 371.539062 L 132.332031 375.152344 L 126.632812 376.054688 L 126.058594 372.441406 L 110.421875 374.917969 L 109.660156 370.101562 L 123.117188 353.871094 L 128.816406 352.96875 L 130.996094 366.722656 Z M 115.800781 369.128906 L 125.296875 367.625 L 124.023438 359.574219 Z M 151.277344 372.476562 C 142.480469 373.871094 137.65625 370.476562 136.488281 363.089844 C 135.324219 355.738281 138.863281 351.054688 147.664062 349.660156 C 156.433594 348.269531 161.285156 351.660156 162.445312 358.980469 C 163.609375 366.332031 160.046875 371.085938 151.277344 372.476562 Z M 150.519531 367.691406 C 155.523438 366.898438 157.40625 364.035156 156.75 359.882812 C 156.09375 355.761719 153.425781 353.652344 148.421875 354.445312 C 143.421875 355.234375 141.527344 358.039062 142.1875 362.1875 C 142.847656 366.371094 145.519531 368.480469 150.519531 367.691406 Z M 190.507812 357.296875 L 191.273438 362.113281 L 186.839844 362.816406 L 187.414062 366.429688 L 181.714844 367.332031 L 181.140625 363.71875 L 165.503906 366.195312 L 164.742188 361.378906 L 178.199219 345.148438 L 183.898438 344.246094 L 186.078125 358 Z M 170.882812 360.40625 L 180.378906 358.902344 L 179.105469 350.851562 Z M 170.882812 360.40625 " fill-opacity="1" fill-rule="nonzero"/><path fill="#263e4b" d="M 135.996094 365.324219 L 136.882812 370.90625 L 132.449219 371.605469 L 133.019531 375.21875 L 126.558594 376.242188 L 125.984375 372.628906 L 110.347656 375.105469 L 109.496094 369.734375 L 123.160156 353.257812 L 129.386719 352.269531 L 131.566406 366.023438 Z M 130.921875 366.910156 L 128.742188 353.160156 L 123.570312 353.976562 L 110.316406 369.960938 L 110.992188 374.21875 L 126.628906 371.742188 L 127.203125 375.355469 L 132.132812 374.574219 L 131.5625 370.960938 L 135.992188 370.261719 L 135.351562 366.210938 Z M 115.0625 369.421875 L 124.523438 358.433594 L 125.988281 367.691406 Z M 125.101562 367.046875 L 124.019531 360.207031 L 117.03125 368.328125 Z M 151.585938 372.605469 C 142.738281 374.003906 137.578125 370.644531 136.351562 362.898438 C 135.132812 355.1875 139 350.421875 147.851562 349.019531 C 156.671875 347.625 161.859375 350.984375 163.078125 358.664062 C 164.296875 366.378906 160.402344 371.207031 151.585938 372.605469 Z M 151.464844 371.839844 C 159.875 370.507812 163.464844 366.058594 162.3125 358.785156 C 161.164062 351.546875 156.386719 348.453125 147.972656 349.789062 C 139.527344 351.125 135.96875 355.507812 137.117188 362.777344 C 138.277344 370.082031 143.027344 373.175781 151.464844 371.839844 Z M 150.828125 367.820312 C 145.773438 368.621094 142.769531 366.542969 142.050781 361.996094 C 141.335938 357.484375 143.554688 354.609375 148.609375 353.808594 C 153.65625 353.007812 156.667969 355.078125 157.378906 359.566406 C 158.09375 364.09375 155.871094 367.019531 150.828125 367.820312 Z M 150.707031 367.054688 C 155.335938 366.320312 157.261719 363.785156 156.613281 359.6875 C 155.96875 355.628906 153.363281 353.839844 148.730469 354.570312 C 144.089844 355.308594 142.171875 357.796875 142.816406 361.875 C 143.46875 365.988281 146.070312 367.789062 150.707031 367.054688 Z M 191.078125 356.597656 L 191.960938 362.179688 L 187.53125 362.882812 L 188.101562 366.496094 L 181.640625 367.519531 L 181.066406 363.90625 L 165.429688 366.382812 L 164.578125 361.011719 L 178.242188 344.53125 L 184.46875 343.546875 L 186.648438 357.300781 Z M 186.003906 358.1875 L 183.824219 344.433594 L 178.652344 345.253906 L 165.398438 361.234375 L 166.074219 365.496094 L 181.710938 363.019531 L 182.285156 366.632812 L 187.214844 365.851562 L 186.644531 362.238281 L 191.074219 361.535156 L 190.433594 357.484375 Z M 170.144531 360.699219 L 179.605469 349.710938 L 181.070312 358.96875 Z M 180.183594 358.324219 L 179.101562 351.484375 L 172.113281 359.601562 Z M 180.183594 358.324219 " fill-opacity="1" fill-rule="nonzero"/><path fill="#263e4b" d="M 269.132812 178.558594 C 269.179688 178.382812 269.222656 178.21875 269.253906 178.066406 L 269.679688 169.121094 C 270.378906 154.285156 282.597656 142.621094 297.433594 142.621094 L 326.617188 142.621094 L 326.617188 143.398438 L 297.433594 143.398438 C 283.011719 143.398438 271.136719 154.738281 270.453125 169.15625 L 270.328125 171.757812 C 271.699219 166.496094 274.34375 161.789062 278.261719 157.746094 C 284.167969 151.652344 291.484375 154.691406 300.050781 166.589844 C 300.175781 166.761719 300.136719 167.003906 299.960938 167.128906 C 299.789062 167.253906 299.546875 167.214844 299.421875 167.042969 C 291.097656 155.480469 284.285156 152.652344 278.820312 158.289062 C 273.675781 163.59375 270.789062 170.0625 270.136719 177.457031 C 270.121094 177.664062 270.082031 177.898438 270.027344 178.167969 L 268.847656 203.058594 L 268.074219 203.019531 L 268.507812 193.855469 L 260.1875 193.855469 C 259.882812 193.855469 259.699219 193.515625 259.859375 193.257812 Z M 268.542969 193.078125 L 269.164062 179.964844 L 260.890625 193.078125 Z M 268.542969 193.078125 " fill-opacity="1" fill-rule="nonzero"/><path fill="#263e4b" d="M 383.5625 213.300781 C 383.347656 213.292969 383.183594 213.109375 383.191406 212.898438 C 383.199219 212.683594 383.378906 212.515625 383.59375 212.523438 C 386.449219 212.632812 387.804688 210.992188 387.746094 207.402344 C 387.691406 203.800781 386.503906 202.121094 384.164062 202.160156 C 383.953125 202.164062 383.777344 201.996094 383.773438 201.78125 C 383.769531 201.566406 383.9375 201.390625 384.152344 201.386719 C 386.996094 201.335938 388.460938 203.40625 388.523438 207.390625 C 388.585938 211.390625 386.90625 213.425781 383.5625 213.300781 Z M 382.738281 240.601562 C 382.523438 240.582031 382.367188 240.394531 382.386719 240.179688 C 382.40625 239.964844 382.59375 239.808594 382.804688 239.828125 C 385.652344 240.085938 387.09375 238.519531 387.222656 234.933594 C 387.355469 231.328125 386.257812 229.59375 383.921875 229.511719 C 383.707031 229.503906 383.539062 229.324219 383.546875 229.109375 C 383.554688 228.894531 383.734375 228.726562 383.949219 228.734375 C 386.789062 228.832031 388.140625 230.976562 387.996094 234.960938 C 387.851562 238.960938 386.066406 240.902344 382.738281 240.601562 Z M 365.789062 270.8125 C 365.59375 270.726562 365.503906 270.496094 365.589844 270.300781 C 365.675781 270.105469 365.902344 270.015625 366.101562 270.101562 C 368.734375 271.253906 370.492188 270.496094 371.554688 267.742188 C 372.625 264.964844 372.0625 263.253906 369.863281 262.410156 C 369.664062 262.332031 369.566406 262.109375 369.640625 261.90625 C 369.71875 261.707031 369.941406 261.609375 370.140625 261.683594 C 372.777344 262.695312 373.492188 264.871094 372.277344 268.019531 C 371.058594 271.1875 368.832031 272.144531 365.789062 270.8125 Z M 337.875 167.492188 L 338.621094 167.691406 C 337.207031 173 334.257812 176.132812 329.792969 177.027344 L 329.640625 176.265625 C 333.796875 175.433594 336.53125 172.53125 337.875 167.492188 Z M 337.875 167.492188 " fill-opacity="1" fill-rule="nonzero"/><path fill="#263e4b" d="M 294.449219 177.78125 L 295.484375 181.664062 C 295.539062 181.871094 295.75 181.992188 295.957031 181.9375 C 296.164062 181.882812 296.289062 181.671875 296.234375 181.464844 L 295.199219 177.582031 C 295.144531 177.375 294.929688 177.25 294.722656 177.308594 C 294.519531 177.363281 294.394531 177.574219 294.449219 177.78125 Z M 294.449219 177.78125 " fill-opacity="1" fill-rule="nonzero"/><path fill="#263e4b" d="M 294.738281 178.058594 L 298.097656 178.835938 C 298.304688 178.882812 298.511719 178.753906 298.5625 178.546875 C 298.609375 178.335938 298.480469 178.128906 298.273438 178.082031 L 294.910156 177.304688 C 294.703125 177.253906 294.496094 177.386719 294.445312 177.59375 C 294.398438 177.804688 294.527344 178.011719 294.738281 178.058594 Z M 294.738281 178.058594 " fill-opacity="1" fill-rule="nonzero"/><path fill="#263e4b" d="M 440.640625 180.519531 C 438.027344 177.359375 433.484375 177.027344 429.738281 179.496094 C 428.277344 180.457031 427.210938 181.824219 426.710938 183.390625 C 425.453125 187.332031 430.402344 197.40625 441.574219 213.867188 C 441.695312 214.042969 441.9375 214.089844 442.113281 213.96875 C 442.292969 213.847656 442.335938 213.605469 442.214844 213.429688 C 431.226562 197.238281 426.300781 187.21875 427.453125 183.625 C 427.894531 182.234375 428.847656 181.007812 430.164062 180.144531 C 433.597656 177.882812 437.699219 178.183594 440.042969 181.011719 C 440.179688 181.175781 440.425781 181.199219 440.589844 181.0625 C 440.753906 180.925781 440.777344 180.683594 440.640625 180.519531 Z M 440.640625 180.519531 " fill-opacity="1" fill-rule="nonzero"/><g clip-path="url(#5183bd35dd)"><path fill="#efefed" d="M 509.113281 424.679688 L 509.113281 425.75 C 517.269531 428.136719 518.148438 432.988281 518.148438 434.964844 L 519.261719 434.964844 C 519.261719 433.015625 518.527344 428.585938 512.382812 425.773438 L 528.5625 425.773438 L 528.5625 424.660156 L 512.382812 424.660156 C 518.527344 421.84375 519.261719 417.414062 519.261719 415.464844 L 518.148438 415.464844 C 518.148438 417.441406 517.269531 422.296875 509.113281 424.679688 Z M 509.113281 424.679688 " fill-opacity="1" fill-rule="nonzero"/></g></svg>