<svg xmlns="http://www.w3.org/2000/svg" xmlns:xlink="http://www.w3.org/1999/xlink" width="1280" zoomAndPan="magnify" viewBox="0 0 960 599.999999" height="800" preserveAspectRatio="xMidYMid meet" version="1.0"><defs><g/></defs><g fill="#362B23" fill-opacity="1"><g transform="translate(189.32997, 414.144847)"><g><path d="M 175.359375 -100.734375 L 205.6875 -100.734375 L 205.6875 -57.90625 L 175.359375 -57.90625 L 175.359375 0 L 122.234375 0 L 122.234375 -57.90625 L 12.5 -57.90625 L 10.109375 -91.359375 L 121.6875 -267.640625 L 175.359375 -267.640625 Z M 63.046875 -100.734375 L 122.234375 -100.734375 L 122.234375 -195.21875 L 118.75 -189.140625 Z M 63.046875 -100.734375 "/></g></g></g><g fill="#362B23" fill-opacity="1"><g transform="translate(387.992737, 414.144847)"><g><path d="M 198.34375 -110.65625 C 198.34375 -73.644531 190.679688 -45.335938 175.359375 -25.734375 C 160.035156 -6.128906 137.609375 3.671875 108.078125 3.671875 C 78.910156 3.671875 56.609375 -5.945312 41.171875 -25.1875 C 25.734375 -44.425781 17.832031 -72 17.46875 -107.90625 L 17.46875 -157.15625 C 17.46875 -194.53125 25.21875 -222.898438 40.71875 -242.265625 C 56.21875 -261.628906 78.550781 -271.3125 107.71875 -271.3125 C 136.882812 -271.3125 159.1875 -261.722656 174.625 -242.546875 C 190.0625 -223.367188 197.96875 -195.828125 198.34375 -159.921875 Z M 145.21875 -164.703125 C 145.21875 -186.878906 142.179688 -203.019531 136.109375 -213.125 C 130.046875 -223.238281 120.582031 -228.296875 107.71875 -228.296875 C 95.21875 -228.296875 85.992188 -223.484375 80.046875 -213.859375 C 74.109375 -204.242188 70.953125 -189.203125 70.578125 -168.734375 L 70.578125 -103.671875 C 70.578125 -81.859375 73.550781 -65.648438 79.5 -55.046875 C 85.445312 -44.453125 94.972656 -39.15625 108.078125 -39.15625 C 121.066406 -39.15625 130.441406 -44.238281 136.203125 -54.40625 C 141.960938 -64.582031 144.96875 -80.144531 145.21875 -101.09375 Z M 145.21875 -164.703125 "/></g></g></g><g fill="#362B23" fill-opacity="1"><g transform="translate(586.655503, 414.144847)"><g><path d="M 175.359375 -100.734375 L 205.6875 -100.734375 L 205.6875 -57.90625 L 175.359375 -57.90625 L 175.359375 0 L 122.234375 0 L 122.234375 -57.90625 L 12.5 -57.90625 L 10.109375 -91.359375 L 121.6875 -267.640625 L 175.359375 -267.640625 Z M 63.046875 -100.734375 L 122.234375 -100.734375 L 122.234375 -195.21875 L 118.75 -189.140625 Z M 63.046875 -100.734375 "/></g></g></g></svg>