<?xml version="1.0" encoding="UTF-8" standalone="no" ?>
<!DOCTYPE svg PUBLIC "-//W3C//DTD SVG 1.1//EN" "http://www.w3.org/Graphics/SVG/1.1/DTD/svg11.dtd">
<svg xmlns="http://www.w3.org/2000/svg" xmlns:xlink="http://www.w3.org/1999/xlink" version="1.1" width="300" height="100" viewBox="0 0 300 100" xml:space="preserve">
<desc>Created with Fabric.js 3.6.6</desc>
<defs>
</defs>
<rect x="0" y="0" width="100%" height="100%" fill="rgba(0, 0, 0, 0)"></rect>
<g transform="matrix(0.6 0 0 0.37 148.33 55.46)"  >
<g style=""   >
		<g transform="matrix(1.33 0 0 1.33 -87.71 -24.3)"  >
<path style="stroke: none; stroke-width: 1; stroke-dasharray: none; stroke-linecap: butt; stroke-dashoffset: 0; stroke-linejoin: miter; stroke-miterlimit: 4; fill: rgb(248,233,223); fill-rule: nonzero; opacity: 1;"  transform=" translate(-19.02, 19.92)" d="M 4.351562 0 L 5.453125 0 L 5.453125 -37.234375 L 32.59375 0.753906 L 33.695312 0.753906 L 33.695312 -40.597656 L 32.59375 -40.597656 L 32.59375 -7.421875 L 8.875 -40.597656 L 4.351562 -40.597656 Z M 4.351562 0" stroke-linecap="round" />
</g>
		<g transform="matrix(1.33 0 0 1.33 -31.85 -24.8)"  >
<path style="stroke: none; stroke-width: 1; stroke-dasharray: none; stroke-linecap: butt; stroke-dashoffset: 0; stroke-linejoin: miter; stroke-miterlimit: 4; fill: rgb(248,233,223); fill-rule: nonzero; opacity: 1;"  transform=" translate(-22.88, 20.3)" d="M 4.351562 -40.597656 L 4.351562 0 L 20.355469 0 C 48.429688 0 48.429688 -40.597656 20.300781 -40.597656 Z M 9.105469 -1.796875 L 9.105469 -38.742188 C 9.394531 -39.03125 9.570312 -39.207031 9.800781 -39.496094 L 20.300781 -39.496094 C 41.875 -39.496094 41.816406 -1.101562 20.355469 -1.101562 L 9.800781 -1.101562 C 9.570312 -1.390625 9.394531 -1.507812 9.105469 -1.796875 Z M 9.105469 -1.796875" stroke-linecap="round" />
</g>
		<g transform="matrix(1.33 0 0 1.33 26.47 -24.79)"  >
<path style="stroke: none; stroke-width: 1; stroke-dasharray: none; stroke-linecap: butt; stroke-dashoffset: 0; stroke-linejoin: miter; stroke-miterlimit: 4; fill: rgb(248,233,223); fill-rule: nonzero; opacity: 1;"  transform=" translate(-23.55, 20.3)" d="M 1.449219 -20.242188 C 1.449219 -8.699219 11.195312 0.753906 23.546875 0.753906 C 35.261719 0.753906 45.644531 -8.175781 45.644531 -20.300781 C 45.644531 -31.726562 35.957031 -41.351562 23.546875 -41.351562 C 11.832031 -41.351562 1.449219 -32.363281 1.449219 -20.242188 Z M 23.546875 -40.25 C 33.929688 -40.25 40.539062 -30.738281 40.539062 -20.300781 C 40.539062 -10.089844 34.101562 -0.347656 23.546875 -0.347656 C 13.164062 -0.347656 6.554688 -9.800781 6.554688 -20.242188 C 6.554688 -30.566406 13.109375 -40.25 23.546875 -40.25 Z M 23.546875 -40.25" stroke-linecap="round" />
</g>
		<g transform="matrix(1.33 0 0 1.33 83.08 -24.8)"  >
<path style="stroke: none; stroke-width: 1; stroke-dasharray: none; stroke-linecap: butt; stroke-dashoffset: 0; stroke-linejoin: miter; stroke-miterlimit: 4; fill: rgb(248,233,223); fill-rule: nonzero; opacity: 1;"  transform=" translate(-18.88, 20.3)" d="M 4.351562 0 L 9.105469 0 L 9.105469 -20.820312 L 12.757812 -20.820312 L 27.664062 0 L 33.40625 0 L 19.546875 -19.140625 C 18.328125 -19.488281 16.992188 -20.066406 15.660156 -20.820312 C 35.4375 -20.820312 32.828125 -40.597656 17.515625 -40.597656 L 4.351562 -40.597656 Z M 9.859375 -39.496094 L 16.007812 -39.4375 C 27.664062 -39.324219 27.664062 -21.921875 16.007812 -21.921875 L 9.105469 -21.921875 L 9.105469 -38.742188 Z M 9.859375 -39.496094" stroke-linecap="round" />
</g>
		<g transform="matrix(1.33 0 0 1.33 130.23 -25.3)"  >
<path style="stroke: none; stroke-width: 1; stroke-dasharray: none; stroke-linecap: butt; stroke-dashoffset: 0; stroke-linejoin: miter; stroke-miterlimit: 4; fill: rgb(248,233,223); fill-rule: nonzero; opacity: 1;"  transform=" translate(-19.4, 20.68)" d="M 2.667969 0 L 6.84375 -10.441406 L 27.605469 -10.441406 L 32.128906 0 L 37.351562 0 L 19.195312 -41.351562 L 18.09375 -41.351562 L 15.019531 -39.148438 L 16.179688 -36.539062 L 1.449219 0 Z M 16.761719 -35.089844 L 27.085938 -11.542969 L 7.308594 -11.542969 Z M 16.761719 -35.089844" stroke-linecap="round" />
</g>
		<g transform="matrix(1.33 0 0 1.33 161.71 -47.43)"  >
<path style="stroke: none; stroke-width: 1; stroke-dasharray: none; stroke-linecap: butt; stroke-dashoffset: 0; stroke-linejoin: miter; stroke-miterlimit: 4; fill: rgb(248,233,223); fill-rule: nonzero; opacity: 1;"  transform=" translate(-4.18, 37.32)" d="M 4.699219 -41.351562 L 3.652344 -41.351562 L 1.449219 -39.148438 L 1.449219 -38.046875 L 3.652344 -35.84375 L 3.246094 -33.871094 L 4.175781 -33.289062 L 6.902344 -38.046875 L 6.902344 -39.148438 Z M 4.699219 -41.351562" stroke-linecap="round" />
</g>
		<g transform="matrix(1.33 0 0 1.33 190.25 -24.76)"  >
<path style="stroke: none; stroke-width: 1; stroke-dasharray: none; stroke-linecap: butt; stroke-dashoffset: 0; stroke-linejoin: miter; stroke-miterlimit: 4; fill: rgb(248,233,223); fill-rule: nonzero; opacity: 1;"  transform=" translate(-17.25, 20.27)" d="M 2.898438 -8.234375 C 6.148438 -2.550781 11.425781 0.636719 17.746094 0.636719 C 24.648438 0.636719 31.609375 -2.726562 31.609375 -10.84375 C 31.609375 -25.519531 9.222656 -21.285156 9.222656 -32.882812 C 9.222656 -37.757812 12.46875 -40.019531 16.527344 -40.019531 C 20.996094 -39.960938 26.445312 -37.117188 29.578125 -31.78125 L 30.507812 -32.304688 C 27.257812 -37.988281 21.980469 -41.179688 15.660156 -41.179688 C 9.742188 -41.179688 4.117188 -38.21875 4.117188 -31.144531 C 4.117188 -17.339844 26.390625 -22.097656 26.390625 -8.875 C 26.390625 -3.710938 22.503906 -1.160156 17.804688 -0.984375 C 12.816406 -0.871094 6.902344 -3.539062 3.828125 -8.757812 Z M 2.898438 -8.234375" stroke-linecap="round" />
</g>
		<g transform="matrix(1.33 0 0 1.33 -185.52 -24.8)"  >
<path style="stroke: none; stroke-width: 1; stroke-dasharray: none; stroke-linecap: butt; stroke-dashoffset: 0; stroke-linejoin: miter; stroke-miterlimit: 4; fill: rgb(248,233,223); fill-rule: nonzero; opacity: 1;"  transform=" translate(-18.05, 20.3)" d="M 4.351562 0 L 9.105469 0 L 9.105469 -19.71875 L 18.210938 -19.71875 C 36.25 -19.71875 36.25 -40.597656 18.210938 -40.597656 L 4.351562 -40.597656 Z M 9.800781 -39.496094 L 16.703125 -39.496094 C 29.753906 -39.496094 30.507812 -20.820312 16.007812 -20.820312 L 9.105469 -20.820312 L 9.105469 -38.742188 C 9.222656 -38.859375 9.6875 -39.324219 9.800781 -39.496094 Z M 9.800781 -39.496094" stroke-linecap="round" />
</g>
		<g transform="matrix(1.33 0 0 1.33 -137.46 -27.88)" clip-path="url(#CLIPPATH_5)"  >
<clipPath id="CLIPPATH_5" >
	<path transform="matrix(1 0 0 1 1.68 0.66) translate(-86.16, -167.35)" clip-path="url(#undefined)" d="M 57.121094 126.335938 L 118.566406 128.941406 L 115.195312 208.371094 L 53.753906 205.765625 Z M 57.121094 126.335938" stroke-linecap="round" />
</clipPath>
<path style="stroke: none; stroke-width: 1; stroke-dasharray: none; stroke-linecap: butt; stroke-dashoffset: 0; stroke-linejoin: miter; stroke-miterlimit: 4; fill: rgb(248,233,223); fill-rule: nonzero; opacity: 1;"  transform=" translate(-84.49, -166.69)" d="M 99.902344 193.71875 C 99.964844 193.621094 100.652344 193.664062 101.09375 193.785156 C 101.738281 193.96875 102.082031 194.234375 102.070312 194.542969 C 102.054688 194.886719 101.523438 194.835938 100.757812 194.417969 C 100.179688 194.105469 99.832031 193.820312 99.902344 193.71875 Z M 114.589844 205.097656 C 114.390625 205.316406 114.035156 205.410156 113.210938 205.457031 C 112.867188 205.476562 112.308594 205.519531 111.96875 205.554688 C 111.238281 205.621094 110.871094 205.609375 110.109375 205.5 C 109.003906 205.335938 109.007812 205.335938 105.816406 202.089844 C 104.472656 200.722656 104.21875 200.488281 103.847656 200.28125 C 103.6875 200.191406 103.523438 200.097656 103.476562 200.066406 C 103.429688 200.039062 103.234375 199.976562 103.042969 199.933594 C 102.851562 199.886719 102.511719 199.804688 102.289062 199.75 C 102.066406 199.695312 101.621094 199.589844 101.300781 199.515625 C 99.679688 199.132812 98.578125 198.1875 98.617188 197.210938 C 98.632812 196.886719 98.832031 196.414062 99.261719 195.664062 C 99.472656 195.308594 99.691406 194.851562 99.757812 194.65625 L 99.871094 194.296875 L 100.121094 194.484375 C 100.601562 194.84375 101.105469 195.0625 101.578125 195.109375 C 101.988281 195.152344 102.03125 195.148438 102.210938 195.007812 C 102.46875 194.808594 102.523438 194.554688 102.386719 194.203125 C 102.191406 193.703125 101.539062 193.390625 100.441406 193.277344 L 99.851562 193.21875 L 99.792969 192.917969 C 99.574219 191.785156 98.996094 190.484375 97.664062 188.121094 C 97.359375 187.582031 97.113281 187.128906 97.113281 187.109375 C 97.113281 187.089844 97.171875 187.117188 97.242188 187.167969 C 97.3125 187.21875 97.550781 187.378906 97.769531 187.527344 C 97.988281 187.671875 98.386719 187.953125 98.652344 188.148438 C 98.917969 188.34375 99.761719 188.933594 100.527344 189.457031 C 101.296875 189.984375 102.109375 190.550781 102.335938 190.71875 C 102.925781 191.152344 102.941406 191.183594 103.878906 194.082031 C 104.613281 196.34375 105.070312 197.292969 105.890625 198.25 C 106.257812 198.675781 108.414062 200.789062 109.410156 201.695312 C 110.835938 202.992188 111.933594 203.746094 112.328125 203.699219 C 112.441406 203.683594 112.570312 203.703125 112.609375 203.738281 C 112.648438 203.773438 113.027344 203.941406 113.449219 204.113281 C 114.273438 204.441406 114.757812 204.714844 114.75 204.84375 C 114.75 204.890625 114.675781 205.003906 114.589844 205.097656 Z M 102.722656 200.328125 C 102.597656 200.433594 99.792969 201.386719 98.605469 201.726562 C 97.257812 202.109375 95.25 202.4375 93.148438 202.609375 C 89.316406 202.929688 86.394531 203.046875 83.207031 203.015625 C 82.128906 203.003906 80.386719 203.023438 79.339844 203.058594 C 76.578125 203.15625 74.417969 203.117188 70.09375 202.890625 C 65.917969 202.675781 62.15625 202.589844 60.96875 202.683594 C 59.40625 202.808594 57.984375 203.058594 57.398438 203.320312 C 57.003906 203.496094 56.71875 203.699219 55.804688 204.460938 C 54.9375 205.179688 54.5 205.355469 54.300781 205.066406 C 54.207031 204.929688 54.207031 204.753906 54.242188 204.488281 C 54.304688 204.003906 54.589844 203.683594 55.1875 203.191406 C 56.292969 202.28125 56.429688 202.136719 56.886719 201.332031 C 57.527344 200.207031 58.09375 199.691406 58.953125 199.449219 C 59.277344 199.359375 59.535156 199.351562 61.136719 199.382812 C 62.714844 199.414062 62.996094 199.402344 63.3125 199.316406 C 63.78125 199.1875 64.164062 198.941406 64.667969 198.460938 L 65.070312 198.074219 L 65.554688 198.222656 C 66.222656 198.429688 67.621094 198.539062 68.441406 198.441406 C 69.527344 198.316406 70.652344 197.972656 71.550781 197.484375 C 71.9375 197.277344 71.941406 197.273438 71.988281 197.402344 C 72.011719 197.472656 72.023438 198.195312 72.011719 199.007812 C 71.992188 200.535156 72.011719 200.664062 72.238281 200.671875 C 72.417969 200.679688 72.699219 200.414062 72.902344 200.050781 C 73.167969 199.566406 73.328125 198.9375 73.316406 198.378906 L 73.3125 197.921875 L 74.078125 197.925781 C 74.695312 197.925781 74.996094 197.890625 75.640625 197.753906 C 77.382812 197.375 78.453125 196.988281 80.46875 195.996094 C 84.824219 193.859375 86.730469 193.328125 90.4375 193.214844 C 92.503906 193.152344 93.511719 193.175781 94.832031 193.316406 C 95.3125 193.367188 96.308594 193.472656 97.046875 193.554688 C 97.785156 193.632812 98.585938 193.707031 98.828125 193.71875 C 99.214844 193.734375 99.289062 193.757812 99.390625 193.875 C 99.492188 193.992188 99.5 194.046875 99.445312 194.273438 C 99.359375 194.640625 99.171875 195.046875 98.773438 195.726562 C 98.582031 196.046875 98.375 196.476562 98.3125 196.683594 C 98.035156 197.609375 98.378906 198.394531 99.375 199.113281 C 100.042969 199.589844 100.488281 199.765625 101.71875 200.023438 C 102.457031 200.175781 102.78125 200.277344 102.722656 200.328125 Z M 71.800781 196.835938 C 71.769531 196.976562 70.429688 197.582031 69.710938 197.785156 C 68.375 198.160156 66.929688 198.199219 65.871094 197.890625 L 65.335938 197.734375 L 65.722656 197.21875 C 66.578125 196.082031 67.429688 195.535156 68.65625 195.339844 C 69.164062 195.257812 69.371094 195.265625 69.855469 195.390625 C 70.492188 195.550781 71.132812 195.933594 71.507812 196.375 C 71.683594 196.578125 71.8125 196.785156 71.800781 196.835938 Z M 67.941406 178.652344 C 67.949219 178.648438 67.660156 179.078125 67.296875 179.601562 C 66.464844 180.800781 65.714844 181.726562 65.105469 182.292969 C 64.554688 182.804688 64.40625 182.835938 64.445312 182.429688 C 64.472656 182.113281 64.753906 181.574219 65.125 181.121094 C 65.285156 180.929688 65.789062 180.457031 66.25 180.074219 C 66.707031 179.695312 67.269531 179.21875 67.503906 179.015625 C 67.738281 178.816406 67.9375 178.652344 67.941406 178.652344 Z M 75.925781 167.183594 C 75.957031 167.214844 74.902344 167.628906 74.660156 167.683594 C 73.386719 167.960938 71.960938 167.398438 71.523438 166.449219 C 71.464844 166.316406 71.425781 166.167969 71.417969 166.117188 C 71.386719 165.890625 71.550781 165.800781 71.671875 165.804688 C 71.734375 165.808594 72.460938 166.0625 73.285156 166.371094 C 74.195312 166.714844 75.003906 166.980469 75.34375 167.050781 C 75.65625 167.113281 75.917969 167.171875 75.925781 167.183594 Z M 74.496094 163.675781 C 74.445312 163.71875 73.246094 162.324219 72.828125 161.734375 C 72.617188 161.4375 72.363281 161.035156 72.261719 160.832031 C 72.078125 160.464844 71.863281 159.753906 71.875 159.539062 C 71.878906 159.429688 71.886719 159.429688 72.035156 159.5625 C 72.117188 159.640625 72.308594 159.855469 72.457031 160.039062 C 72.605469 160.226562 72.882812 160.632812 73.070312 160.945312 C 73.515625 161.691406 74.535156 163.640625 74.496094 163.675781 Z M 63.472656 196.742188 C 61.972656 195.757812 60.382812 193.8125 59.816406 192.273438 C 59.3125 190.910156 59 189.582031 58.929688 188.523438 C 58.863281 187.53125 58.988281 186.09375 59.21875 185.1875 C 59.664062 183.429688 60.578125 181.121094 61.816406 178.609375 C 62.078125 178.078125 62.304688 177.648438 62.320312 177.648438 C 62.335938 177.648438 62.441406 177.8125 62.550781 178.011719 C 62.664062 178.207031 62.792969 178.371094 62.839844 178.375 C 62.886719 178.375 62.984375 178.308594 63.054688 178.226562 C 63.226562 178.027344 63.25 177.414062 63.125 176.617188 L 63.03125 176.023438 L 63.195312 175.585938 C 63.871094 173.78125 64.265625 171.921875 64.730469 168.375 L 64.9375 166.765625 L 65.347656 166.269531 C 66.121094 165.328125 66.832031 164.125 67.050781 163.386719 C 67.109375 163.179688 67.203125 162.703125 67.257812 162.328125 C 67.417969 161.183594 67.296875 160.097656 66.863281 158.839844 L 66.660156 158.25 L 67.054688 157.707031 C 67.554688 157.019531 68.058594 156.117188 68.207031 155.640625 C 68.351562 155.175781 68.394531 154.25 68.296875 153.691406 C 68.226562 153.285156 68.226562 153.277344 68.382812 153 C 68.667969 152.496094 69.269531 151.597656 69.558594 151.253906 C 69.714844 151.066406 69.933594 150.742188 70.042969 150.527344 C 70.152344 150.3125 70.355469 149.972656 70.492188 149.769531 C 71.261719 148.613281 72.335938 146.539062 72.832031 145.238281 C 73.132812 144.457031 73.570312 143.050781 73.75 142.285156 L 73.871094 141.78125 L 74.328125 142.222656 C 74.578125 142.464844 74.898438 142.757812 75.035156 142.875 C 76.042969 143.738281 77.46875 144.777344 78.242188 145.207031 C 78.710938 145.46875 79.128906 145.671875 79.171875 145.6875 C 79.324219 145.746094 79.3125 145.8125 79.144531 146.667969 C 78.925781 147.773438 78.855469 149.144531 78.984375 149.71875 C 79.289062 151.054688 80.417969 154.003906 81.929688 157.429688 C 82.378906 158.449219 82.921875 159.953125 82.914062 160.152344 C 82.914062 160.191406 82.804688 160.324219 82.675781 160.4375 L 82.441406 160.652344 L 81.96875 159.644531 C 81.367188 158.359375 80.679688 157.09375 79.769531 155.578125 C 78.078125 152.773438 77.164062 151.738281 75.847656 151.167969 C 74.46875 150.566406 73.121094 150.628906 71.707031 151.359375 C 70.855469 151.800781 70.097656 152.394531 70.128906 152.601562 C 70.15625 152.800781 70.328125 152.757812 70.6875 152.464844 C 71.429688 151.863281 72.378906 151.402344 73.238281 151.222656 C 74.226562 151.015625 75.328125 151.253906 76.289062 151.886719 C 77.40625 152.617188 78.128906 153.5625 79.855469 156.519531 C 80.890625 158.292969 81.140625 158.796875 82.453125 161.667969 C 84.382812 165.894531 85.046875 167.03125 86.828125 169.15625 L 87.269531 169.6875 L 86.78125 170.738281 C 86.515625 171.3125 86.121094 172.183594 85.90625 172.675781 C 85.691406 173.164062 85.214844 174.195312 84.847656 174.960938 L 84.179688 176.351562 L 83.121094 175.179688 C 82.101562 174.054688 79.394531 170.664062 78.171875 168.992188 C 77.085938 167.507812 76.246094 166.085938 74.8125 163.324219 C 73.445312 160.683594 73.007812 159.972656 72.382812 159.347656 C 72.027344 158.996094 71.832031 158.914062 71.625 159.039062 C 71.441406 159.148438 71.425781 159.398438 71.558594 160.027344 C 71.769531 161.027344 72.351562 161.921875 73.832031 163.511719 C 74.414062 164.140625 74.925781 164.65625 74.96875 164.65625 C 75.054688 164.660156 76.222656 166.75 76.167969 166.800781 C 76.058594 166.902344 74.84375 166.546875 73.414062 165.996094 C 72.570312 165.671875 71.800781 165.40625 71.707031 165.398438 C 71.179688 165.347656 70.96875 165.78125 71.03125 166.238281 C 71.101562 166.738281 71.703125 167.460938 72.304688 167.761719 C 72.847656 168.039062 73.222656 168.117188 73.976562 168.113281 C 74.707031 168.113281 75.027344 168.042969 75.722656 167.730469 L 76.152344 167.535156 L 75.992188 167.828125 C 75.542969 168.628906 73.972656 170.976562 73.167969 172.046875 C 72.910156 172.390625 72.253906 173.21875 71.707031 173.890625 C 71.160156 174.558594 70.53125 175.335938 70.3125 175.617188 C 69.476562 176.691406 68.179688 177.953125 66.375 179.445312 C 65.253906 180.371094 64.957031 180.65625 64.570312 181.183594 C 64.21875 181.667969 64.0625 182.046875 64.039062 182.46875 C 64.011719 183.070312 64.386719 183.289062 64.910156 182.976562 C 65.457031 182.644531 66.605469 181.332031 67.496094 180.019531 C 67.777344 179.605469 68.300781 178.882812 68.660156 178.414062 C 70.316406 176.261719 70.871094 175.554688 71.800781 174.421875 C 72.347656 173.75 73.074219 172.832031 73.417969 172.378906 C 74.425781 171.046875 76.335938 168.15625 76.574219 167.601562 C 76.628906 167.476562 76.671875 167.523438 77.136719 168.210938 C 78.316406 169.953125 81.101562 173.5 82.734375 175.339844 C 83.398438 176.085938 83.949219 176.71875 83.957031 176.746094 C 83.964844 176.773438 83.691406 177.386719 83.347656 178.109375 C 82.375 180.167969 82.015625 180.953125 81.15625 182.925781 C 80.144531 185.257812 80.175781 185.1875 79.292969 186.890625 C 78.882812 187.675781 78.488281 188.449219 78.410156 188.609375 C 78.238281 188.96875 77.296875 190.460938 76.71875 191.289062 C 75.503906 193.03125 74.402344 194.402344 73.289062 195.542969 C 73.046875 195.796875 72.84375 196.027344 72.84375 196.0625 C 72.839844 196.09375 72.695312 196.238281 72.523438 196.378906 L 72.203125 196.632812 L 72.125 196.5 C 71.9375 196.167969 71.324219 195.597656 70.925781 195.378906 C 70.289062 195.035156 69.875 194.933594 69.113281 194.933594 C 67.625 194.933594 66.511719 195.542969 65.421875 196.957031 C 65.179688 197.269531 64.964844 197.53125 64.941406 197.539062 C 64.882812 197.558594 63.902344 197.023438 63.472656 196.742188 Z M 61.601562 174.425781 L 61.597656 173.78125 L 61.800781 174.140625 C 61.910156 174.339844 62.117188 174.765625 62.261719 175.089844 C 62.601562 175.863281 62.617188 175.992188 62.417969 176.429688 L 62.257812 176.78125 L 62.140625 176.597656 C 61.792969 176.0625 61.609375 175.328125 61.601562 174.425781 Z M 62.859375 177.699219 L 62.6875 177.449219 L 62.511719 177.199219 L 62.621094 176.957031 C 62.757812 176.65625 62.808594 176.734375 62.839844 177.292969 Z M 62.609375 174.902344 C 62.488281 174.625 62.226562 174.078125 62.023438 173.683594 L 61.652344 172.964844 L 61.726562 172.527344 C 61.898438 171.480469 62.351562 170.253906 62.878906 169.40625 C 63.363281 168.628906 64.410156 167.277344 64.445312 167.382812 C 64.453125 167.410156 64.398438 167.910156 64.320312 168.496094 C 63.933594 171.402344 63.644531 172.894531 63.160156 174.441406 C 62.824219 175.515625 62.859375 175.484375 62.609375 174.902344 Z M 61.335938 172.425781 L 61.105469 171.988281 C 60.535156 170.914062 60.386719 170.265625 60.441406 169.046875 C 60.484375 168 60.671875 167.070312 61.070312 165.894531 C 61.761719 163.855469 62.582031 162.441406 63.789062 161.210938 C 64.902344 160.078125 65.523438 159.460938 65.554688 159.460938 C 65.574219 159.460938 65.542969 159.6875 65.492188 159.964844 C 65.398438 160.464844 64.804688 164.613281 64.640625 165.90625 C 64.597656 166.265625 64.53125 166.59375 64.5 166.632812 C 62.53125 168.910156 61.824219 170.144531 61.425781 172.007812 Z M 66.378906 158.699219 C 66.417969 158.753906 66.527344 159.082031 66.628906 159.433594 C 67.136719 161.210938 66.984375 162.9375 66.195312 164.34375 C 65.984375 164.71875 65.421875 165.550781 65.191406 165.824219 L 65.027344 166.023438 L 65.089844 165.496094 C 65.121094 165.210938 65.296875 163.941406 65.476562 162.683594 C 65.949219 159.378906 66.171875 158.386719 66.378906 158.699219 Z M 64.886719 154.039062 C 64.480469 152.773438 64.339844 151.816406 64.386719 150.683594 C 64.445312 149.207031 64.839844 148.058594 65.703125 146.84375 C 66.058594 146.339844 66.433594 145.925781 66.457031 146.003906 C 66.464844 146.03125 66.542969 146.519531 66.632812 147.089844 C 66.726562 147.65625 66.929688 148.769531 67.085938 149.566406 C 67.242188 150.363281 67.46875 151.5 67.582031 152.09375 L 67.796875 153.179688 L 67.414062 153.960938 C 67.039062 154.734375 66.484375 156.125 66.316406 156.722656 C 66.269531 156.890625 66.210938 157.039062 66.183594 157.050781 C 66.121094 157.085938 65.101562 154.722656 64.886719 154.039062 Z M 66.828125 143.566406 C 67.082031 139.652344 68.074219 136.527344 70.144531 133.152344 C 71.652344 130.699219 73.042969 129.316406 74.800781 128.53125 C 75.527344 128.207031 76.855469 127.878906 77.757812 127.804688 C 78.257812 127.765625 80.03125 127.871094 80.5625 127.972656 C 81.179688 128.09375 82.261719 128.414062 82.644531 128.589844 C 83.175781 128.835938 84.5 129.644531 84.5 129.71875 C 84.5 129.730469 84.398438 129.710938 84.28125 129.675781 C 83.695312 129.507812 82.597656 129.5625 81.683594 129.800781 C 80.980469 129.988281 80.832031 129.996094 80.46875 129.894531 C 79.976562 129.75 78.261719 129.628906 77.5625 129.6875 C 76.332031 129.789062 74.917969 130.222656 74.023438 130.773438 C 73.207031 131.273438 72.195312 132.332031 71.640625 133.257812 C 71.082031 134.203125 70.59375 135.484375 70.375 136.589844 C 70.222656 137.363281 70.117188 140.300781 70.199219 141.472656 C 70.238281 141.988281 70.269531 142.453125 70.273438 142.503906 C 70.277344 142.558594 69.808594 142.917969 69.042969 143.441406 C 68.363281 143.90625 67.585938 144.457031 67.316406 144.667969 C 67.042969 144.875 66.804688 145.046875 66.777344 145.042969 C 66.753906 145.042969 66.777344 144.378906 66.828125 143.566406 Z M 85.789062 131.472656 C 85.945312 132 85.945312 132.027344 85.898438 133.117188 C 85.859375 134.101562 85.832031 134.308594 85.667969 134.925781 C 85.570312 135.304688 85.414062 135.886719 85.328125 136.210938 C 85.242188 136.539062 85.164062 136.796875 85.15625 136.789062 C 85.148438 136.777344 85.082031 136.257812 85.011719 135.632812 C 84.855469 134.269531 84.746094 133.671875 84.527344 133.019531 C 84.058594 131.636719 83.277344 130.734375 82.160156 130.292969 L 81.871094 130.179688 L 82.21875 130.09375 C 82.960938 129.910156 83.554688 129.898438 84.125 130.058594 C 84.53125 130.171875 85.15625 130.511719 85.445312 130.773438 C 85.582031 130.898438 85.667969 131.070312 85.789062 131.472656 Z M 86.09375 134.855469 C 86.21875 134.332031 86.351562 133.113281 86.339844 132.609375 C 86.328125 132.144531 86.328125 132.140625 86.414062 132.351562 C 86.460938 132.464844 86.542969 132.757812 86.597656 133 C 86.675781 133.367188 86.691406 133.742188 86.671875 135.171875 C 86.632812 137.777344 86.769531 138.492188 87.515625 139.648438 C 87.652344 139.855469 87.753906 140.035156 87.738281 140.046875 C 87.726562 140.058594 87.503906 139.910156 87.238281 139.71875 C 86.683594 139.3125 85.617188 138.222656 85.523438 137.964844 C 85.433594 137.714844 85.542969 136.929688 85.804688 135.953125 C 85.921875 135.523438 86.050781 135.03125 86.09375 134.855469 Z M 73.808594 137.28125 C 73.980469 136.210938 74.683594 133.941406 75.144531 132.964844 C 75.484375 132.238281 76.039062 131.402344 76.429688 131.019531 C 77.347656 130.117188 78.238281 129.914062 79.835938 130.246094 L 80.425781 130.371094 L 80.113281 130.523438 C 79.941406 130.613281 79.539062 130.921875 79.21875 131.21875 C 78.109375 132.246094 76.9375 134.070312 75.894531 136.382812 C 75.242188 137.835938 74.785156 138.636719 74.078125 139.550781 C 73.808594 139.902344 73.796875 139.910156 73.746094 139.773438 C 73.667969 139.542969 73.707031 137.910156 73.808594 137.28125 Z M 67.449219 156.332031 C 67.058594 157.050781 66.480469 157.871094 66.457031 157.726562 C 66.417969 157.457031 67.757812 153.929688 67.898438 153.933594 C 67.921875 153.933594 67.949219 154.058594 67.964844 154.207031 C 68.03125 154.921875 67.886719 155.523438 67.449219 156.332031 Z M 67.9375 151.8125 C 67.847656 151.351562 67.636719 150.269531 67.46875 149.40625 C 67.160156 147.847656 66.832031 145.890625 66.839844 145.675781 C 66.847656 145.5 67.34375 145.109375 69.167969 143.84375 C 70.222656 143.113281 70.347656 143.039062 70.34375 143.132812 C 70.34375 143.15625 70.386719 143.679688 70.441406 144.292969 C 70.5625 145.6875 70.5625 147.085938 70.441406 147.863281 C 70.347656 148.449219 70.050781 149.585938 69.917969 149.863281 C 69.878906 149.945312 69.453125 150.605469 68.972656 151.332031 L 68.101562 152.652344 Z M 73.601562 136.199219 C 73.34375 137.25 73.203125 139.105469 73.328125 139.855469 L 73.398438 140.304688 L 73.167969 140.527344 C 72.699219 140.972656 70.746094 142.378906 70.683594 142.316406 C 70.636719 142.265625 70.558594 140.910156 70.539062 139.828125 C 70.5 137.597656 70.796875 135.953125 71.515625 134.382812 C 72.324219 132.617188 73.644531 131.257812 75.136719 130.65625 C 75.515625 130.503906 76.433594 130.238281 76.578125 130.238281 C 76.636719 130.238281 76.492188 130.40625 76.238281 130.644531 C 75.773438 131.074219 75.410156 131.589844 74.929688 132.507812 C 74.640625 133.0625 73.796875 135.402344 73.601562 136.199219 Z M 70.785156 143.695312 C 70.71875 143.007812 70.71875 142.835938 70.78125 142.78125 C 70.824219 142.746094 71.226562 142.46875 71.671875 142.164062 C 72.121094 141.859375 72.707031 141.433594 72.972656 141.21875 C 73.238281 141.003906 73.472656 140.824219 73.496094 140.824219 C 73.515625 140.824219 73.542969 140.894531 73.554688 140.984375 C 73.648438 141.609375 72.902344 144.136719 72.078125 146 C 71.722656 146.792969 70.671875 148.738281 70.730469 148.484375 C 70.75 148.402344 70.808594 148.023438 70.855469 147.640625 C 70.980469 146.703125 70.957031 145.53125 70.785156 143.695312 Z M 85 138.617188 C 84.835938 139.792969 84.496094 140.71875 83.703125 142.136719 C 83.15625 143.113281 82.703125 143.773438 81.851562 144.816406 C 81.277344 145.523438 81.179688 145.597656 80.425781 145.558594 C 79.804688 145.527344 79.34375 145.355469 78.601562 144.960938 C 77.917969 144.601562 77.539062 144.339844 76.292969 143.363281 C 74.730469 142.136719 74.242188 141.65625 74.039062 141.136719 C 73.800781 140.527344 73.804688 140.507812 74.222656 140.007812 C 74.964844 139.121094 75.574219 138.082031 76.332031 136.421875 C 77.148438 134.617188 77.558594 133.90625 78.542969 132.574219 C 79.25 131.613281 79.867188 131.058594 80.582031 130.738281 C 81.226562 130.449219 81.460938 130.433594 82.015625 130.644531 C 82.652344 130.890625 83.132812 131.273438 83.515625 131.839844 C 84.167969 132.808594 84.371094 133.589844 84.710938 136.425781 C 84.753906 136.761719 84.851562 137.261719 84.933594 137.53125 C 85.078125 138.011719 85.078125 138.042969 85 138.617188 Z M 84.351562 159.34375 C 85.132812 158.699219 85.792969 158.207031 86.136719 158.019531 C 86.640625 157.746094 87.3125 157.570312 88.242188 157.46875 C 88.613281 157.429688 89.019531 157.476562 89.441406 157.601562 C 90.972656 158.0625 91.8125 159.0625 92.882812 161.699219 C 93.832031 164.042969 94.636719 166.359375 95.261719 168.558594 C 95.480469 169.328125 95.792969 170.3125 95.960938 170.75 C 96.609375 172.464844 97.460938 175.335938 97.777344 176.859375 C 98.101562 178.414062 98.230469 178.703125 98.617188 178.71875 C 98.824219 178.726562 98.824219 178.730469 98.882812 179.316406 C 98.9375 179.898438 99.199219 181.246094 99.289062 181.449219 C 99.34375 181.566406 99.46875 181.738281 99.566406 181.828125 C 99.839844 182.078125 100.261719 182.042969 100.382812 181.761719 C 100.445312 181.617188 100.433594 181.589844 100.601562 182.3125 C 100.660156 182.585938 100.835938 183.183594 100.988281 183.644531 C 101.140625 184.101562 101.265625 184.484375 101.265625 184.492188 C 101.265625 184.5 100.65625 183.828125 99.910156 183 C 98.339844 181.257812 94.757812 177.332031 90.992188 173.226562 L 88.355469 170.347656 L 88.046875 168.925781 L 88.285156 168.355469 C 88.832031 167.007812 89.132812 165.921875 88.820312 164.914062 C 88.636719 164.320312 88.09375 164.296875 87.8125 164.792969 C 87.472656 165.394531 87.359375 166.835938 87.546875 168.203125 C 87.628906 168.789062 87.628906 168.859375 87.535156 169.050781 L 87.4375 169.257812 L 87.128906 168.890625 C 86.011719 167.574219 85.164062 166.300781 84.332031 164.703125 C 83.839844 163.757812 82.636719 161.167969 82.640625 161.066406 C 82.644531 160.96875 83.84375 159.761719 84.351562 159.34375 Z M 96.976562 171.894531 C 97.125 172.097656 97.398438 172.453125 97.582031 172.683594 C 98.179688 173.425781 98.433594 173.992188 98.820312 175.417969 C 99.007812 176.121094 99.007812 176.144531 98.972656 177.09375 C 98.929688 178.109375 98.875 178.320312 98.664062 178.3125 C 98.535156 178.304688 98.386719 177.882812 98.238281 177.09375 C 98.039062 176.035156 97.785156 175.066406 97.25 173.339844 C 96.953125 172.375 96.695312 171.554688 96.675781 171.523438 C 96.621094 171.414062 96.707031 171.515625 96.976562 171.894531 Z M 100.464844 178.386719 C 100.417969 178.078125 100.332031 176.082031 100.351562 175.730469 C 100.367188 175.507812 100.371094 175.496094 100.417969 175.632812 C 100.449219 175.714844 100.5 176.035156 100.53125 176.339844 C 100.597656 176.96875 100.535156 178.855469 100.464844 178.386719 Z M 97.179688 171.191406 C 97.363281 171.359375 97.820312 171.789062 98.195312 172.148438 C 98.570312 172.507812 99.078125 172.964844 99.324219 173.160156 C 100.136719 173.8125 100.351562 174.039062 100.519531 174.429688 C 100.605469 174.628906 100.691406 174.875 100.707031 174.972656 C 100.734375 175.136719 100.726562 175.132812 100.605469 174.910156 C 100.464844 174.640625 100.242188 174.554688 100.09375 174.71875 C 99.90625 174.929688 99.929688 177.082031 100.148438 179.164062 C 100.214844 179.8125 100.265625 180.453125 100.261719 180.59375 C 100.246094 180.929688 100.046875 181.589844 99.957031 181.585938 C 99.691406 181.574219 99.472656 180.820312 99.265625 179.160156 C 99.183594 178.515625 99.179688 178.398438 99.261719 178.164062 C 99.316406 177.996094 99.359375 177.597656 99.382812 177.054688 C 99.417969 176.125 99.367188 175.804688 99.015625 174.636719 C 98.6875 173.546875 98.46875 173.148438 97.539062 171.960938 C 97.300781 171.65625 97.046875 171.292969 96.976562 171.148438 L 96.84375 170.886719 Z M 100.820312 179.613281 C 100.882812 179.0625 100.941406 178.363281 100.953125 178.0625 C 100.964844 177.757812 100.984375 177.523438 100.996094 177.535156 C 101.007812 177.550781 101.035156 177.878906 101.058594 178.265625 C 101.078125 178.652344 101.136719 179.488281 101.1875 180.117188 C 101.382812 182.527344 101.382812 182.863281 101.195312 182.695312 C 101.066406 182.578125 100.925781 182.0625 100.8125 181.3125 C 100.714844 180.648438 100.714844 180.570312 100.820312 179.613281 Z M 87.949219 165.648438 C 88.046875 165.199219 88.183594 164.867188 88.273438 164.871094 C 88.308594 164.871094 88.371094 164.933594 88.414062 165.011719 C 88.539062 165.21875 88.582031 165.863281 88.503906 166.351562 C 88.441406 166.75 88.199219 167.535156 88.019531 167.933594 L 87.941406 168.105469 L 87.902344 167.898438 C 87.828125 167.503906 87.855469 166.066406 87.949219 165.648438 Z M 87.824219 170.328125 C 87.945312 170.476562 88.0625 170.726562 88.136719 170.984375 C 88.414062 171.980469 89.378906 174.691406 89.742188 175.5 C 90.402344 176.96875 90.71875 177.507812 92.460938 180.097656 C 93.003906 180.910156 93.714844 182.007812 94.039062 182.535156 C 94.75 183.699219 95.890625 185.703125 95.859375 185.734375 C 95.816406 185.769531 92.640625 183.558594 90.253906 181.828125 C 88.804688 180.78125 87.289062 179.609375 86.792969 179.164062 C 86.332031 178.75 84.496094 176.757812 84.496094 176.679688 C 84.5 176.640625 84.828125 175.929688 85.230469 175.097656 C 85.632812 174.265625 86.097656 173.261719 86.265625 172.867188 C 86.757812 171.722656 87.546875 170.046875 87.585938 170.066406 C 87.609375 170.074219 87.714844 170.191406 87.824219 170.328125 Z M 98.460938 193.28125 C 98.34375 193.289062 97.417969 193.199219 96.402344 193.085938 C 93.640625 192.78125 91.800781 192.726562 89.242188 192.875 C 86.355469 193.046875 84.429688 193.628906 80.507812 195.527344 C 78.507812 196.492188 78.074219 196.671875 76.917969 197.011719 C 75.476562 197.429688 74.40625 197.601562 73.480469 197.5625 C 73.257812 197.554688 73.066406 197.574219 73.023438 197.613281 C 72.976562 197.65625 72.941406 197.894531 72.921875 198.289062 C 72.894531 198.945312 72.773438 199.449219 72.546875 199.832031 L 72.410156 200.066406 L 72.421875 198.867188 C 72.429688 198.207031 72.414062 197.523438 72.382812 197.351562 C 72.335938 197.039062 72.335938 197.039062 72.53125 196.890625 C 73.035156 196.515625 73.28125 196.253906 74.808594 194.464844 C 75.507812 193.644531 77.007812 191.601562 77.582031 190.679688 C 77.796875 190.335938 78.066406 189.9375 78.175781 189.796875 C 78.285156 189.660156 78.464844 189.375 78.570312 189.171875 C 79.488281 187.378906 79.742188 186.90625 79.808594 186.871094 C 79.921875 186.804688 80.894531 186.863281 82.011719 187.003906 C 83.34375 187.167969 85.214844 187.480469 86.515625 187.753906 C 91.03125 188.699219 94.351562 190.136719 97.804688 192.644531 C 98.660156 193.261719 98.671875 193.273438 98.460938 193.28125 Z M 98.515625 192.667969 C 95.554688 190.402344 92.28125 188.800781 88.65625 187.839844 C 86.371094 187.234375 82.441406 186.582031 80.613281 186.503906 C 80.265625 186.492188 79.984375 186.472656 79.984375 186.464844 C 79.984375 186.457031 80.140625 186.140625 80.328125 185.761719 C 80.515625 185.382812 81.058594 184.179688 81.53125 183.089844 C 82.003906 182 82.738281 180.371094 83.160156 179.46875 C 83.585938 178.570312 84.003906 177.671875 84.097656 177.472656 C 84.191406 177.277344 84.273438 177.117188 84.277344 177.117188 C 84.285156 177.117188 84.640625 177.503906 85.066406 177.976562 C 86.3125 179.355469 87.035156 179.972656 89.667969 181.898438 C 91.453125 183.203125 92.636719 184.039062 94.71875 185.46875 L 96.335938 186.578125 L 96.851562 187.496094 C 97.636719 188.890625 98.289062 190.101562 98.5625 190.664062 C 99.15625 191.875 99.589844 193.285156 99.367188 193.273438 C 99.335938 193.273438 98.953125 193 98.515625 192.667969 Z M 111.109375 202.058594 C 111.078125 202.085938 110.054688 201.230469 109.59375 200.792969 C 109.140625 200.363281 108.273438 199.320312 107.847656 198.699219 C 107.511719 198.207031 107.210938 197.582031 107.21875 197.398438 C 107.226562 197.261719 107.25 197.269531 107.527344 197.476562 C 107.894531 197.753906 108.441406 198.417969 109.738281 200.15625 C 111.238281 202.171875 111.140625 202.03125 111.109375 202.058594 Z M 103.46875 187.914062 C 103.785156 188.347656 104.421875 189.125 104.882812 189.644531 C 106.003906 190.902344 107.175781 192.394531 107.808594 193.367188 C 108.121094 193.847656 108.675781 194.890625 108.871094 195.367188 C 108.972656 195.613281 109.382812 196.734375 109.78125 197.867188 C 110.183594 199 110.652344 200.238281 110.824219 200.625 C 110.996094 201.011719 111.132812 201.328125 111.121094 201.328125 C 111.113281 201.324219 110.585938 200.625 109.949219 199.769531 C 108.574219 197.921875 108.179688 197.449219 107.734375 197.132812 C 107.328125 196.84375 107.125 196.820312 106.941406 197.035156 C 106.835938 197.15625 106.808594 197.246094 106.824219 197.445312 C 106.859375 197.949219 107.4375 198.941406 108.253906 199.902344 C 108.457031 200.144531 108.613281 200.339844 108.589844 200.339844 C 108.570312 200.339844 108.234375 200.027344 107.839844 199.652344 C 106.222656 198.09375 105.679688 197.4375 105.183594 196.425781 C 104.886719 195.824219 104.761719 195.480469 104.09375 193.472656 C 103.808594 192.609375 103.457031 191.640625 103.3125 191.320312 C 103.246094 191.175781 103.136719 190.902344 103.035156 190.78125 C 102.910156 190.625 102.574219 190.394531 102.414062 190.28125 C 102.058594 190.027344 101.347656 189.53125 100.832031 189.175781 C 100.316406 188.824219 99.433594 188.207031 98.871094 187.808594 C 98.308594 187.40625 97.578125 186.902344 97.25 186.6875 C 96.691406 186.324219 96.636719 186.269531 96.441406 185.898438 C 95.488281 184.109375 94.085938 181.789062 92.796875 179.878906 C 92.382812 179.265625 91.8125 178.398438 91.527344 177.949219 C 91.246094 177.503906 90.960938 177.066406 90.898438 176.980469 C 90.753906 176.785156 90.023438 175.207031 89.769531 174.535156 C 89.664062 174.257812 89.417969 173.5625 89.222656 172.992188 C 89.027344 172.421875 88.816406 171.808594 88.753906 171.628906 C 88.644531 171.316406 88.691406 171.359375 90.699219 173.5 C 91.828125 174.703125 93.097656 176.085938 93.519531 176.570312 C 93.9375 177.054688 95.601562 178.890625 97.21875 180.652344 C 100.707031 184.453125 102.199219 186.183594 103.46875 187.914062 Z M 89.128906 141.191406 C 89.140625 141.191406 89.339844 141.28125 89.570312 141.390625 C 90.535156 141.847656 91.191406 142.496094 91.570312 143.332031 C 91.972656 144.21875 91.691406 145.308594 91.53125 145.714844 C 91.253906 146.40625 90.800781 147.230469 90.042969 148.417969 C 89.167969 149.78125 89 150.078125 88.730469 150.796875 C 88.40625 151.644531 88.277344 152.203125 88.199219 153.125 L 88.125 153.941406 L 87.988281 153.554688 C 87.777344 152.96875 87.726562 152.515625 87.796875 151.804688 C 87.886719 150.835938 88.234375 149.902344 89.273438 147.800781 C 90.070312 146.1875 90.148438 145.96875 90.214844 145.128906 C 90.320312 143.816406 90.027344 142.621094 89.34375 141.566406 C 89.210938 141.359375 89.113281 141.191406 89.128906 141.191406 Z M 115.035156 204.507812 C 114.847656 204.304688 114.214844 203.96875 113.558594 203.71875 C 112.773438 203.421875 112.136719 202.949219 112.148438 202.675781 C 112.148438 202.632812 111.851562 201.921875 111.484375 201.09375 C 111.066406 200.152344 110.539062 198.804688 110.082031 197.503906 C 109.304688 195.304688 108.949219 194.484375 108.363281 193.507812 C 107.726562 192.445312 106.460938 190.800781 105.132812 189.304688 C 104.671875 188.785156 104.03125 188.003906 103.714844 187.574219 C 103.398438 187.140625 102.875 186.464844 102.554688 186.070312 L 101.972656 185.347656 L 101.617188 184.304688 C 101.421875 183.730469 101.261719 183.242188 101.261719 183.21875 C 101.261719 183.195312 101.324219 183.164062 101.398438 183.148438 C 101.753906 183.078125 101.785156 182.675781 101.617188 180.515625 C 101.550781 179.707031 101.46875 178.503906 101.429688 177.84375 C 101.296875 175.613281 101.097656 174.488281 100.738281 173.953125 C 100.554688 173.679688 100.445312 173.574219 99.648438 172.910156 C 99.292969 172.613281 98.726562 172.105469 98.398438 171.785156 C 97.238281 170.65625 96.585938 170.140625 96.304688 170.128906 C 96.125 170.121094 96.105469 170.070312 95.5 167.929688 C 95.101562 166.527344 94.625 165.125 93.835938 163.035156 C 92.378906 159.179688 91.554688 157.964844 89.992188 157.355469 C 89.367188 157.113281 88.878906 157.039062 88.21875 157.082031 C 86.867188 157.175781 86.058594 157.492188 84.953125 158.355469 C 84.554688 158.664062 84.011719 159.117188 83.753906 159.359375 C 83.265625 159.808594 83.222656 159.839844 83.226562 159.734375 C 83.234375 159.550781 82.710938 158.199219 82.011719 156.582031 C 80.628906 153.390625 80.257812 152.441406 79.566406 150.324219 C 79.222656 149.28125 79.207031 148.382812 79.496094 146.789062 C 79.582031 146.316406 79.660156 145.859375 79.660156 145.839844 C 79.664062 145.820312 79.953125 145.90625 80.328125 145.929688 C 81.40625 146.007812 81.472656 145.945312 82.515625 144.628906 C 83.277344 143.667969 83.613281 143.160156 84.179688 142.121094 C 84.824219 140.941406 85.179688 139.980469 85.367188 138.90625 C 85.394531 138.757812 85.433594 138.632812 85.457031 138.632812 C 85.480469 138.632812 85.636719 138.789062 85.804688 138.976562 C 86.285156 139.507812 87.1875 140.21875 87.8125 140.558594 C 88.378906 140.867188 88.390625 140.878906 88.789062 141.457031 C 89.449219 142.417969 89.742188 143.230469 89.851562 144.398438 C 89.9375 145.316406 89.792969 145.832031 89.003906 147.421875 C 87.53125 150.390625 87.191406 151.570312 87.414062 152.933594 C 87.519531 153.585938 87.71875 154.082031 88.195312 154.863281 C 88.683594 155.675781 88.800781 155.808594 88.949219 155.726562 C 89.109375 155.632812 89.105469 155.503906 88.925781 155.234375 C 88.386719 154.417969 88.464844 152.542969 89.109375 150.929688 C 89.359375 150.296875 89.703125 149.679688 90.371094 148.652344 C 91.34375 147.15625 91.855469 146.144531 92.0625 145.328125 C 92.371094 144.089844 92.105469 143.046875 91.234375 142.101562 C 90.734375 141.558594 90.355469 141.304688 89.34375 140.839844 L 88.59375 140.496094 L 88.199219 139.941406 C 87.664062 139.183594 87.46875 138.808594 87.289062 138.214844 C 87.085938 137.527344 87.019531 136.648438 87.070312 135.386719 C 87.125 134.078125 87.082031 133.289062 86.917969 132.621094 C 86.769531 132.011719 86.4375 131.28125 86.148438 130.921875 C 86.035156 130.777344 85.902344 130.578125 85.855469 130.480469 C 85.597656 129.921875 83.917969 128.695312 82.757812 128.210938 C 81.300781 127.609375 79.332031 127.300781 77.722656 127.417969 C 76.160156 127.53125 74.644531 128.023438 73.453125 128.800781 C 72.847656 129.195312 71.746094 130.242188 71.152344 130.988281 C 69.847656 132.617188 68.292969 135.464844 67.566406 137.550781 C 66.910156 139.4375 66.410156 142.332031 66.386719 144.378906 L 66.371094 145.457031 L 66.066406 145.765625 C 65.417969 146.417969 64.738281 147.5 64.417969 148.390625 C 64.15625 149.109375 64.03125 149.777344 63.996094 150.621094 C 63.917969 152.449219 64.28125 153.9375 65.402344 156.40625 L 65.988281 157.6875 L 65.902344 158.09375 C 65.851562 158.320312 65.78125 158.558594 65.742188 158.625 C 65.703125 158.695312 65.3125 159.109375 64.875 159.546875 C 63.308594 161.113281 63.058594 161.378906 62.664062 161.882812 C 62.183594 162.492188 61.351562 163.988281 61.019531 164.828125 C 60.363281 166.496094 60.074219 167.839844 60.058594 169.296875 C 60.042969 170.621094 60.171875 171.101562 60.90625 172.46875 L 61.226562 173.070312 L 61.203125 173.632812 C 61.144531 175.046875 61.320312 176.007812 61.785156 176.789062 L 62.046875 177.234375 L 61.53125 178.277344 C 60.535156 180.28125 59.65625 182.359375 59.195312 183.816406 C 58.335938 186.511719 58.289062 188.703125 59.035156 191.210938 C 59.445312 192.589844 59.78125 193.3125 60.5 194.347656 C 60.914062 194.945312 61.941406 196.066406 62.511719 196.539062 C 62.941406 196.898438 63.886719 197.507812 64.316406 197.703125 C 64.488281 197.78125 64.625 197.863281 64.625 197.890625 C 64.625 197.914062 64.511719 198.046875 64.375 198.191406 C 64.089844 198.488281 63.5 198.863281 63.183594 198.949219 C 63.054688 198.984375 62.246094 198.992188 61.152344 198.972656 C 59.164062 198.9375 58.9375 198.960938 58.28125 199.277344 C 57.550781 199.625 57.03125 200.199219 56.421875 201.3125 C 56.136719 201.832031 56.0625 201.921875 55.535156 202.359375 C 54.140625 203.515625 53.941406 203.785156 53.832031 204.675781 C 53.78125 205.085938 53.917969 205.257812 54.015625 205.375 C 54.179688 205.5625 54.320312 205.59375 54.476562 205.601562 C 54.878906 205.617188 55.355469 205.367188 56.078125 204.757812 C 56.929688 204.035156 57.144531 203.878906 57.496094 203.722656 C 58.195312 203.410156 59.722656 203.152344 61.65625 203.027344 C 62.054688 203.003906 64.902344 203.085938 69.785156 203.265625 C 77.183594 203.535156 77.324219 203.539062 79.085938 203.464844 C 80.070312 203.421875 81.757812 203.398438 82.835938 203.410156 C 85.753906 203.4375 88.125 203.367188 91.046875 203.164062 C 94.914062 202.890625 96.75 202.652344 98.4375 202.191406 C 99.390625 201.933594 102.101562 201.011719 102.730469 200.734375 L 103.3125 200.476562 L 103.597656 200.621094 C 103.980469 200.816406 104.261719 201.070312 105.488281 202.324219 C 108.660156 205.5625 108.796875 205.675781 109.703125 205.828125 C 110.699219 206 111.144531 206.027344 111.804688 205.960938 C 112.160156 205.925781 112.726562 205.878906 113.066406 205.863281 C 114.320312 205.796875 114.640625 205.699219 114.953125 205.273438 C 115.195312 204.941406 115.21875 204.710938 115.035156 204.507812" stroke-linecap="round" />
</g>
		<g transform="matrix(1.33 0 0 1.33 -145.95 -94.17)" clip-path="url(#CLIPPATH_6)"  >
<clipPath id="CLIPPATH_6" >
	<path transform="matrix(1 0 0 1 0.17 -0.11) translate(-78.3, -116.81)" d="M 40.054688 99.558594 L 116.554688 99.558594 L 116.554688 134.058594 L 40.054688 134.058594 Z M 40.054688 99.558594" stroke-linecap="round" />
</clipPath>
<path style="stroke: none; stroke-width: 1; stroke-dasharray: none; stroke-linecap: butt; stroke-dashoffset: 0; stroke-linejoin: miter; stroke-miterlimit: 4; fill: rgb(248,233,223); fill-rule: nonzero; opacity: 1;"  transform=" translate(-78.13, -116.91)" d="M 93.039062 99.664062 C 93.117188 99.910156 92.984375 100.089844 92.90625 100.273438 C 92.089844 102.222656 91.074219 104.074219 90.148438 105.972656 C 88.585938 109.15625 86.972656 112.316406 85.648438 115.613281 C 84.863281 117.570312 83.984375 119.496094 83.183594 121.445312 C 83.121094 121.597656 83.0625 121.902344 82.875 121.816406 C 82.648438 121.710938 82.863281 121.476562 82.929688 121.316406 C 83.929688 118.886719 84.917969 116.449219 85.945312 114.03125 C 86.992188 111.574219 88.25 109.21875 89.417969 106.820312 C 90.539062 104.527344 91.675781 102.246094 92.804688 99.957031 C 92.855469 99.855469 92.875 99.730469 93.039062 99.664062 Z M 64.238281 99.882812 C 64.429688 100.527344 64.617188 101.171875 64.875 101.796875 C 65.792969 103.992188 66.8125 106.15625 67.550781 108.417969 C 69.039062 112.957031 70.964844 117.335938 72.554688 121.835938 C 72.605469 121.972656 72.617188 122.25 72.839844 122.164062 C 73.039062 122.089844 72.859375 121.890625 72.820312 121.761719 C 72.453125 120.53125 71.972656 119.34375 71.5 118.152344 C 69.105469 112.085938 66.875 105.960938 64.503906 99.882812 C 64.453125 99.761719 64.4375 99.601562 64.238281 99.558594 C 64.175781 99.683594 64.210938 99.78125 64.238281 99.882812 Z M 91.46875 128.90625 C 93.339844 128.046875 95.207031 127.183594 97.074219 126.316406 C 99.941406 124.988281 102.773438 123.59375 105.65625 122.300781 C 107.875 121.300781 110.132812 120.390625 112.265625 119.207031 C 112.421875 119.117188 112.625 119.082031 112.746094 118.785156 C 105.289062 122.105469 98.039062 125.644531 90.71875 129.046875 C 91.007812 129.132812 91.242188 129.007812 91.46875 128.90625 Z M 93.039062 134.183594 C 95.605469 134.105469 98.171875 134.265625 100.738281 134.175781 C 102.578125 134.105469 104.417969 134.230469 106.257812 134.261719 C 108.554688 134.304688 110.84375 134.171875 113.136719 134.082031 C 114.070312 134.046875 115 134.019531 115.933594 133.988281 C 116.035156 133.984375 116.183594 133.984375 116.179688 133.859375 C 116.171875 133.707031 116.015625 133.765625 115.929688 133.769531 C 115.398438 133.785156 114.867188 133.816406 114.335938 133.835938 C 109.839844 134.011719 105.339844 133.859375 100.847656 134.003906 C 98.058594 134.09375 95.273438 133.824219 92.488281 133.953125 C 92.328125 133.960938 92.152344 133.914062 91.996094 134.089844 C 92.355469 134.203125 92.699219 134.195312 93.039062 134.183594 Z M 63.753906 133.863281 C 63.222656 133.847656 62.691406 133.84375 62.160156 133.828125 C 59.957031 133.777344 57.761719 134.027344 55.558594 133.996094 C 53.523438 133.96875 51.492188 133.886719 49.457031 133.859375 C 46.441406 133.816406 43.421875 133.878906 40.402344 133.921875 C 40.28125 133.925781 40.089844 133.878906 40.082031 134.046875 C 40.074219 134.25 40.277344 134.164062 40.382812 134.164062 C 41.835938 134.175781 43.289062 134.191406 44.738281 134.179688 C 49.960938 134.128906 55.179688 134.207031 60.402344 134.085938 C 61.476562 134.0625 62.550781 134.085938 63.628906 134.078125 C 63.785156 134.078125 63.96875 134.128906 64.101562 133.976562 C 64.015625 133.839844 63.875 133.867188 63.753906 133.863281 Z M 44.324219 118.984375 C 46.90625 120.191406 49.488281 121.390625 51.96875 122.808594 C 55.355469 124.742188 58.960938 126.253906 62.394531 128.105469 C 63.292969 128.589844 64.242188 128.980469 65.171875 129.40625 C 65.25 129.441406 65.367188 129.566406 65.429688 129.410156 C 65.472656 129.304688 65.34375 129.269531 65.265625 129.230469 C 65.015625 129.09375 64.765625 128.957031 64.507812 128.832031 C 62.347656 127.765625 60.171875 126.730469 58.027344 125.636719 C 53.410156 123.277344 48.792969 120.933594 44.144531 118.636719 C 44.035156 118.582031 43.933594 118.472656 43.746094 118.574219 C 43.894531 118.808594 44.117188 118.890625 44.324219 118.984375 Z M 78.222656 104.472656 C 78.199219 106.171875 78.167969 107.867188 78.15625 109.566406 C 78.125 113.324219 78.070312 117.082031 78.136719 120.839844 C 78.140625 121.007812 78.074219 121.28125 78.320312 121.273438 C 78.539062 121.265625 78.441406 121 78.449219 120.847656 C 78.546875 118.089844 78.332031 115.332031 78.421875 112.570312 C 78.507812 109.964844 78.445312 107.359375 78.441406 104.753906 C 78.441406 104.589844 78.492188 104.414062 78.332031 104.257812 C 78.226562 104.316406 78.222656 104.394531 78.222656 104.472656 Z M 99.761719 112.847656 C 99.671875 112.894531 99.589844 112.960938 99.515625 113.03125 C 98.496094 114.003906 97.484375 114.988281 96.449219 115.949219 C 95.246094 117.074219 94.007812 118.15625 92.816406 119.289062 C 91.125 120.894531 89.484375 122.550781 87.878906 124.238281 C 87.769531 124.351562 87.667969 124.46875 87.570312 124.589844 C 87.523438 124.648438 87.484375 124.734375 87.550781 124.800781 C 87.632812 124.886719 87.714844 124.832031 87.78125 124.761719 C 87.964844 124.582031 88.144531 124.394531 88.328125 124.210938 C 89.304688 123.242188 90.328125 122.320312 91.242188 121.300781 C 92.554688 119.84375 93.953125 118.480469 95.441406 117.210938 C 96.894531 115.976562 98.230469 114.621094 99.601562 113.296875 C 99.710938 113.191406 99.804688 113.066406 99.894531 112.96875 C 99.886719 112.851562 99.824219 112.820312 99.761719 112.847656 Z M 56.933594 112.488281 C 57.003906 112.695312 57.171875 112.828125 57.316406 112.96875 C 60.460938 116.074219 63.4375 119.339844 66.582031 122.445312 C 67.285156 123.140625 67.949219 123.867188 68.609375 124.59375 C 68.683594 124.675781 68.777344 124.804688 68.898438 124.695312 C 69.023438 124.582031 68.902344 124.484375 68.828125 124.398438 C 68.546875 124.09375 68.273438 123.785156 67.984375 123.484375 C 66.121094 121.535156 64.167969 119.675781 62.285156 117.75 C 60.800781 116.230469 59.402344 114.628906 57.847656 113.175781 C 57.570312 112.917969 57.289062 112.660156 57.011719 112.40625 C 56.984375 112.433594 56.960938 112.460938 56.933594 112.488281 Z M 70.867188 123.113281 C 70.832031 122.8125 70.644531 122.578125 70.488281 122.335938 C 69.203125 120.359375 67.941406 118.367188 66.589844 116.433594 C 66.308594 116.03125 66.03125 115.625 65.746094 115.222656 C 65.699219 115.152344 65.628906 115.058594 65.527344 115.132812 C 65.445312 115.195312 65.515625 115.277344 65.546875 115.339844 C 65.578125 115.398438 65.613281 115.453125 65.652344 115.507812 C 67.0625 117.585938 68.550781 119.613281 69.804688 121.796875 C 70.082031 122.28125 70.441406 122.71875 70.765625 123.179688 C 70.796875 123.15625 70.832031 123.136719 70.867188 123.113281 Z M 75.800781 121.289062 C 75.800781 120.882812 75.644531 120.507812 75.570312 120.113281 C 75.074219 117.507812 74.585938 114.902344 74.089844 112.300781 C 74.054688 112.121094 74.0625 111.789062 73.875 111.828125 C 73.644531 111.875 73.773438 112.175781 73.8125 112.363281 C 74.304688 114.742188 74.898438 117.105469 75.195312 119.523438 C 75.277344 120.183594 75.46875 120.828125 75.667969 121.484375 C 75.816406 121.421875 75.804688 121.351562 75.800781 121.289062 Z M 66.792969 126.25 C 66.402344 125.886719 65.957031 125.597656 65.519531 125.296875 C 64.070312 124.296875 62.621094 123.296875 61.230469 122.210938 C 60.792969 121.867188 60.328125 121.558594 59.871094 121.242188 C 59.78125 121.179688 59.644531 121.097656 59.566406 121.234375 C 59.503906 121.347656 59.636719 121.417969 59.71875 121.472656 C 59.980469 121.664062 60.242188 121.851562 60.511719 122.03125 C 60.972656 122.34375 61.449219 122.636719 61.902344 122.960938 C 63.484375 124.085938 64.976562 125.339844 66.597656 126.410156 C 66.726562 126.496094 66.828125 126.671875 67.042969 126.585938 C 67.019531 126.425781 66.894531 126.34375 66.792969 126.25 Z M 64.476562 131.460938 C 64.421875 131.429688 64.367188 131.386719 64.308594 131.375 C 63.097656 131.171875 61.929688 130.769531 60.726562 130.539062 C 59.277344 130.261719 57.886719 129.757812 56.445312 129.453125 C 56.1875 129.402344 55.917969 129.269531 55.621094 129.40625 C 55.757812 129.601562 55.945312 129.609375 56.117188 129.65625 C 57.269531 129.949219 58.425781 130.210938 59.585938 130.46875 C 60.769531 130.730469 61.933594 131.09375 63.109375 131.386719 C 63.550781 131.5 64 131.59375 64.457031 131.554688 C 64.464844 131.523438 64.46875 131.492188 64.476562 131.460938 Z M 89.816406 126.851562 C 90.175781 126.597656 90.527344 126.332031 90.882812 126.074219 C 92.597656 124.84375 94.3125 123.621094 96.023438 122.390625 C 96.222656 122.246094 96.398438 122.074219 96.582031 121.910156 C 96.640625 121.851562 96.746094 121.785156 96.65625 121.6875 C 96.589844 121.617188 96.507812 121.691406 96.449219 121.730469 C 96.148438 121.9375 95.855469 122.148438 95.558594 122.355469 C 94.542969 123.050781 93.667969 123.929688 92.621094 124.578125 C 91.640625 125.1875 90.703125 125.855469 89.792969 126.566406 C 89.65625 126.675781 89.488281 126.761719 89.441406 126.980469 C 89.628906 127.039062 89.71875 126.921875 89.816406 126.851562 Z M 86.15625 122.320312 C 87.121094 120.757812 88.09375 119.199219 89.191406 117.722656 C 89.609375 117.160156 89.980469 116.570312 90.324219 115.960938 C 90.386719 115.851562 90.5 115.691406 90.375 115.613281 C 90.234375 115.527344 90.160156 115.710938 90.097656 115.816406 C 88.765625 118.03125 87.25 120.132812 85.855469 122.3125 C 85.6875 122.578125 85.480469 122.828125 85.425781 123.15625 C 85.773438 122.957031 85.960938 122.632812 86.15625 122.320312 Z M 80.742188 121.359375 C 80.777344 121.222656 80.820312 121.089844 80.847656 120.953125 C 81.351562 118.367188 81.804688 115.769531 82.410156 113.203125 C 82.46875 112.9375 82.507812 112.667969 82.550781 112.398438 C 82.5625 112.300781 82.570312 112.164062 82.4375 112.148438 C 82.304688 112.132812 82.296875 112.273438 82.265625 112.367188 C 82.246094 112.414062 82.25 112.46875 82.242188 112.519531 C 81.886719 114.898438 81.351562 117.246094 80.882812 119.601562 C 80.769531 120.171875 80.65625 120.753906 80.640625 121.34375 C 80.675781 121.347656 80.710938 121.355469 80.742188 121.359375 Z M 100.222656 129.710938 C 97.398438 130.300781 94.578125 130.882812 91.796875 131.652344 C 92.375 131.742188 100.042969 129.960938 100.222656 129.710938 Z M 54.644531 129.222656 C 54.683594 129.226562 54.746094 129.1875 54.765625 129.148438 C 54.796875 129.074219 54.734375 129.03125 54.671875 129.011719 C 54.222656 128.886719 53.78125 128.710938 53.296875 128.769531 C 53.714844 129.019531 54.164062 129.171875 54.644531 129.222656 Z M 64.269531 113.261719 C 64.238281 113.253906 64.175781 113.257812 64.167969 113.269531 C 64.15625 113.3125 64.144531 113.375 64.164062 113.410156 C 64.339844 113.742188 64.558594 114.050781 64.804688 114.332031 C 64.851562 114.386719 64.910156 114.414062 64.976562 114.378906 C 65.003906 114.367188 65.011719 114.320312 65.019531 114.304688 C 65.019531 114.152344 64.394531 113.292969 64.269531 113.261719 Z M 97.496094 120.910156 C 97.433594 120.957031 97.390625 121.042969 97.441406 121.113281 C 97.5 121.195312 97.582031 121.148438 97.648438 121.109375 C 97.976562 120.910156 98.269531 120.667969 98.476562 120.328125 C 98.097656 120.449219 97.792969 120.671875 97.496094 120.910156 Z M 73.589844 110.75 C 73.605469 110.820312 73.628906 110.910156 73.730469 110.898438 C 73.804688 110.886719 73.839844 110.820312 73.824219 110.753906 C 73.726562 110.339844 73.710938 109.898438 73.417969 109.542969 C 73.382812 109.960938 73.492188 110.355469 73.589844 110.75 Z M 82.933594 110.046875 C 82.9375 110.007812 82.902344 109.941406 82.867188 109.925781 C 82.789062 109.890625 82.746094 109.960938 82.734375 110.019531 C 82.640625 110.398438 82.5 110.773438 82.636719 111.179688 C 82.890625 110.839844 82.878906 110.433594 82.933594 110.046875 Z M 91.710938 113.617188 C 91.417969 113.996094 91.03125 114.316406 90.933594 114.828125 C 91.265625 114.46875 91.605469 114.117188 91.710938 113.617188 Z M 57.332031 119.753906 C 57.597656 120.128906 57.976562 120.34375 58.40625 120.5 C 58.128906 120.144531 57.792969 119.855469 57.332031 119.753906 Z M 101.191406 129.53125 C 101.617188 129.457031 102.066406 129.484375 102.410156 129.152344 C 101.984375 129.21875 101.527344 129.183594 101.191406 129.53125 Z M 101.191406 129.53125" stroke-linecap="round" />
</g>
		<g transform="matrix(1.33 0 0 1.33 -145.95 -94.17)" clip-path="url(#CLIPPATH_7)"  >
<clipPath id="CLIPPATH_7" >
	<path transform="matrix(1 0 0 1 0.17 -0.11) translate(-78.3, -116.81)" d="M 40.054688 99.558594 L 116.554688 99.558594 L 116.554688 134.058594 L 40.054688 134.058594 Z M 40.054688 99.558594" stroke-linecap="round" />
</clipPath>
<path style="stroke: none; stroke-width: 1; stroke-dasharray: none; stroke-linecap: butt; stroke-dashoffset: 0; stroke-linejoin: miter; stroke-miterlimit: 4; fill: rgb(248,233,223); fill-rule: nonzero; opacity: 1;"  transform=" translate(-78.13, -116.91)" d="M 93.039062 99.664062 C 93.117188 99.910156 92.984375 100.089844 92.90625 100.273438 C 92.089844 102.222656 91.074219 104.074219 90.148438 105.972656 C 88.585938 109.15625 86.972656 112.316406 85.648438 115.613281 C 84.863281 117.570312 83.984375 119.496094 83.183594 121.445312 C 83.121094 121.597656 83.0625 121.902344 82.875 121.816406 C 82.648438 121.710938 82.863281 121.476562 82.929688 121.316406 C 83.929688 118.886719 84.917969 116.449219 85.945312 114.03125 C 86.992188 111.574219 88.25 109.21875 89.417969 106.820312 C 90.539062 104.527344 91.675781 102.246094 92.804688 99.957031 C 92.855469 99.855469 92.875 99.730469 93.039062 99.664062 Z M 64.238281 99.882812 C 64.429688 100.527344 64.617188 101.171875 64.875 101.796875 C 65.792969 103.992188 66.8125 106.15625 67.550781 108.417969 C 69.039062 112.957031 70.964844 117.335938 72.554688 121.835938 C 72.605469 121.972656 72.617188 122.25 72.839844 122.164062 C 73.039062 122.089844 72.859375 121.890625 72.820312 121.761719 C 72.453125 120.53125 71.972656 119.34375 71.5 118.152344 C 69.105469 112.085938 66.875 105.960938 64.503906 99.882812 C 64.453125 99.761719 64.4375 99.601562 64.238281 99.558594 C 64.175781 99.683594 64.210938 99.78125 64.238281 99.882812 Z M 91.46875 128.90625 C 93.339844 128.046875 95.207031 127.183594 97.074219 126.316406 C 99.941406 124.988281 102.773438 123.59375 105.65625 122.300781 C 107.875 121.300781 110.132812 120.390625 112.265625 119.207031 C 112.421875 119.117188 112.625 119.082031 112.746094 118.785156 C 105.289062 122.105469 98.039062 125.644531 90.71875 129.046875 C 91.007812 129.132812 91.242188 129.007812 91.46875 128.90625 Z M 93.039062 134.183594 C 95.605469 134.105469 98.171875 134.265625 100.738281 134.175781 C 102.578125 134.105469 104.417969 134.230469 106.257812 134.261719 C 108.554688 134.304688 110.84375 134.171875 113.136719 134.082031 C 114.070312 134.046875 115 134.019531 115.933594 133.988281 C 116.035156 133.984375 116.183594 133.984375 116.179688 133.859375 C 116.171875 133.707031 116.015625 133.765625 115.929688 133.769531 C 115.398438 133.785156 114.867188 133.816406 114.335938 133.835938 C 109.839844 134.011719 105.339844 133.859375 100.847656 134.003906 C 98.058594 134.09375 95.273438 133.824219 92.488281 133.953125 C 92.328125 133.960938 92.152344 133.914062 91.996094 134.089844 C 92.355469 134.203125 92.699219 134.195312 93.039062 134.183594 Z M 63.753906 133.863281 C 63.222656 133.847656 62.691406 133.84375 62.160156 133.828125 C 59.957031 133.777344 57.761719 134.027344 55.558594 133.996094 C 53.523438 133.96875 51.492188 133.886719 49.457031 133.859375 C 46.441406 133.816406 43.421875 133.878906 40.402344 133.921875 C 40.28125 133.925781 40.089844 133.878906 40.082031 134.046875 C 40.074219 134.25 40.277344 134.164062 40.382812 134.164062 C 41.835938 134.175781 43.289062 134.191406 44.738281 134.179688 C 49.960938 134.128906 55.179688 134.207031 60.402344 134.085938 C 61.476562 134.0625 62.550781 134.085938 63.628906 134.078125 C 63.785156 134.078125 63.96875 134.128906 64.101562 133.976562 C 64.015625 133.839844 63.875 133.867188 63.753906 133.863281 Z M 44.324219 118.984375 C 46.90625 120.191406 49.488281 121.390625 51.96875 122.808594 C 55.355469 124.742188 58.960938 126.253906 62.394531 128.105469 C 63.292969 128.589844 64.242188 128.980469 65.171875 129.40625 C 65.25 129.441406 65.367188 129.566406 65.429688 129.410156 C 65.472656 129.304688 65.34375 129.269531 65.265625 129.230469 C 65.015625 129.09375 64.765625 128.957031 64.507812 128.832031 C 62.347656 127.765625 60.171875 126.730469 58.027344 125.636719 C 53.410156 123.277344 48.792969 120.933594 44.144531 118.636719 C 44.035156 118.582031 43.933594 118.472656 43.746094 118.574219 C 43.894531 118.808594 44.117188 118.890625 44.324219 118.984375 Z M 78.222656 104.472656 C 78.199219 106.171875 78.167969 107.867188 78.15625 109.566406 C 78.125 113.324219 78.070312 117.082031 78.136719 120.839844 C 78.140625 121.007812 78.074219 121.28125 78.320312 121.273438 C 78.539062 121.265625 78.441406 121 78.449219 120.847656 C 78.546875 118.089844 78.332031 115.332031 78.421875 112.570312 C 78.507812 109.964844 78.445312 107.359375 78.441406 104.753906 C 78.441406 104.589844 78.492188 104.414062 78.332031 104.257812 C 78.226562 104.316406 78.222656 104.394531 78.222656 104.472656 Z M 99.761719 112.847656 C 99.671875 112.894531 99.589844 112.960938 99.515625 113.03125 C 98.496094 114.003906 97.484375 114.988281 96.449219 115.949219 C 95.246094 117.074219 94.007812 118.15625 92.816406 119.289062 C 91.125 120.894531 89.484375 122.550781 87.878906 124.238281 C 87.769531 124.351562 87.667969 124.46875 87.570312 124.589844 C 87.523438 124.648438 87.484375 124.734375 87.550781 124.800781 C 87.632812 124.886719 87.714844 124.832031 87.78125 124.761719 C 87.964844 124.582031 88.144531 124.394531 88.328125 124.210938 C 89.304688 123.242188 90.328125 122.320312 91.242188 121.300781 C 92.554688 119.84375 93.953125 118.480469 95.441406 117.210938 C 96.894531 115.976562 98.230469 114.621094 99.601562 113.296875 C 99.710938 113.191406 99.804688 113.066406 99.894531 112.96875 C 99.886719 112.851562 99.824219 112.820312 99.761719 112.847656 Z M 56.933594 112.488281 C 57.003906 112.695312 57.171875 112.828125 57.316406 112.96875 C 60.460938 116.074219 63.4375 119.339844 66.582031 122.445312 C 67.285156 123.140625 67.949219 123.867188 68.609375 124.59375 C 68.683594 124.675781 68.777344 124.804688 68.898438 124.695312 C 69.023438 124.582031 68.902344 124.484375 68.828125 124.398438 C 68.546875 124.09375 68.273438 123.785156 67.984375 123.484375 C 66.121094 121.535156 64.167969 119.675781 62.285156 117.75 C 60.800781 116.230469 59.402344 114.628906 57.847656 113.175781 C 57.570312 112.917969 57.289062 112.660156 57.011719 112.40625 C 56.984375 112.433594 56.960938 112.460938 56.933594 112.488281 Z M 70.867188 123.113281 C 70.832031 122.8125 70.644531 122.578125 70.488281 122.335938 C 69.203125 120.359375 67.941406 118.367188 66.589844 116.433594 C 66.308594 116.03125 66.03125 115.625 65.746094 115.222656 C 65.699219 115.152344 65.628906 115.058594 65.527344 115.132812 C 65.445312 115.195312 65.515625 115.277344 65.546875 115.339844 C 65.578125 115.398438 65.613281 115.453125 65.652344 115.507812 C 67.0625 117.585938 68.550781 119.613281 69.804688 121.796875 C 70.082031 122.28125 70.441406 122.71875 70.765625 123.179688 C 70.796875 123.15625 70.832031 123.136719 70.867188 123.113281 Z M 75.800781 121.289062 C 75.800781 120.882812 75.644531 120.507812 75.570312 120.113281 C 75.074219 117.507812 74.585938 114.902344 74.089844 112.300781 C 74.054688 112.121094 74.0625 111.789062 73.875 111.828125 C 73.644531 111.875 73.773438 112.175781 73.8125 112.363281 C 74.304688 114.742188 74.898438 117.105469 75.195312 119.523438 C 75.277344 120.183594 75.46875 120.828125 75.667969 121.484375 C 75.816406 121.421875 75.804688 121.351562 75.800781 121.289062 Z M 66.792969 126.25 C 66.402344 125.886719 65.957031 125.597656 65.519531 125.296875 C 64.070312 124.296875 62.621094 123.296875 61.230469 122.210938 C 60.792969 121.867188 60.328125 121.558594 59.871094 121.242188 C 59.78125 121.179688 59.644531 121.097656 59.566406 121.234375 C 59.503906 121.347656 59.636719 121.417969 59.71875 121.472656 C 59.980469 121.664062 60.242188 121.851562 60.511719 122.03125 C 60.972656 122.34375 61.449219 122.636719 61.902344 122.960938 C 63.484375 124.085938 64.976562 125.339844 66.597656 126.410156 C 66.726562 126.496094 66.828125 126.671875 67.042969 126.585938 C 67.019531 126.425781 66.894531 126.34375 66.792969 126.25 Z M 64.476562 131.460938 C 64.421875 131.429688 64.367188 131.386719 64.308594 131.375 C 63.097656 131.171875 61.929688 130.769531 60.726562 130.539062 C 59.277344 130.261719 57.886719 129.757812 56.445312 129.453125 C 56.1875 129.402344 55.917969 129.269531 55.621094 129.40625 C 55.757812 129.601562 55.945312 129.609375 56.117188 129.65625 C 57.269531 129.949219 58.425781 130.210938 59.585938 130.46875 C 60.769531 130.730469 61.933594 131.09375 63.109375 131.386719 C 63.550781 131.5 64 131.59375 64.457031 131.554688 C 64.464844 131.523438 64.46875 131.492188 64.476562 131.460938 Z M 89.816406 126.851562 C 90.175781 126.597656 90.527344 126.332031 90.882812 126.074219 C 92.597656 124.84375 94.3125 123.621094 96.023438 122.390625 C 96.222656 122.246094 96.398438 122.074219 96.582031 121.910156 C 96.640625 121.851562 96.746094 121.785156 96.65625 121.6875 C 96.589844 121.617188 96.507812 121.691406 96.449219 121.730469 C 96.148438 121.9375 95.855469 122.148438 95.558594 122.355469 C 94.542969 123.050781 93.667969 123.929688 92.621094 124.578125 C 91.640625 125.1875 90.703125 125.855469 89.792969 126.566406 C 89.65625 126.675781 89.488281 126.761719 89.441406 126.980469 C 89.628906 127.039062 89.71875 126.921875 89.816406 126.851562 Z M 86.15625 122.320312 C 87.121094 120.757812 88.09375 119.199219 89.191406 117.722656 C 89.609375 117.160156 89.980469 116.570312 90.324219 115.960938 C 90.386719 115.851562 90.5 115.691406 90.375 115.613281 C 90.234375 115.527344 90.160156 115.710938 90.097656 115.816406 C 88.765625 118.03125 87.25 120.132812 85.855469 122.3125 C 85.6875 122.578125 85.480469 122.828125 85.425781 123.15625 C 85.773438 122.957031 85.960938 122.632812 86.15625 122.320312 Z M 80.742188 121.359375 C 80.777344 121.222656 80.820312 121.089844 80.847656 120.953125 C 81.351562 118.367188 81.804688 115.769531 82.410156 113.203125 C 82.46875 112.9375 82.507812 112.667969 82.550781 112.398438 C 82.5625 112.300781 82.570312 112.164062 82.4375 112.148438 C 82.304688 112.132812 82.296875 112.273438 82.265625 112.367188 C 82.246094 112.414062 82.25 112.46875 82.242188 112.519531 C 81.886719 114.898438 81.351562 117.246094 80.882812 119.601562 C 80.769531 120.171875 80.65625 120.753906 80.640625 121.34375 C 80.675781 121.347656 80.710938 121.355469 80.742188 121.359375 Z M 100.222656 129.710938 C 97.398438 130.300781 94.578125 130.882812 91.796875 131.652344 C 92.375 131.742188 100.042969 129.960938 100.222656 129.710938 Z M 54.644531 129.222656 C 54.683594 129.226562 54.746094 129.1875 54.765625 129.148438 C 54.796875 129.074219 54.734375 129.03125 54.671875 129.011719 C 54.222656 128.886719 53.78125 128.710938 53.296875 128.769531 C 53.714844 129.019531 54.164062 129.171875 54.644531 129.222656 Z M 64.269531 113.261719 C 64.238281 113.253906 64.175781 113.257812 64.167969 113.269531 C 64.15625 113.3125 64.144531 113.375 64.164062 113.410156 C 64.339844 113.742188 64.558594 114.050781 64.804688 114.332031 C 64.851562 114.386719 64.910156 114.414062 64.976562 114.378906 C 65.003906 114.367188 65.011719 114.320312 65.019531 114.304688 C 65.019531 114.152344 64.394531 113.292969 64.269531 113.261719 Z M 97.496094 120.910156 C 97.433594 120.957031 97.390625 121.042969 97.441406 121.113281 C 97.5 121.195312 97.582031 121.148438 97.648438 121.109375 C 97.976562 120.910156 98.269531 120.667969 98.476562 120.328125 C 98.097656 120.449219 97.792969 120.671875 97.496094 120.910156 Z M 73.589844 110.75 C 73.605469 110.820312 73.628906 110.910156 73.730469 110.898438 C 73.804688 110.886719 73.839844 110.820312 73.824219 110.753906 C 73.726562 110.339844 73.710938 109.898438 73.417969 109.542969 C 73.382812 109.960938 73.492188 110.355469 73.589844 110.75 Z M 82.933594 110.046875 C 82.9375 110.007812 82.902344 109.941406 82.867188 109.925781 C 82.789062 109.890625 82.746094 109.960938 82.734375 110.019531 C 82.640625 110.398438 82.5 110.773438 82.636719 111.179688 C 82.890625 110.839844 82.878906 110.433594 82.933594 110.046875 Z M 91.710938 113.617188 C 91.417969 113.996094 91.03125 114.316406 90.933594 114.828125 C 91.265625 114.46875 91.605469 114.117188 91.710938 113.617188 Z M 57.332031 119.753906 C 57.597656 120.128906 57.976562 120.34375 58.40625 120.5 C 58.128906 120.144531 57.792969 119.855469 57.332031 119.753906 Z M 101.191406 129.53125 C 101.617188 129.457031 102.066406 129.484375 102.410156 129.152344 C 101.984375 129.21875 101.527344 129.183594 101.191406 129.53125 Z M 101.191406 129.53125" stroke-linecap="round" />
</g>
		<g transform="matrix(1.33 0 0 1.33 -85.74 30.23)"  >
<path style="stroke: none; stroke-width: 1; stroke-dasharray: none; stroke-linecap: butt; stroke-dashoffset: 0; stroke-linejoin: miter; stroke-miterlimit: 4; fill: rgb(217,217,217); fill-rule: nonzero; opacity: 1;"  transform=" translate(-8.28, 10.85)" d="M 6.601562 -21.109375 L 7.003906 -20.707031 L 7.003906 0 L 9.546875 0 L 9.546875 -20.707031 L 9.949219 -21.109375 L 15.777344 -21.109375 L 15.777344 -21.699219 L 0.773438 -21.699219 L 0.773438 -21.109375 Z M 6.601562 -21.109375" stroke-linecap="round" />
</g>
		<g transform="matrix(1.33 0 0 1.33 -61.26 30.23)"  >
<path style="stroke: none; stroke-width: 1; stroke-dasharray: none; stroke-linecap: butt; stroke-dashoffset: 0; stroke-linejoin: miter; stroke-miterlimit: 4; fill: rgb(217,217,217); fill-rule: nonzero; opacity: 1;"  transform=" translate(-10.09, 10.85)" d="M 2.324219 0 L 4.867188 0 L 4.867188 -11.128906 L 6.820312 -11.128906 L 14.785156 0 L 17.855469 0 L 10.445312 -10.230469 C 9.796875 -10.414062 9.082031 -10.726562 8.371094 -11.128906 C 18.941406 -11.128906 17.542969 -21.699219 9.359375 -21.699219 L 2.324219 -21.699219 Z M 5.269531 -21.109375 L 8.554688 -21.078125 C 14.785156 -21.015625 14.785156 -11.71875 8.554688 -11.71875 L 4.867188 -11.71875 L 4.867188 -20.707031 Z M 5.269531 -21.109375" stroke-linecap="round" />
</g>
		<g transform="matrix(1.33 0 0 1.33 -38.71 30.23)"  >
<path style="stroke: none; stroke-width: 1; stroke-dasharray: none; stroke-linecap: butt; stroke-dashoffset: 0; stroke-linejoin: miter; stroke-miterlimit: 4; fill: rgb(217,217,217); fill-rule: nonzero; opacity: 1;"  transform=" translate(-8.37, 10.85)" d="M 2.324219 0 L 14.414062 0 L 14.414062 -0.589844 L 5.269531 -0.589844 C 5.113281 -0.742188 5.023438 -0.804688 4.867188 -0.960938 L 4.867188 -11.128906 L 9.917969 -11.128906 L 9.917969 -11.71875 L 4.867188 -11.71875 L 4.867188 -20.707031 L 5.269531 -21.109375 L 13.453125 -21.109375 L 13.453125 -21.699219 L 2.324219 -21.699219 Z M 2.324219 0" stroke-linecap="round" />
</g>
		<g transform="matrix(1.33 0 0 1.33 -14.19 29.97)"  >
<path style="stroke: none; stroke-width: 1; stroke-dasharray: none; stroke-linecap: butt; stroke-dashoffset: 0; stroke-linejoin: miter; stroke-miterlimit: 4; fill: rgb(217,217,217); fill-rule: nonzero; opacity: 1;"  transform=" translate(-10.37, 11.05)" d="M 1.425781 0 L 3.65625 -5.578125 L 14.753906 -5.578125 L 17.171875 0 L 19.960938 0 L 10.261719 -22.101562 L 9.671875 -22.101562 L 8.027344 -20.921875 L 8.648438 -19.527344 L 0.773438 0 Z M 8.957031 -18.753906 L 14.476562 -6.167969 L 3.90625 -6.167969 Z M 8.957031 -18.753906" stroke-linecap="round" />
</g>
		<g transform="matrix(1.33 0 0 1.33 11.94 30.26)"  >
<path style="stroke: none; stroke-width: 1; stroke-dasharray: none; stroke-linecap: butt; stroke-dashoffset: 0; stroke-linejoin: miter; stroke-miterlimit: 4; fill: rgb(217,217,217); fill-rule: nonzero; opacity: 1;"  transform=" translate(-9.22, 10.83)" d="M 1.550781 -4.402344 C 3.285156 -1.363281 6.105469 0.339844 9.484375 0.339844 C 13.175781 0.339844 16.894531 -1.457031 16.894531 -5.796875 C 16.894531 -13.640625 4.929688 -11.375 4.929688 -17.574219 C 4.929688 -20.179688 6.664062 -21.386719 8.835938 -21.386719 C 11.222656 -21.355469 14.136719 -19.839844 15.808594 -16.988281 L 16.304688 -17.265625 C 14.570312 -20.304688 11.75 -22.007812 8.371094 -22.007812 C 5.207031 -22.007812 2.199219 -20.425781 2.199219 -16.644531 C 2.199219 -9.269531 14.105469 -11.808594 14.105469 -4.742188 C 14.105469 -1.984375 12.027344 -0.621094 9.515625 -0.527344 C 6.851562 -0.464844 3.6875 -1.890625 2.046875 -4.679688 Z M 1.550781 -4.402344" stroke-linecap="round" />
</g>
		<g transform="matrix(1.33 0 0 1.33 39.04 30.5)"  >
<path style="stroke: none; stroke-width: 1; stroke-dasharray: none; stroke-linecap: butt; stroke-dashoffset: 0; stroke-linejoin: miter; stroke-miterlimit: 4; fill: rgb(217,217,217); fill-rule: nonzero; opacity: 1;"  transform=" translate(-11.11, 10.65)" d="M 2.324219 -8.398438 C 2.324219 -3.535156 6.261719 0.402344 11.097656 0.402344 C 15.964844 0.402344 19.902344 -3.535156 19.902344 -8.398438 L 19.902344 -21.699219 L 19.3125 -21.699219 L 19.3125 -8.398438 C 19.3125 -3.378906 15.621094 -0.804688 11.996094 -0.804688 C 8.398438 -0.804688 4.867188 -3.285156 4.867188 -8.398438 L 4.867188 -21.699219 L 2.324219 -21.699219 Z M 2.324219 -8.398438" stroke-linecap="round" />
</g>
		<g transform="matrix(1.33 0 0 1.33 67.32 30.23)"  >
<path style="stroke: none; stroke-width: 1; stroke-dasharray: none; stroke-linecap: butt; stroke-dashoffset: 0; stroke-linejoin: miter; stroke-miterlimit: 4; fill: rgb(217,217,217); fill-rule: nonzero; opacity: 1;"  transform=" translate(-10.09, 10.85)" d="M 2.324219 0 L 4.867188 0 L 4.867188 -11.128906 L 6.820312 -11.128906 L 14.785156 0 L 17.855469 0 L 10.445312 -10.230469 C 9.796875 -10.414062 9.082031 -10.726562 8.371094 -11.128906 C 18.941406 -11.128906 17.542969 -21.699219 9.359375 -21.699219 L 2.324219 -21.699219 Z M 5.269531 -21.109375 L 8.554688 -21.078125 C 14.785156 -21.015625 14.785156 -11.71875 8.554688 -11.71875 L 4.867188 -11.71875 L 4.867188 -20.707031 Z M 5.269531 -21.109375" stroke-linecap="round" />
</g>
		<g transform="matrix(1.33 0 0 1.33 89.86 30.23)"  >
<path style="stroke: none; stroke-width: 1; stroke-dasharray: none; stroke-linecap: butt; stroke-dashoffset: 0; stroke-linejoin: miter; stroke-miterlimit: 4; fill: rgb(217,217,217); fill-rule: nonzero; opacity: 1;"  transform=" translate(-8.37, 10.85)" d="M 2.324219 0 L 14.414062 0 L 14.414062 -0.589844 L 5.269531 -0.589844 C 5.113281 -0.742188 5.023438 -0.804688 4.867188 -0.960938 L 4.867188 -11.128906 L 9.917969 -11.128906 L 9.917969 -11.71875 L 4.867188 -11.71875 L 4.867188 -20.707031 L 5.269531 -21.109375 L 13.453125 -21.109375 L 13.453125 -21.699219 L 2.324219 -21.699219 Z M 2.324219 0" stroke-linecap="round" />
</g>
		<g transform="matrix(1.33 0 0 1.33 -59.82 59.58)"  >
<path style="stroke: none; stroke-width: 1; stroke-dasharray: none; stroke-linecap: butt; stroke-dashoffset: 0; stroke-linejoin: miter; stroke-miterlimit: 4; fill: rgb(217,217,217); fill-rule: nonzero; opacity: 1;"  transform=" translate(-2.61, 2.8)" d="M 0.601562 0 L 1.257812 0 L 1.257812 -2.871094 L 1.761719 -2.871094 L 3.816406 0 L 4.609375 0 L 2.695312 -2.640625 C 2.527344 -2.6875 2.34375 -2.769531 2.160156 -2.871094 C 4.886719 -2.871094 4.527344 -5.601562 2.417969 -5.601562 L 0.601562 -5.601562 Z M 1.359375 -5.449219 L 2.207031 -5.441406 C 3.816406 -5.425781 3.816406 -3.023438 2.207031 -3.023438 L 1.257812 -3.023438 L 1.257812 -5.34375 Z M 1.359375 -5.449219" stroke-linecap="round" />
</g>
		<g transform="matrix(1.33 0 0 1.33 -53.31 59.51)"  >
<path style="stroke: none; stroke-width: 1; stroke-dasharray: none; stroke-linecap: butt; stroke-dashoffset: 0; stroke-linejoin: miter; stroke-miterlimit: 4; fill: rgb(217,217,217); fill-rule: nonzero; opacity: 1;"  transform=" translate(-2.68, 2.85)" d="M 0.367188 0 L 0.945312 -1.441406 L 3.808594 -1.441406 L 4.433594 0 L 5.152344 0 L 2.648438 -5.703125 L 2.496094 -5.703125 L 2.070312 -5.398438 L 2.230469 -5.039062 L 0.199219 0 Z M 2.3125 -4.839844 L 3.734375 -1.59375 L 1.007812 -1.59375 Z M 2.3125 -4.839844" stroke-linecap="round" />
</g>
		<g transform="matrix(1.33 0 0 1.33 -45.54 59.58)"  >
<path style="stroke: none; stroke-width: 1; stroke-dasharray: none; stroke-linecap: butt; stroke-dashoffset: 0; stroke-linejoin: miter; stroke-miterlimit: 4; fill: rgb(217,217,217); fill-rule: nonzero; opacity: 1;"  transform=" translate(-3.16, 2.8)" d="M 0.601562 -5.601562 L 0.601562 0 L 2.808594 0 C 6.679688 0 6.679688 -5.601562 2.800781 -5.601562 Z M 1.257812 -0.246094 L 1.257812 -5.34375 C 1.296875 -5.382812 1.320312 -5.410156 1.351562 -5.449219 L 2.800781 -5.449219 C 5.777344 -5.449219 5.769531 -0.152344 2.808594 -0.152344 L 1.351562 -0.152344 C 1.320312 -0.191406 1.296875 -0.207031 1.257812 -0.246094 Z M 1.257812 -0.246094" stroke-linecap="round" />
</g>
		<g transform="matrix(1.33 0 0 1.33 -40.57 59.58)"  >
<path style="stroke: none; stroke-width: 1; stroke-dasharray: none; stroke-linecap: butt; stroke-dashoffset: 0; stroke-linejoin: miter; stroke-miterlimit: 4; fill: rgb(217,217,217); fill-rule: nonzero; opacity: 1;"  transform=" translate(-0.93, 2.8)" d="M 0.601562 0 L 1.257812 0 L 1.257812 -5.601562 L 0.601562 -5.601562 Z M 0.601562 0" stroke-linecap="round" />
</g>
		<g transform="matrix(1.33 0 0 1.33 -35.77 59.51)"  >
<path style="stroke: none; stroke-width: 1; stroke-dasharray: none; stroke-linecap: butt; stroke-dashoffset: 0; stroke-linejoin: miter; stroke-miterlimit: 4; fill: rgb(217,217,217); fill-rule: nonzero; opacity: 1;"  transform=" translate(-2.68, 2.85)" d="M 0.367188 0 L 0.945312 -1.441406 L 3.808594 -1.441406 L 4.433594 0 L 5.152344 0 L 2.648438 -5.703125 L 2.496094 -5.703125 L 2.070312 -5.398438 L 2.230469 -5.039062 L 0.199219 0 Z M 2.3125 -4.839844 L 3.734375 -1.59375 L 1.007812 -1.59375 Z M 2.3125 -4.839844" stroke-linecap="round" />
</g>
		<g transform="matrix(1.33 0 0 1.33 -28.7 59.65)"  >
<path style="stroke: none; stroke-width: 1; stroke-dasharray: none; stroke-linecap: butt; stroke-dashoffset: 0; stroke-linejoin: miter; stroke-miterlimit: 4; fill: rgb(217,217,217); fill-rule: nonzero; opacity: 1;"  transform=" translate(-2.62, 2.75)" d="M 0.601562 0 L 0.753906 0 L 0.753906 -5.136719 L 4.496094 0.105469 L 4.648438 0.105469 L 4.648438 -5.601562 L 4.496094 -5.601562 L 4.496094 -1.023438 L 1.222656 -5.601562 L 0.601562 -5.601562 Z M 0.601562 0" stroke-linecap="round" />
</g>
		<g transform="matrix(1.33 0 0 1.33 -21.55 59.58)"  >
<path style="stroke: none; stroke-width: 1; stroke-dasharray: none; stroke-linecap: butt; stroke-dashoffset: 0; stroke-linejoin: miter; stroke-miterlimit: 4; fill: rgb(217,217,217); fill-rule: nonzero; opacity: 1;"  transform=" translate(-2.75, 2.8)" d="M 0.199219 -2.792969 C 0.199219 -1.199219 1.542969 0.105469 3.25 0.105469 C 4.097656 0.105469 4.847656 -0.335938 5.296875 -1.121094 L 5.167969 -1.191406 C 4.777344 -0.519531 4.113281 -0.046875 3.25 -0.046875 C 1.816406 -0.046875 0.902344 -1.351562 0.902344 -2.792969 C 0.902344 -4.214844 1.800781 -5.550781 3.238281 -5.550781 C 4.105469 -5.550781 4.769531 -5.082031 5.160156 -4.410156 L 5.289062 -4.480469 C 4.839844 -5.265625 4.089844 -5.703125 3.238281 -5.703125 C 1.632812 -5.703125 0.199219 -4.464844 0.199219 -2.792969 Z M 0.199219 -2.792969" stroke-linecap="round" />
</g>
		<g transform="matrix(1.33 0 0 1.33 -15 59.58)"  >
<path style="stroke: none; stroke-width: 1; stroke-dasharray: none; stroke-linecap: butt; stroke-dashoffset: 0; stroke-linejoin: miter; stroke-miterlimit: 4; fill: rgb(217,217,217); fill-rule: nonzero; opacity: 1;"  transform=" translate(-2.16, 2.8)" d="M 0.601562 0 L 3.71875 0 L 3.71875 -0.152344 L 1.359375 -0.152344 C 1.320312 -0.191406 1.296875 -0.207031 1.257812 -0.246094 L 1.257812 -2.871094 L 2.558594 -2.871094 L 2.558594 -3.023438 L 1.257812 -3.023438 L 1.257812 -5.34375 L 1.359375 -5.449219 L 3.472656 -5.449219 L 3.472656 -5.601562 L 0.601562 -5.601562 Z M 0.601562 0" stroke-linecap="round" />
</g>
		<g transform="matrix(1.33 0 0 1.33 -4.68 59.65)"  >
<path style="stroke: none; stroke-width: 1; stroke-dasharray: none; stroke-linecap: butt; stroke-dashoffset: 0; stroke-linejoin: miter; stroke-miterlimit: 4; fill: rgb(217,217,217); fill-rule: nonzero; opacity: 1;"  transform=" translate(-2.87, 2.75)" d="M 0.601562 -2.167969 C 0.601562 -0.910156 1.617188 0.105469 2.863281 0.105469 C 4.121094 0.105469 5.136719 -0.910156 5.136719 -2.167969 L 5.136719 -5.601562 L 4.984375 -5.601562 L 4.984375 -2.167969 C 4.984375 -0.871094 4.03125 -0.207031 3.097656 -0.207031 C 2.167969 -0.207031 1.257812 -0.847656 1.257812 -2.167969 L 1.257812 -5.601562 L 0.601562 -5.601562 Z M 0.601562 -2.167969" stroke-linecap="round" />
</g>
		<g transform="matrix(1.33 0 0 1.33 2.65 59.65)"  >
<path style="stroke: none; stroke-width: 1; stroke-dasharray: none; stroke-linecap: butt; stroke-dashoffset: 0; stroke-linejoin: miter; stroke-miterlimit: 4; fill: rgb(217,217,217); fill-rule: nonzero; opacity: 1;"  transform=" translate(-2.62, 2.75)" d="M 0.601562 0 L 0.753906 0 L 0.753906 -5.136719 L 4.496094 0.105469 L 4.648438 0.105469 L 4.648438 -5.601562 L 4.496094 -5.601562 L 4.496094 -1.023438 L 1.222656 -5.601562 L 0.601562 -5.601562 Z M 0.601562 0" stroke-linecap="round" />
</g>
		<g transform="matrix(1.33 0 0 1.33 8.86 59.58)"  >
<path style="stroke: none; stroke-width: 1; stroke-dasharray: none; stroke-linecap: butt; stroke-dashoffset: 0; stroke-linejoin: miter; stroke-miterlimit: 4; fill: rgb(217,217,217); fill-rule: nonzero; opacity: 1;"  transform=" translate(-2.04, 2.8)" d="M 0.601562 0 L 1.257812 0 L 1.257812 -2.871094 L 2.558594 -2.871094 L 2.558594 -3.023438 L 1.257812 -3.023438 L 1.257812 -5.34375 L 1.359375 -5.449219 L 3.472656 -5.449219 L 3.472656 -5.601562 L 0.601562 -5.601562 Z M 0.601562 0" stroke-linecap="round" />
</g>
		<g transform="matrix(1.33 0 0 1.33 14.76 59.51)"  >
<path style="stroke: none; stroke-width: 1; stroke-dasharray: none; stroke-linecap: butt; stroke-dashoffset: 0; stroke-linejoin: miter; stroke-miterlimit: 4; fill: rgb(217,217,217); fill-rule: nonzero; opacity: 1;"  transform=" translate(-2.68, 2.85)" d="M 0.367188 0 L 0.945312 -1.441406 L 3.808594 -1.441406 L 4.433594 0 L 5.152344 0 L 2.648438 -5.703125 L 2.496094 -5.703125 L 2.070312 -5.398438 L 2.230469 -5.039062 L 0.199219 0 Z M 2.3125 -4.839844 L 3.734375 -1.59375 L 1.007812 -1.59375 Z M 2.3125 -4.839844" stroke-linecap="round" />
</g>
		<g transform="matrix(1.33 0 0 1.33 22.53 59.58)"  >
<path style="stroke: none; stroke-width: 1; stroke-dasharray: none; stroke-linecap: butt; stroke-dashoffset: 0; stroke-linejoin: miter; stroke-miterlimit: 4; fill: rgb(217,217,217); fill-rule: nonzero; opacity: 1;"  transform=" translate(-3.16, 2.8)" d="M 0.601562 -5.601562 L 0.601562 0 L 2.808594 0 C 6.679688 0 6.679688 -5.601562 2.800781 -5.601562 Z M 1.257812 -0.246094 L 1.257812 -5.34375 C 1.296875 -5.382812 1.320312 -5.410156 1.351562 -5.449219 L 2.800781 -5.449219 C 5.777344 -5.449219 5.769531 -0.152344 2.808594 -0.152344 L 1.351562 -0.152344 C 1.320312 -0.191406 1.296875 -0.207031 1.257812 -0.246094 Z M 1.257812 -0.246094" stroke-linecap="round" />
</g>
		<g transform="matrix(1.33 0 0 1.33 27.5 59.58)"  >
<path style="stroke: none; stroke-width: 1; stroke-dasharray: none; stroke-linecap: butt; stroke-dashoffset: 0; stroke-linejoin: miter; stroke-miterlimit: 4; fill: rgb(217,217,217); fill-rule: nonzero; opacity: 1;"  transform=" translate(-0.93, 2.8)" d="M 0.601562 0 L 1.257812 0 L 1.257812 -5.601562 L 0.601562 -5.601562 Z M 0.601562 0" stroke-linecap="round" />
</g>
		<g transform="matrix(1.33 0 0 1.33 32.23 59.65)"  >
<path style="stroke: none; stroke-width: 1; stroke-dasharray: none; stroke-linecap: butt; stroke-dashoffset: 0; stroke-linejoin: miter; stroke-miterlimit: 4; fill: rgb(217,217,217); fill-rule: nonzero; opacity: 1;"  transform=" translate(-2.62, 2.75)" d="M 0.601562 0 L 0.753906 0 L 0.753906 -5.136719 L 4.496094 0.105469 L 4.648438 0.105469 L 4.648438 -5.601562 L 4.496094 -5.601562 L 4.496094 -1.023438 L 1.222656 -5.601562 L 0.601562 -5.601562 Z M 0.601562 0" stroke-linecap="round" />
</g>
		<g transform="matrix(1.33 0 0 1.33 39.49 59.58)"  >
<path style="stroke: none; stroke-width: 1; stroke-dasharray: none; stroke-linecap: butt; stroke-dashoffset: 0; stroke-linejoin: miter; stroke-miterlimit: 4; fill: rgb(217,217,217); fill-rule: nonzero; opacity: 1;"  transform=" translate(-2.83, 2.8)" d="M 0.199219 -2.792969 C 0.199219 -1.199219 1.542969 0.105469 3.25 0.105469 C 4.105469 0.105469 4.847656 -0.335938 5.304688 -1.121094 L 5.304688 0.0078125 L 5.457031 0.0078125 L 5.457031 -3.527344 L 4.800781 -3.527344 L 4.800781 -0.703125 C 4.410156 -0.296875 3.878906 -0.046875 3.25 -0.046875 C 1.816406 -0.046875 0.902344 -1.351562 0.902344 -2.792969 C 0.902344 -4.214844 1.808594 -5.550781 3.25 -5.550781 C 4.113281 -5.550781 4.777344 -5.082031 5.167969 -4.410156 L 5.296875 -4.480469 C 4.847656 -5.265625 4.097656 -5.703125 3.25 -5.703125 C 1.632812 -5.703125 0.199219 -4.464844 0.199219 -2.792969 Z M 0.199219 -2.792969" stroke-linecap="round" />
</g>
</g>
</g>
</svg>