<svg xmlns="http://www.w3.org/2000/svg" xmlns:xlink="http://www.w3.org/1999/xlink" width="500" zoomAndPan="magnify" viewBox="0 0 375 374.999991" height="500" preserveAspectRatio="xMidYMid meet" version="1.0"><defs><g/></defs><g fill="#faf5f3" fill-opacity="1"><g transform="translate(8.789065, 202.263116)"><g><path d="M 36.359375 -25.0625 C 36.359375 -23.351562 35.929688 -21.722656 35.078125 -20.171875 C 34.234375 -18.628906 33.085938 -17.273438 31.640625 -16.109375 C 30.203125 -14.953125 28.515625 -14.03125 26.578125 -13.34375 C 24.640625 -12.664062 22.582031 -12.328125 20.40625 -12.328125 C 19.632812 -12.328125 19.023438 -12.425781 18.578125 -12.625 C 18.128906 -12.820312 17.625 -13.21875 17.0625 -13.8125 C 15.507812 -10.425781 14.242188 -7.316406 13.265625 -4.484375 C 12.296875 -1.648438 11.53125 1.097656 10.96875 3.765625 C 9.789062 3.484375 8.828125 2.992188 8.078125 2.296875 C 7.335938 1.597656 6.660156 0.722656 6.046875 -0.328125 C 6.359375 -0.910156 6.726562 -1.679688 7.15625 -2.640625 C 7.59375 -3.609375 8.117188 -4.796875 8.734375 -6.203125 C 9.359375 -7.617188 10.082031 -9.3125 10.90625 -11.28125 C 11.726562 -13.25 12.695312 -15.550781 13.8125 -18.1875 C 14.300781 -19.394531 14.734375 -20.445312 15.109375 -21.34375 C 15.484375 -22.238281 15.804688 -23.082031 16.078125 -23.875 C 16.359375 -24.664062 16.613281 -25.445312 16.84375 -26.21875 C 17.082031 -27 17.328125 -27.851562 17.578125 -28.78125 C 16.117188 -28.320312 14.773438 -27.78125 13.546875 -27.15625 C 12.328125 -26.53125 11.316406 -25.878906 10.515625 -25.203125 C 10.234375 -25.390625 9.941406 -25.664062 9.640625 -26.03125 C 9.347656 -26.40625 9.078125 -26.816406 8.828125 -27.265625 C 8.585938 -27.722656 8.375 -28.179688 8.1875 -28.640625 C 8 -29.109375 7.890625 -29.53125 7.859375 -29.90625 C 8.753906 -30.519531 9.867188 -31.085938 11.203125 -31.609375 C 12.535156 -32.140625 13.960938 -32.597656 15.484375 -32.984375 C 17.003906 -33.378906 18.578125 -33.679688 20.203125 -33.890625 C 21.828125 -34.109375 23.382812 -34.21875 24.875 -34.21875 C 26.644531 -34.21875 28.242188 -33.992188 29.671875 -33.546875 C 31.097656 -33.097656 32.304688 -32.46875 33.296875 -31.65625 C 34.285156 -30.851562 35.039062 -29.894531 35.5625 -28.78125 C 36.09375 -27.664062 36.359375 -26.425781 36.359375 -25.0625 Z M 28.09375 -30.640625 C 26.90625 -30.640625 25.691406 -30.546875 24.453125 -30.359375 L 25.015625 -29.53125 C 24.703125 -29.125 24.3125 -28.515625 23.84375 -27.703125 C 23.382812 -26.898438 22.875 -25.929688 22.3125 -24.796875 C 21.757812 -23.671875 21.148438 -22.410156 20.484375 -21.015625 C 19.816406 -19.617188 19.113281 -18.144531 18.375 -16.59375 C 20.789062 -16.59375 22.988281 -16.816406 24.96875 -17.265625 C 26.957031 -17.722656 28.65625 -18.347656 30.0625 -19.140625 C 31.46875 -19.929688 32.566406 -20.851562 33.359375 -21.90625 C 34.148438 -22.957031 34.546875 -24.085938 34.546875 -25.296875 C 34.546875 -26.910156 34.003906 -28.203125 32.921875 -29.171875 C 31.835938 -30.148438 30.226562 -30.640625 28.09375 -30.640625 Z M 28.09375 -30.640625 "/></g></g></g><g fill="#faf5f3" fill-opacity="1"><g transform="translate(38.619458, 202.263116)"><g><path d="M 20.546875 -18.78125 C 20.859375 -18.78125 21.222656 -18.722656 21.640625 -18.609375 C 22.066406 -18.503906 22.445312 -18.367188 22.78125 -18.203125 C 23.125 -18.035156 23.410156 -17.859375 23.640625 -17.671875 C 23.878906 -17.484375 24 -17.3125 24 -17.15625 C 23.375 -15.851562 22.796875 -14.539062 22.265625 -13.21875 C 21.742188 -11.90625 21.296875 -10.644531 20.921875 -9.4375 C 20.546875 -8.226562 20.257812 -7.097656 20.0625 -6.046875 C 19.863281 -4.992188 19.765625 -4.078125 19.765625 -3.296875 C 19.765625 -2.429688 19.859375 -1.710938 20.046875 -1.140625 C 20.234375 -0.566406 20.539062 -0.15625 20.96875 0.09375 C 20.59375 0.34375 20.109375 0.546875 19.515625 0.703125 C 18.929688 0.859375 18.410156 0.9375 17.953125 0.9375 C 16.273438 0.9375 15.4375 -0.210938 15.4375 -2.515625 C 15.4375 -4.273438 16.023438 -6.691406 17.203125 -9.765625 C 16.585938 -8.335938 15.875 -6.992188 15.0625 -5.734375 C 14.257812 -4.484375 13.4375 -3.375 12.59375 -2.40625 C 11.757812 -1.445312 10.914062 -0.664062 10.0625 -0.0625 C 9.207031 0.539062 8.425781 0.898438 7.71875 1.015625 C 6.570312 0.960938 5.640625 0.414062 4.921875 -0.625 C 4.210938 -1.664062 3.859375 -2.992188 3.859375 -4.609375 C 3.859375 -6.335938 4.226562 -8.160156 4.96875 -10.078125 C 5.71875 -12.003906 6.671875 -13.789062 7.828125 -15.4375 C 8.992188 -17.082031 10.257812 -18.453125 11.625 -19.546875 C 12.988281 -20.648438 14.304688 -21.234375 15.578125 -21.296875 C 15.890625 -21.203125 16.238281 -21.015625 16.625 -20.734375 C 17.007812 -20.460938 17.378906 -20.140625 17.734375 -19.765625 C 18.097656 -19.390625 18.398438 -19.007812 18.640625 -18.625 C 18.890625 -18.238281 19.03125 -17.90625 19.0625 -17.625 C 17.820312 -17.4375 16.539062 -16.832031 15.21875 -15.8125 C 13.90625 -14.789062 12.710938 -13.554688 11.640625 -12.109375 C 10.578125 -10.671875 9.703125 -9.128906 9.015625 -7.484375 C 8.335938 -5.835938 8 -4.304688 8 -2.890625 C 8 -2.296875 8.21875 -1.921875 8.65625 -1.765625 C 9.550781 -1.953125 10.585938 -2.71875 11.765625 -4.0625 C 12.941406 -5.414062 14.367188 -7.503906 16.046875 -10.328125 C 16.347656 -10.878906 16.691406 -11.492188 17.078125 -12.171875 C 17.472656 -12.859375 17.867188 -13.570312 18.265625 -14.3125 C 18.671875 -15.0625 19.066406 -15.816406 19.453125 -16.578125 C 19.847656 -17.335938 20.210938 -18.070312 20.546875 -18.78125 Z M 20.546875 -18.78125 "/></g></g></g><g fill="#faf5f3" fill-opacity="1"><g transform="translate(60.457928, 202.263116)"><g><path d="M 12.046875 -22.546875 C 12.847656 -22.304688 13.601562 -21.757812 14.3125 -20.90625 C 15.03125 -20.050781 15.5625 -19.113281 15.90625 -18.09375 C 15.5625 -17.25 15.03125 -16.238281 14.3125 -15.0625 C 13.601562 -13.882812 12.890625 -12.679688 12.171875 -11.453125 C 11.460938 -10.234375 10.820312 -9.070312 10.25 -7.96875 C 9.675781 -6.875 9.34375 -5.96875 9.25 -5.25 C 9.75 -5.78125 10.300781 -6.394531 10.90625 -7.09375 C 11.507812 -7.789062 12.097656 -8.488281 12.671875 -9.1875 C 13.242188 -9.882812 13.773438 -10.519531 14.265625 -11.09375 C 14.765625 -11.664062 15.15625 -12.09375 15.4375 -12.375 C 16.03125 -12.988281 16.726562 -13.707031 17.53125 -14.53125 C 18.332031 -15.351562 19.175781 -16.128906 20.0625 -16.859375 C 20.945312 -17.585938 21.835938 -18.207031 22.734375 -18.71875 C 23.640625 -19.226562 24.460938 -19.484375 25.203125 -19.484375 C 26.003906 -19.484375 26.675781 -19.210938 27.21875 -18.671875 C 27.769531 -18.128906 28.195312 -17.5625 28.5 -16.96875 C 28.5 -16.90625 28.382812 -16.816406 28.15625 -16.703125 C 27.925781 -16.597656 27.59375 -16.300781 27.15625 -15.8125 C 26.71875 -15.25 26.226562 -14.476562 25.6875 -13.5 C 25.144531 -12.53125 24.617188 -11.476562 24.109375 -10.34375 C 23.597656 -9.21875 23.171875 -8.0625 22.828125 -6.875 C 22.484375 -5.695312 22.3125 -4.628906 22.3125 -3.671875 C 22.3125 -2.898438 22.410156 -2.40625 22.609375 -2.1875 C 22.816406 -1.96875 23.109375 -1.859375 23.484375 -1.859375 C 23.828125 -1.859375 24.179688 -1.9375 24.546875 -2.09375 C 24.921875 -2.25 25.21875 -2.328125 25.4375 -2.328125 C 25.5625 -2.265625 25.660156 -2.128906 25.734375 -1.921875 C 25.816406 -1.722656 25.859375 -1.546875 25.859375 -1.390625 C 25.609375 -1.171875 25.3125 -0.953125 24.96875 -0.734375 C 24.625 -0.523438 24.265625 -0.328125 23.890625 -0.140625 C 23.523438 0.046875 23.164062 0.203125 22.8125 0.328125 C 22.457031 0.453125 22.140625 0.515625 21.859375 0.515625 C 20.953125 0.515625 20.210938 0.378906 19.640625 0.109375 C 19.066406 -0.148438 18.617188 -0.492188 18.296875 -0.921875 C 17.972656 -1.359375 17.75 -1.878906 17.625 -2.484375 C 17.5 -3.085938 17.4375 -3.734375 17.4375 -4.421875 C 17.4375 -4.785156 17.46875 -5.203125 17.53125 -5.671875 C 17.59375 -6.140625 17.71875 -6.691406 17.90625 -7.328125 C 18.09375 -7.960938 18.351562 -8.71875 18.6875 -9.59375 C 19.03125 -10.476562 19.46875 -11.539062 20 -12.78125 C 19.9375 -12.78125 19.515625 -12.5625 18.734375 -12.125 C 17.960938 -11.695312 17.128906 -11.035156 16.234375 -10.140625 C 14.773438 -8.742188 13.460938 -7.363281 12.296875 -6 C 11.140625 -4.632812 9.953125 -3.113281 8.734375 -1.4375 C 8.054688 -0.476562 7.460938 0.332031 6.953125 1 C 6.441406 1.664062 6 2.109375 5.625 2.328125 C 4.976562 1.953125 4.5 1.429688 4.1875 0.765625 C 3.875 0.0976562 3.640625 -0.585938 3.484375 -1.296875 C 3.484375 -1.890625 3.566406 -2.632812 3.734375 -3.53125 C 3.910156 -4.425781 4.144531 -5.425781 4.4375 -6.53125 C 4.726562 -7.632812 5.09375 -8.789062 5.53125 -10 C 5.96875 -11.207031 6.445312 -12.414062 6.96875 -13.625 C 8.144531 -16.351562 9.222656 -18.488281 10.203125 -20.03125 C 11.179688 -21.582031 11.796875 -22.421875 12.046875 -22.546875 Z M 12.046875 -22.546875 "/></g></g></g><g fill="#faf5f3" fill-opacity="1"><g transform="translate(85.548923, 202.263116)"><g><path d="M 14.640625 -21.71875 C 15.265625 -21.71875 15.976562 -21.53125 16.78125 -21.15625 C 17.59375 -20.78125 18.304688 -20.300781 18.921875 -19.71875 C 18.765625 -20.957031 18.570312 -22.125 18.34375 -23.21875 C 18.113281 -24.320312 17.769531 -25.460938 17.3125 -26.640625 C 16.863281 -27.816406 16.269531 -29.101562 15.53125 -30.5 C 14.789062 -31.894531 13.859375 -33.492188 12.734375 -35.296875 C 12.828125 -35.578125 13.035156 -35.898438 13.359375 -36.265625 C 13.691406 -36.640625 14.066406 -36.988281 14.484375 -37.3125 C 14.898438 -37.632812 15.332031 -37.921875 15.78125 -38.171875 C 16.238281 -38.421875 16.664062 -38.578125 17.0625 -38.640625 C 17.9375 -37.679688 18.757812 -36.476562 19.53125 -35.03125 C 20.300781 -33.59375 20.976562 -32.046875 21.5625 -30.390625 C 22.15625 -28.734375 22.613281 -27.019531 22.9375 -25.25 C 23.269531 -23.476562 23.4375 -21.789062 23.4375 -20.1875 C 23.4375 -18.570312 23.253906 -16.910156 22.890625 -15.203125 C 22.535156 -13.492188 22.039062 -11.828125 21.40625 -10.203125 C 20.769531 -8.578125 20.035156 -7.035156 19.203125 -5.578125 C 18.367188 -4.117188 17.460938 -2.816406 16.484375 -1.671875 C 15.503906 -0.523438 14.488281 0.410156 13.4375 1.140625 C 12.382812 1.867188 11.332031 2.328125 10.28125 2.515625 C 8.132812 2.265625 6.492188 1.570312 5.359375 0.4375 C 4.234375 -0.6875 3.671875 -2.242188 3.671875 -4.234375 C 3.671875 -5.285156 3.832031 -6.429688 4.15625 -7.671875 C 4.488281 -8.910156 4.925781 -10.140625 5.46875 -11.359375 C 6.007812 -12.585938 6.644531 -13.78125 7.375 -14.9375 C 8.101562 -16.101562 8.875 -17.148438 9.6875 -18.078125 C 10.507812 -19.015625 11.335938 -19.804688 12.171875 -20.453125 C 13.015625 -21.109375 13.835938 -21.53125 14.640625 -21.71875 Z M 9.90625 0.65625 C 10.988281 0.28125 12.070312 -0.539062 13.15625 -1.8125 C 14.238281 -3.082031 15.210938 -4.578125 16.078125 -6.296875 C 16.953125 -8.015625 17.660156 -9.859375 18.203125 -11.828125 C 18.742188 -13.796875 19.015625 -15.695312 19.015625 -17.53125 C 19.015625 -18.0625 19.015625 -18.382812 19.015625 -18.5 C 19.015625 -18.625 19 -18.75 18.96875 -18.875 C 18.226562 -18.5625 17.4375 -18.035156 16.59375 -17.296875 C 15.757812 -16.554688 14.921875 -15.695312 14.078125 -14.71875 C 13.242188 -13.738281 12.457031 -12.675781 11.71875 -11.53125 C 10.976562 -10.382812 10.3125 -9.238281 9.71875 -8.09375 C 9.125 -6.945312 8.65625 -5.84375 8.3125 -4.78125 C 7.976562 -3.726562 7.8125 -2.800781 7.8125 -2 C 7.8125 -0.445312 8.507812 0.4375 9.90625 0.65625 Z M 9.90625 0.65625 "/></g></g></g><g fill="#faf5f3" fill-opacity="1"><g transform="translate(105.668205, 202.263116)"><g><path d="M 10 1.625 C 8.226562 1.4375 6.816406 0.660156 5.765625 -0.703125 C 4.710938 -2.066406 4.1875 -3.800781 4.1875 -5.90625 C 4.1875 -7.144531 4.367188 -8.429688 4.734375 -9.765625 C 5.109375 -11.097656 5.632812 -12.390625 6.3125 -13.640625 C 7 -14.898438 7.804688 -16.085938 8.734375 -17.203125 C 9.671875 -18.316406 10.679688 -19.28125 11.765625 -20.09375 C 13.472656 -21.363281 15.066406 -22 16.546875 -22 C 17.546875 -21.46875 18.523438 -20.363281 19.484375 -18.6875 C 19.640625 -18.6875 19.78125 -18.691406 19.90625 -18.703125 C 20.03125 -18.722656 20.171875 -18.734375 20.328125 -18.734375 C 21.960938 -18.734375 22.78125 -17.28125 22.78125 -14.375 C 22.78125 -12.414062 22.460938 -10.5625 21.828125 -8.8125 C 21.191406 -7.0625 20.304688 -5.472656 19.171875 -4.046875 C 18.046875 -2.617188 16.695312 -1.414062 15.125 -0.4375 C 13.5625 0.53125 11.851562 1.21875 10 1.625 Z M 12.375 -13.015625 C 11.84375 -12.304688 11.34375 -11.53125 10.875 -10.6875 C 10.414062 -9.851562 10.015625 -9.007812 9.671875 -8.15625 C 9.328125 -7.300781 9.0625 -6.476562 8.875 -5.6875 C 8.695312 -4.90625 8.609375 -4.203125 8.609375 -3.578125 C 8.609375 -2.835938 8.726562 -2.125 8.96875 -1.4375 C 9.21875 -0.757812 9.5 -0.375 9.8125 -0.28125 C 11.207031 -0.59375 12.484375 -1.171875 13.640625 -2.015625 C 14.804688 -2.867188 15.816406 -3.929688 16.671875 -5.203125 C 17.523438 -6.472656 18.191406 -7.914062 18.671875 -9.53125 C 19.148438 -11.144531 19.390625 -12.863281 19.390625 -14.6875 C 19.390625 -15.5 19.34375 -16.132812 19.25 -16.59375 C 19.15625 -17.0625 19 -17.46875 18.78125 -17.8125 C 17.414062 -17.40625 16.195312 -16.753906 15.125 -15.859375 C 14.0625 -14.960938 13.144531 -14.015625 12.375 -13.015625 Z M 12.375 -13.015625 "/></g></g></g><g fill="#faf5f3" fill-opacity="1"><g transform="translate(126.15919, 202.263116)"><g><path d="M 3.390625 -0.9375 C 3.546875 -1.832031 3.816406 -3.015625 4.203125 -4.484375 C 4.597656 -5.960938 5.054688 -7.53125 5.578125 -9.1875 C 6.109375 -10.84375 6.664062 -12.503906 7.25 -14.171875 C 7.84375 -15.847656 8.414062 -17.351562 8.96875 -18.6875 C 9.375 -19.65625 9.734375 -20.410156 10.046875 -20.953125 C 10.359375 -21.492188 10.695312 -21.945312 11.0625 -22.3125 C 11.5 -22.257812 11.945312 -22.15625 12.40625 -22 C 12.875 -21.84375 13.328125 -21.65625 13.765625 -21.4375 C 14.203125 -21.21875 14.585938 -20.988281 14.921875 -20.75 C 15.265625 -20.519531 15.53125 -20.300781 15.71875 -20.09375 C 14.882812 -19.09375 14.148438 -17.957031 13.515625 -16.6875 C 12.878906 -15.414062 12.234375 -13.789062 11.578125 -11.8125 C 13.253906 -13.300781 14.734375 -14.726562 16.015625 -16.09375 C 17.304688 -17.457031 18.507812 -18.972656 19.625 -20.640625 C 19.8125 -20.796875 20.132812 -20.875 20.59375 -20.875 C 21.03125 -20.875 21.445312 -20.800781 21.84375 -20.65625 C 22.25 -20.519531 22.53125 -20.332031 22.6875 -20.09375 C 22.132812 -18.601562 21.859375 -17.128906 21.859375 -15.671875 C 21.859375 -14.304688 22.054688 -13.28125 22.453125 -12.59375 C 22.421875 -12.414062 22.210938 -12.0625 21.828125 -11.53125 C 21.441406 -11 21.015625 -10.503906 20.546875 -10.046875 C 19.710938 -10.472656 18.96875 -11.066406 18.3125 -11.828125 C 17.664062 -12.585938 17.1875 -13.421875 16.875 -14.328125 C 15.414062 -13.296875 14.175781 -12.289062 13.15625 -11.3125 C 12.132812 -10.34375 11.257812 -9.257812 10.53125 -8.0625 C 9.800781 -6.875 9.179688 -5.503906 8.671875 -3.953125 C 8.160156 -2.398438 7.671875 -0.554688 7.203125 1.578125 C 6.921875 1.546875 6.585938 1.441406 6.203125 1.265625 C 5.816406 1.097656 5.429688 0.890625 5.046875 0.640625 C 4.660156 0.398438 4.3125 0.140625 4 -0.140625 C 3.6875 -0.421875 3.484375 -0.6875 3.390625 -0.9375 Z M 3.390625 -0.9375 "/></g></g></g><g fill="#faf5f3" fill-opacity="1"><g transform="translate(144.884525, 202.263116)"><g><path d="M 20.546875 -18.78125 C 20.859375 -18.78125 21.222656 -18.722656 21.640625 -18.609375 C 22.066406 -18.503906 22.445312 -18.367188 22.78125 -18.203125 C 23.125 -18.035156 23.410156 -17.859375 23.640625 -17.671875 C 23.878906 -17.484375 24 -17.3125 24 -17.15625 C 23.375 -15.851562 22.796875 -14.539062 22.265625 -13.21875 C 21.742188 -11.90625 21.296875 -10.644531 20.921875 -9.4375 C 20.546875 -8.226562 20.257812 -7.097656 20.0625 -6.046875 C 19.863281 -4.992188 19.765625 -4.078125 19.765625 -3.296875 C 19.765625 -2.429688 19.859375 -1.710938 20.046875 -1.140625 C 20.234375 -0.566406 20.539062 -0.15625 20.96875 0.09375 C 20.59375 0.34375 20.109375 0.546875 19.515625 0.703125 C 18.929688 0.859375 18.410156 0.9375 17.953125 0.9375 C 16.273438 0.9375 15.4375 -0.210938 15.4375 -2.515625 C 15.4375 -4.273438 16.023438 -6.691406 17.203125 -9.765625 C 16.585938 -8.335938 15.875 -6.992188 15.0625 -5.734375 C 14.257812 -4.484375 13.4375 -3.375 12.59375 -2.40625 C 11.757812 -1.445312 10.914062 -0.664062 10.0625 -0.0625 C 9.207031 0.539062 8.425781 0.898438 7.71875 1.015625 C 6.570312 0.960938 5.640625 0.414062 4.921875 -0.625 C 4.210938 -1.664062 3.859375 -2.992188 3.859375 -4.609375 C 3.859375 -6.335938 4.226562 -8.160156 4.96875 -10.078125 C 5.71875 -12.003906 6.671875 -13.789062 7.828125 -15.4375 C 8.992188 -17.082031 10.257812 -18.453125 11.625 -19.546875 C 12.988281 -20.648438 14.304688 -21.234375 15.578125 -21.296875 C 15.890625 -21.203125 16.238281 -21.015625 16.625 -20.734375 C 17.007812 -20.460938 17.378906 -20.140625 17.734375 -19.765625 C 18.097656 -19.390625 18.398438 -19.007812 18.640625 -18.625 C 18.890625 -18.238281 19.03125 -17.90625 19.0625 -17.625 C 17.820312 -17.4375 16.539062 -16.832031 15.21875 -15.8125 C 13.90625 -14.789062 12.710938 -13.554688 11.640625 -12.109375 C 10.578125 -10.671875 9.703125 -9.128906 9.015625 -7.484375 C 8.335938 -5.835938 8 -4.304688 8 -2.890625 C 8 -2.296875 8.21875 -1.921875 8.65625 -1.765625 C 9.550781 -1.953125 10.585938 -2.71875 11.765625 -4.0625 C 12.941406 -5.414062 14.367188 -7.503906 16.046875 -10.328125 C 16.347656 -10.878906 16.691406 -11.492188 17.078125 -12.171875 C 17.472656 -12.859375 17.867188 -13.570312 18.265625 -14.3125 C 18.671875 -15.0625 19.066406 -15.816406 19.453125 -16.578125 C 19.847656 -17.335938 20.210938 -18.070312 20.546875 -18.78125 Z M 20.546875 -18.78125 "/></g></g></g><g fill="#faf5f3" fill-opacity="1"><g transform="translate(166.722995, 202.263116)"><g><path d="M 11.15625 -24.453125 C 10.96875 -24.609375 10.796875 -24.863281 10.640625 -25.21875 C 10.492188 -25.582031 10.421875 -25.914062 10.421875 -26.21875 C 11.191406 -27.519531 11.742188 -28.828125 12.078125 -30.140625 C 12.421875 -31.460938 12.59375 -32.945312 12.59375 -34.59375 C 12.59375 -35.832031 12.503906 -37.195312 12.328125 -38.6875 C 13.097656 -38.625 13.863281 -38.488281 14.625 -38.28125 C 15.382812 -38.082031 16.066406 -37.835938 16.671875 -37.546875 C 17.273438 -37.253906 17.773438 -36.910156 18.171875 -36.515625 C 18.578125 -36.128906 18.828125 -35.753906 18.921875 -35.390625 C 17.742188 -30.210938 15.15625 -26.566406 11.15625 -24.453125 Z M 11.15625 -24.453125 "/></g></g></g><g fill="#faf5f3" fill-opacity="1"><g transform="translate(175.783624, 202.263116)"><g><path d="M 20.546875 -18.5 C 20.515625 -17.914062 20.414062 -17.304688 20.25 -16.671875 C 20.082031 -16.035156 19.875 -15.460938 19.625 -14.953125 C 19.375 -14.441406 19.109375 -14.015625 18.828125 -13.671875 C 18.546875 -13.328125 18.285156 -13.15625 18.046875 -13.15625 C 17.703125 -13.1875 17.5 -13.421875 17.4375 -13.859375 C 17.4375 -13.953125 17.472656 -14.097656 17.546875 -14.296875 C 17.628906 -14.492188 17.71875 -14.71875 17.8125 -14.96875 C 17.90625 -15.21875 17.988281 -15.46875 18.0625 -15.71875 C 18.144531 -15.96875 18.1875 -16.1875 18.1875 -16.375 C 18.1875 -16.800781 18.082031 -17.160156 17.875 -17.453125 C 17.675781 -17.753906 17.40625 -17.90625 17.0625 -17.90625 C 15.820312 -17.90625 14.875 -17.128906 14.21875 -15.578125 C 13.570312 -14.023438 13.25 -11.742188 13.25 -8.734375 C 13.25 -8.429688 13.265625 -8.25 13.296875 -8.1875 C 13.953125 -8.21875 14.535156 -8.238281 15.046875 -8.25 C 15.554688 -8.269531 16.054688 -8.28125 16.546875 -8.28125 C 16.578125 -8.21875 16.59375 -8.09375 16.59375 -7.90625 C 16.59375 -7.625 16.535156 -7.421875 16.421875 -7.296875 C 15.703125 -7.140625 15.132812 -7.007812 14.71875 -6.90625 C 14.300781 -6.800781 13.984375 -6.703125 13.765625 -6.609375 C 13.546875 -6.515625 13.410156 -6.410156 13.359375 -6.296875 C 13.316406 -6.191406 13.296875 -6.046875 13.296875 -5.859375 C 13.296875 -5.609375 13.300781 -5.359375 13.3125 -5.109375 C 13.332031 -4.867188 13.34375 -4.5625 13.34375 -4.1875 C 13.34375 -1.582031 12.632812 0.507812 11.21875 2.09375 C 9.8125 3.675781 7.851562 4.59375 5.34375 4.84375 C 4.914062 4.8125 4.46875 4.6875 4 4.46875 C 3.53125 4.25 3.085938 3.96875 2.671875 3.625 C 2.253906 3.28125 1.890625 2.898438 1.578125 2.484375 C 1.265625 2.066406 1.050781 1.640625 0.9375 1.203125 C 0.9375 0.0234375 1.179688 -1.09375 1.671875 -2.15625 C 2.171875 -3.226562 2.84375 -4.175781 3.6875 -5 C 4.539062 -5.820312 5.550781 -6.488281 6.71875 -7 C 7.882812 -7.507812 9.148438 -7.8125 10.515625 -7.90625 C 10.515625 -8.675781 10.4375 -9.429688 10.28125 -10.171875 C 10.125 -10.921875 9.957031 -11.644531 9.78125 -12.34375 C 9.613281 -13.039062 9.453125 -13.722656 9.296875 -14.390625 C 9.140625 -15.054688 9.0625 -15.71875 9.0625 -16.375 C 9.0625 -17.207031 9.234375 -18.035156 9.578125 -18.859375 C 9.921875 -19.679688 10.367188 -20.441406 10.921875 -21.140625 C 11.484375 -21.835938 12.132812 -22.429688 12.875 -22.921875 C 13.625 -23.421875 14.398438 -23.765625 15.203125 -23.953125 C 15.546875 -23.859375 16.003906 -23.582031 16.578125 -23.125 C 17.148438 -22.675781 17.710938 -22.171875 18.265625 -21.609375 C 18.828125 -21.054688 19.320312 -20.492188 19.75 -19.921875 C 20.1875 -19.347656 20.453125 -18.875 20.546875 -18.5 Z M 5.203125 2.703125 C 5.953125 2.390625 6.660156 1.9375 7.328125 1.34375 C 7.992188 0.757812 8.570312 0.0976562 9.0625 -0.640625 C 9.5625 -1.390625 9.957031 -2.179688 10.25 -3.015625 C 10.539062 -3.859375 10.6875 -4.679688 10.6875 -5.484375 C 10.070312 -5.390625 9.390625 -5.101562 8.640625 -4.625 C 7.898438 -4.144531 7.203125 -3.570312 6.546875 -2.90625 C 5.898438 -2.238281 5.359375 -1.546875 4.921875 -0.828125 C 4.492188 -0.117188 4.28125 0.492188 4.28125 1.015625 C 4.28125 1.703125 4.585938 2.265625 5.203125 2.703125 Z M 5.203125 2.703125 "/></g></g></g><g fill="#faf5f3" fill-opacity="1"><g transform="translate(191.860453, 202.263116)"><g/></g></g><g fill="#faf5f3" fill-opacity="1"><g transform="translate(202.919049, 202.263116)"><g><path d="M 13.90625 -28.171875 C 12.664062 -28.171875 11.710938 -28.519531 11.046875 -29.21875 C 10.378906 -29.914062 10.046875 -30.765625 10.046875 -31.765625 C 10.046875 -32.003906 10.082031 -32.296875 10.15625 -32.640625 C 10.238281 -32.984375 10.34375 -33.28125 10.46875 -33.53125 C 10.863281 -33.34375 11.457031 -33.207031 12.25 -33.125 C 13.039062 -33.050781 13.960938 -33.015625 15.015625 -33.015625 C 16.597656 -33.015625 18.390625 -33.082031 20.390625 -33.21875 C 22.390625 -33.363281 24.300781 -33.515625 26.125 -33.671875 C 27.957031 -33.828125 29.570312 -33.972656 30.96875 -34.109375 C 32.363281 -34.242188 33.265625 -34.3125 33.671875 -34.3125 C 34.816406 -34.3125 35.644531 -33.882812 36.15625 -33.03125 C 36.664062 -32.1875 37.046875 -31.050781 37.296875 -29.625 C 36.484375 -29.6875 35.679688 -29.738281 34.890625 -29.78125 C 34.109375 -29.832031 33.4375 -29.859375 32.875 -29.859375 C 31.882812 -29.859375 30.882812 -29.828125 29.875 -29.765625 C 28.863281 -29.703125 27.847656 -29.609375 26.828125 -29.484375 C 26.390625 -28.578125 25.90625 -27.507812 25.375 -26.28125 C 24.851562 -25.0625 24.335938 -23.785156 23.828125 -22.453125 C 23.316406 -21.117188 22.828125 -19.789062 22.359375 -18.46875 C 21.898438 -17.15625 21.5 -15.972656 21.15625 -14.921875 C 20.476562 -12.878906 19.878906 -10.988281 19.359375 -9.25 C 18.847656 -7.519531 18.398438 -5.898438 18.015625 -4.390625 C 17.628906 -2.890625 17.296875 -1.457031 17.015625 -0.09375 C 16.734375 1.269531 16.488281 2.601562 16.28125 3.90625 C 14.195312 3.59375 12.457031 2.289062 11.0625 0 C 11.3125 -0.957031 11.613281 -2.003906 11.96875 -3.140625 C 12.332031 -4.273438 12.753906 -5.5625 13.234375 -7 C 13.710938 -8.4375 14.273438 -10.066406 14.921875 -11.890625 C 15.578125 -13.722656 16.320312 -15.804688 17.15625 -18.140625 C 17.46875 -19.003906 17.789062 -19.910156 18.125 -20.859375 C 18.46875 -21.804688 18.800781 -22.742188 19.125 -23.671875 C 19.457031 -24.597656 19.753906 -25.492188 20.015625 -26.359375 C 20.273438 -27.234375 20.5 -28.023438 20.6875 -28.734375 C 19.382812 -28.578125 18.148438 -28.441406 16.984375 -28.328125 C 15.828125 -28.222656 14.800781 -28.171875 13.90625 -28.171875 Z M 13.90625 -28.171875 "/></g></g></g><g fill="#faf5f3" fill-opacity="1"><g transform="translate(230.240325, 202.263116)"><g><path d="M 3.390625 -0.9375 C 3.546875 -1.832031 3.816406 -3.015625 4.203125 -4.484375 C 4.597656 -5.960938 5.054688 -7.53125 5.578125 -9.1875 C 6.109375 -10.84375 6.664062 -12.503906 7.25 -14.171875 C 7.84375 -15.847656 8.414062 -17.351562 8.96875 -18.6875 C 9.375 -19.65625 9.734375 -20.410156 10.046875 -20.953125 C 10.359375 -21.492188 10.695312 -21.945312 11.0625 -22.3125 C 11.5 -22.257812 11.945312 -22.15625 12.40625 -22 C 12.875 -21.84375 13.328125 -21.65625 13.765625 -21.4375 C 14.203125 -21.21875 14.585938 -20.988281 14.921875 -20.75 C 15.265625 -20.519531 15.53125 -20.300781 15.71875 -20.09375 C 14.882812 -19.09375 14.148438 -17.957031 13.515625 -16.6875 C 12.878906 -15.414062 12.234375 -13.789062 11.578125 -11.8125 C 13.253906 -13.300781 14.734375 -14.726562 16.015625 -16.09375 C 17.304688 -17.457031 18.507812 -18.972656 19.625 -20.640625 C 19.8125 -20.796875 20.132812 -20.875 20.59375 -20.875 C 21.03125 -20.875 21.445312 -20.800781 21.84375 -20.65625 C 22.25 -20.519531 22.53125 -20.332031 22.6875 -20.09375 C 22.132812 -18.601562 21.859375 -17.128906 21.859375 -15.671875 C 21.859375 -14.304688 22.054688 -13.28125 22.453125 -12.59375 C 22.421875 -12.414062 22.210938 -12.0625 21.828125 -11.53125 C 21.441406 -11 21.015625 -10.503906 20.546875 -10.046875 C 19.710938 -10.472656 18.96875 -11.066406 18.3125 -11.828125 C 17.664062 -12.585938 17.1875 -13.421875 16.875 -14.328125 C 15.414062 -13.296875 14.175781 -12.289062 13.15625 -11.3125 C 12.132812 -10.34375 11.257812 -9.257812 10.53125 -8.0625 C 9.800781 -6.875 9.179688 -5.503906 8.671875 -3.953125 C 8.160156 -2.398438 7.671875 -0.554688 7.203125 1.578125 C 6.921875 1.546875 6.585938 1.441406 6.203125 1.265625 C 5.816406 1.097656 5.429688 0.890625 5.046875 0.640625 C 4.660156 0.398438 4.3125 0.140625 4 -0.140625 C 3.6875 -0.421875 3.484375 -0.6875 3.390625 -0.9375 Z M 3.390625 -0.9375 "/></g></g></g><g fill="#faf5f3" fill-opacity="1"><g transform="translate(248.96566, 202.263116)"><g><path d="M 21.15625 -19.25 C 21.03125 -17.332031 20.6875 -15.679688 20.125 -14.296875 C 19.570312 -12.921875 18.773438 -11.710938 17.734375 -10.671875 C 16.703125 -9.628906 15.441406 -8.691406 13.953125 -7.859375 C 12.460938 -7.023438 10.722656 -6.21875 8.734375 -5.4375 C 8.734375 -5.25 8.726562 -5.054688 8.71875 -4.859375 C 8.707031 -4.660156 8.703125 -4.453125 8.703125 -4.234375 C 8.703125 -3.828125 8.726562 -3.40625 8.78125 -2.96875 C 8.84375 -2.539062 8.953125 -2.140625 9.109375 -1.765625 C 9.265625 -1.390625 9.484375 -1.085938 9.765625 -0.859375 C 10.046875 -0.628906 10.398438 -0.515625 10.828125 -0.515625 C 11.671875 -0.515625 12.492188 -0.695312 13.296875 -1.0625 C 14.109375 -1.4375 14.875 -1.894531 15.59375 -2.4375 C 16.320312 -2.976562 17.003906 -3.566406 17.640625 -4.203125 C 18.273438 -4.835938 18.84375 -5.421875 19.34375 -5.953125 C 19.65625 -5.671875 19.921875 -5.40625 20.140625 -5.15625 C 18.742188 -3.300781 17.210938 -1.757812 15.546875 -0.53125 C 13.890625 0.6875 12.316406 1.46875 10.828125 1.8125 C 8.691406 1.5625 7.023438 0.78125 5.828125 -0.53125 C 4.640625 -1.851562 4.046875 -3.441406 4.046875 -5.296875 C 4.046875 -6.566406 4.222656 -7.859375 4.578125 -9.171875 C 4.929688 -10.492188 5.425781 -11.765625 6.0625 -12.984375 C 6.695312 -14.210938 7.441406 -15.367188 8.296875 -16.453125 C 9.148438 -17.546875 10.066406 -18.492188 11.046875 -19.296875 C 12.023438 -20.097656 13.03125 -20.734375 14.0625 -21.203125 C 15.101562 -21.671875 16.132812 -21.90625 17.15625 -21.90625 C 18.582031 -21.71875 19.914062 -20.832031 21.15625 -19.25 Z M 17.953125 -17.71875 C 17.109375 -17.59375 16.238281 -17.25 15.34375 -16.6875 C 14.445312 -16.132812 13.601562 -15.390625 12.8125 -14.453125 C 12.019531 -13.523438 11.296875 -12.441406 10.640625 -11.203125 C 9.992188 -9.960938 9.484375 -8.628906 9.109375 -7.203125 C 11.585938 -8.441406 13.648438 -9.96875 15.296875 -11.78125 C 16.941406 -13.601562 17.828125 -15.582031 17.953125 -17.71875 Z M 17.953125 -17.71875 "/></g></g></g><g fill="#faf5f3" fill-opacity="1"><g transform="translate(267.737457, 202.263116)"><g><path d="M 20.546875 -18.78125 C 20.859375 -18.78125 21.222656 -18.722656 21.640625 -18.609375 C 22.066406 -18.503906 22.445312 -18.367188 22.78125 -18.203125 C 23.125 -18.035156 23.410156 -17.859375 23.640625 -17.671875 C 23.878906 -17.484375 24 -17.3125 24 -17.15625 C 23.375 -15.851562 22.796875 -14.539062 22.265625 -13.21875 C 21.742188 -11.90625 21.296875 -10.644531 20.921875 -9.4375 C 20.546875 -8.226562 20.257812 -7.097656 20.0625 -6.046875 C 19.863281 -4.992188 19.765625 -4.078125 19.765625 -3.296875 C 19.765625 -2.429688 19.859375 -1.710938 20.046875 -1.140625 C 20.234375 -0.566406 20.539062 -0.15625 20.96875 0.09375 C 20.59375 0.34375 20.109375 0.546875 19.515625 0.703125 C 18.929688 0.859375 18.410156 0.9375 17.953125 0.9375 C 16.273438 0.9375 15.4375 -0.210938 15.4375 -2.515625 C 15.4375 -4.273438 16.023438 -6.691406 17.203125 -9.765625 C 16.585938 -8.335938 15.875 -6.992188 15.0625 -5.734375 C 14.257812 -4.484375 13.4375 -3.375 12.59375 -2.40625 C 11.757812 -1.445312 10.914062 -0.664062 10.0625 -0.0625 C 9.207031 0.539062 8.425781 0.898438 7.71875 1.015625 C 6.570312 0.960938 5.640625 0.414062 4.921875 -0.625 C 4.210938 -1.664062 3.859375 -2.992188 3.859375 -4.609375 C 3.859375 -6.335938 4.226562 -8.160156 4.96875 -10.078125 C 5.71875 -12.003906 6.671875 -13.789062 7.828125 -15.4375 C 8.992188 -17.082031 10.257812 -18.453125 11.625 -19.546875 C 12.988281 -20.648438 14.304688 -21.234375 15.578125 -21.296875 C 15.890625 -21.203125 16.238281 -21.015625 16.625 -20.734375 C 17.007812 -20.460938 17.378906 -20.140625 17.734375 -19.765625 C 18.097656 -19.390625 18.398438 -19.007812 18.640625 -18.625 C 18.890625 -18.238281 19.03125 -17.90625 19.0625 -17.625 C 17.820312 -17.4375 16.539062 -16.832031 15.21875 -15.8125 C 13.90625 -14.789062 12.710938 -13.554688 11.640625 -12.109375 C 10.578125 -10.671875 9.703125 -9.128906 9.015625 -7.484375 C 8.335938 -5.835938 8 -4.304688 8 -2.890625 C 8 -2.296875 8.21875 -1.921875 8.65625 -1.765625 C 9.550781 -1.953125 10.585938 -2.71875 11.765625 -4.0625 C 12.941406 -5.414062 14.367188 -7.503906 16.046875 -10.328125 C 16.347656 -10.878906 16.691406 -11.492188 17.078125 -12.171875 C 17.472656 -12.859375 17.867188 -13.570312 18.265625 -14.3125 C 18.671875 -15.0625 19.066406 -15.816406 19.453125 -16.578125 C 19.847656 -17.335938 20.210938 -18.070312 20.546875 -18.78125 Z M 20.546875 -18.78125 "/></g></g></g><g fill="#faf5f3" fill-opacity="1"><g transform="translate(289.575927, 202.263116)"><g><path d="M 20.546875 -18.5 C 20.515625 -17.914062 20.414062 -17.304688 20.25 -16.671875 C 20.082031 -16.035156 19.875 -15.460938 19.625 -14.953125 C 19.375 -14.441406 19.109375 -14.015625 18.828125 -13.671875 C 18.546875 -13.328125 18.285156 -13.15625 18.046875 -13.15625 C 17.703125 -13.1875 17.5 -13.421875 17.4375 -13.859375 C 17.4375 -13.953125 17.472656 -14.097656 17.546875 -14.296875 C 17.628906 -14.492188 17.71875 -14.71875 17.8125 -14.96875 C 17.90625 -15.21875 17.988281 -15.46875 18.0625 -15.71875 C 18.144531 -15.96875 18.1875 -16.1875 18.1875 -16.375 C 18.1875 -16.800781 18.082031 -17.160156 17.875 -17.453125 C 17.675781 -17.753906 17.40625 -17.90625 17.0625 -17.90625 C 15.820312 -17.90625 14.875 -17.128906 14.21875 -15.578125 C 13.570312 -14.023438 13.25 -11.742188 13.25 -8.734375 C 13.25 -8.429688 13.265625 -8.25 13.296875 -8.1875 C 13.953125 -8.21875 14.535156 -8.238281 15.046875 -8.25 C 15.554688 -8.269531 16.054688 -8.28125 16.546875 -8.28125 C 16.578125 -8.21875 16.59375 -8.09375 16.59375 -7.90625 C 16.59375 -7.625 16.535156 -7.421875 16.421875 -7.296875 C 15.703125 -7.140625 15.132812 -7.007812 14.71875 -6.90625 C 14.300781 -6.800781 13.984375 -6.703125 13.765625 -6.609375 C 13.546875 -6.515625 13.410156 -6.410156 13.359375 -6.296875 C 13.316406 -6.191406 13.296875 -6.046875 13.296875 -5.859375 C 13.296875 -5.609375 13.300781 -5.359375 13.3125 -5.109375 C 13.332031 -4.867188 13.34375 -4.5625 13.34375 -4.1875 C 13.34375 -1.582031 12.632812 0.507812 11.21875 2.09375 C 9.8125 3.675781 7.851562 4.59375 5.34375 4.84375 C 4.914062 4.8125 4.46875 4.6875 4 4.46875 C 3.53125 4.25 3.085938 3.96875 2.671875 3.625 C 2.253906 3.28125 1.890625 2.898438 1.578125 2.484375 C 1.265625 2.066406 1.050781 1.640625 0.9375 1.203125 C 0.9375 0.0234375 1.179688 -1.09375 1.671875 -2.15625 C 2.171875 -3.226562 2.84375 -4.175781 3.6875 -5 C 4.539062 -5.820312 5.550781 -6.488281 6.71875 -7 C 7.882812 -7.507812 9.148438 -7.8125 10.515625 -7.90625 C 10.515625 -8.675781 10.4375 -9.429688 10.28125 -10.171875 C 10.125 -10.921875 9.957031 -11.644531 9.78125 -12.34375 C 9.613281 -13.039062 9.453125 -13.722656 9.296875 -14.390625 C 9.140625 -15.054688 9.0625 -15.71875 9.0625 -16.375 C 9.0625 -17.207031 9.234375 -18.035156 9.578125 -18.859375 C 9.921875 -19.679688 10.367188 -20.441406 10.921875 -21.140625 C 11.484375 -21.835938 12.132812 -22.429688 12.875 -22.921875 C 13.625 -23.421875 14.398438 -23.765625 15.203125 -23.953125 C 15.546875 -23.859375 16.003906 -23.582031 16.578125 -23.125 C 17.148438 -22.675781 17.710938 -22.171875 18.265625 -21.609375 C 18.828125 -21.054688 19.320312 -20.492188 19.75 -19.921875 C 20.1875 -19.347656 20.453125 -18.875 20.546875 -18.5 Z M 5.203125 2.703125 C 5.953125 2.390625 6.660156 1.9375 7.328125 1.34375 C 7.992188 0.757812 8.570312 0.0976562 9.0625 -0.640625 C 9.5625 -1.390625 9.957031 -2.179688 10.25 -3.015625 C 10.539062 -3.859375 10.6875 -4.679688 10.6875 -5.484375 C 10.070312 -5.390625 9.390625 -5.101562 8.640625 -4.625 C 7.898438 -4.144531 7.203125 -3.570312 6.546875 -2.90625 C 5.898438 -2.238281 5.359375 -1.546875 4.921875 -0.828125 C 4.492188 -0.117188 4.28125 0.492188 4.28125 1.015625 C 4.28125 1.703125 4.585938 2.265625 5.203125 2.703125 Z M 5.203125 2.703125 "/></g></g></g><g fill="#faf5f3" fill-opacity="1"><g transform="translate(305.652756, 202.263116)"><g><path d="M 17.15625 -1.015625 C 16.570312 -1.515625 16.175781 -2.132812 15.96875 -2.875 C 15.769531 -3.625 15.671875 -4.265625 15.671875 -4.796875 C 15.671875 -5.441406 15.75 -6 15.90625 -6.46875 C 15.78125 -6.46875 15.5 -6.21875 15.0625 -5.71875 C 14.632812 -5.21875 14.160156 -4.625 13.640625 -3.9375 C 13.128906 -3.257812 12.625 -2.59375 12.125 -1.9375 C 11.632812 -1.289062 11.265625 -0.816406 11.015625 -0.515625 C 10.617188 -0.078125 10.238281 0.265625 9.875 0.515625 C 9.519531 0.765625 9.234375 0.90625 9.015625 0.9375 C 8.523438 0.90625 8.007812 0.800781 7.46875 0.625 C 6.925781 0.457031 6.410156 0.21875 5.921875 -0.09375 C 5.441406 -0.40625 5.023438 -0.773438 4.671875 -1.203125 C 4.316406 -1.640625 4.078125 -2.140625 3.953125 -2.703125 C 3.953125 -3.566406 3.972656 -4.273438 4.015625 -4.828125 C 4.066406 -5.390625 4.171875 -6 4.328125 -6.65625 C 4.609375 -7.832031 5.019531 -9.160156 5.5625 -10.640625 C 6.101562 -12.128906 6.726562 -13.59375 7.4375 -15.03125 C 8.15625 -16.476562 8.953125 -17.828125 9.828125 -19.078125 C 10.710938 -20.335938 11.648438 -21.328125 12.640625 -22.046875 C 12.921875 -22.046875 13.25 -22.019531 13.625 -21.96875 C 14 -21.925781 14.378906 -21.84375 14.765625 -21.71875 C 15.148438 -21.59375 15.519531 -21.441406 15.875 -21.265625 C 16.238281 -21.097656 16.539062 -20.875 16.78125 -20.59375 C 16.507812 -20.289062 15.804688 -19.253906 14.671875 -17.484375 C 13.535156 -15.710938 12.269531 -13.171875 10.875 -9.859375 C 10.726562 -9.515625 10.546875 -9.015625 10.328125 -8.359375 C 10.109375 -7.710938 9.890625 -7.03125 9.671875 -6.3125 C 9.453125 -5.601562 9.269531 -4.90625 9.125 -4.21875 C 8.988281 -3.539062 8.921875 -3.003906 8.921875 -2.609375 C 8.921875 -2.359375 8.957031 -2.171875 9.03125 -2.046875 C 9.113281 -1.921875 9.1875 -1.828125 9.25 -1.765625 C 9.71875 -1.953125 10.304688 -2.460938 11.015625 -3.296875 C 11.734375 -4.140625 12.726562 -5.425781 14 -7.15625 C 14.3125 -7.59375 14.675781 -8.085938 15.09375 -8.640625 C 15.507812 -9.203125 15.929688 -9.800781 16.359375 -10.4375 C 16.796875 -11.070312 17.207031 -11.726562 17.59375 -12.40625 C 17.988281 -13.09375 18.304688 -13.78125 18.546875 -14.46875 C 18.671875 -14.832031 18.832031 -15.269531 19.03125 -15.78125 C 19.238281 -16.289062 19.488281 -16.828125 19.78125 -17.390625 C 20.082031 -17.953125 20.425781 -18.519531 20.8125 -19.09375 C 21.195312 -19.664062 21.65625 -20.195312 22.1875 -20.6875 C 22.582031 -20.6875 23.015625 -20.640625 23.484375 -20.546875 C 23.953125 -20.453125 24.394531 -20.335938 24.8125 -20.203125 C 25.226562 -20.066406 25.585938 -19.910156 25.890625 -19.734375 C 26.203125 -19.566406 26.4375 -19.390625 26.59375 -19.203125 C 26.039062 -17.835938 25.421875 -16.488281 24.734375 -15.15625 C 24.054688 -13.820312 23.421875 -12.507812 22.828125 -11.21875 C 22.242188 -9.9375 21.75 -8.660156 21.34375 -7.390625 C 20.9375 -6.117188 20.734375 -4.878906 20.734375 -3.671875 C 20.734375 -3.023438 20.785156 -2.457031 20.890625 -1.96875 C 21.003906 -1.488281 21.125 -1.085938 21.25 -0.765625 C 21.375 -0.441406 21.488281 -0.171875 21.59375 0.046875 C 21.707031 0.265625 21.765625 0.453125 21.765625 0.609375 C 21.765625 0.640625 21.734375 0.6875 21.671875 0.75 C 21.640625 0.78125 21.609375 0.796875 21.578125 0.796875 C 21.359375 0.796875 21.078125 0.75 20.734375 0.65625 C 20.398438 0.5625 20.019531 0.425781 19.59375 0.25 C 19.175781 0.0820312 18.757812 -0.109375 18.34375 -0.328125 C 17.925781 -0.546875 17.53125 -0.773438 17.15625 -1.015625 Z M 17.15625 -1.015625 "/></g></g></g><g fill="#faf5f3" fill-opacity="1"><g transform="translate(328.606338, 202.263116)"><g><path d="M 3.390625 -0.9375 C 3.546875 -1.832031 3.816406 -3.015625 4.203125 -4.484375 C 4.597656 -5.960938 5.054688 -7.53125 5.578125 -9.1875 C 6.109375 -10.84375 6.664062 -12.503906 7.25 -14.171875 C 7.84375 -15.847656 8.414062 -17.351562 8.96875 -18.6875 C 9.375 -19.65625 9.734375 -20.410156 10.046875 -20.953125 C 10.359375 -21.492188 10.695312 -21.945312 11.0625 -22.3125 C 11.5 -22.257812 11.945312 -22.15625 12.40625 -22 C 12.875 -21.84375 13.328125 -21.65625 13.765625 -21.4375 C 14.203125 -21.21875 14.585938 -20.988281 14.921875 -20.75 C 15.265625 -20.519531 15.53125 -20.300781 15.71875 -20.09375 C 14.882812 -19.09375 14.148438 -17.957031 13.515625 -16.6875 C 12.878906 -15.414062 12.234375 -13.789062 11.578125 -11.8125 C 13.253906 -13.300781 14.734375 -14.726562 16.015625 -16.09375 C 17.304688 -17.457031 18.507812 -18.972656 19.625 -20.640625 C 19.8125 -20.796875 20.132812 -20.875 20.59375 -20.875 C 21.03125 -20.875 21.445312 -20.800781 21.84375 -20.65625 C 22.25 -20.519531 22.53125 -20.332031 22.6875 -20.09375 C 22.132812 -18.601562 21.859375 -17.128906 21.859375 -15.671875 C 21.859375 -14.304688 22.054688 -13.28125 22.453125 -12.59375 C 22.421875 -12.414062 22.210938 -12.0625 21.828125 -11.53125 C 21.441406 -11 21.015625 -10.503906 20.546875 -10.046875 C 19.710938 -10.472656 18.96875 -11.066406 18.3125 -11.828125 C 17.664062 -12.585938 17.1875 -13.421875 16.875 -14.328125 C 15.414062 -13.296875 14.175781 -12.289062 13.15625 -11.3125 C 12.132812 -10.34375 11.257812 -9.257812 10.53125 -8.0625 C 9.800781 -6.875 9.179688 -5.503906 8.671875 -3.953125 C 8.160156 -2.398438 7.671875 -0.554688 7.203125 1.578125 C 6.921875 1.546875 6.585938 1.441406 6.203125 1.265625 C 5.816406 1.097656 5.429688 0.890625 5.046875 0.640625 C 4.660156 0.398438 4.3125 0.140625 4 -0.140625 C 3.6875 -0.421875 3.484375 -0.6875 3.390625 -0.9375 Z M 3.390625 -0.9375 "/></g></g></g><g fill="#faf5f3" fill-opacity="1"><g transform="translate(347.331673, 202.263116)"><g><path d="M 21.15625 -19.25 C 21.03125 -17.332031 20.6875 -15.679688 20.125 -14.296875 C 19.570312 -12.921875 18.773438 -11.710938 17.734375 -10.671875 C 16.703125 -9.628906 15.441406 -8.691406 13.953125 -7.859375 C 12.460938 -7.023438 10.722656 -6.21875 8.734375 -5.4375 C 8.734375 -5.25 8.726562 -5.054688 8.71875 -4.859375 C 8.707031 -4.660156 8.703125 -4.453125 8.703125 -4.234375 C 8.703125 -3.828125 8.726562 -3.40625 8.78125 -2.96875 C 8.84375 -2.539062 8.953125 -2.140625 9.109375 -1.765625 C 9.265625 -1.390625 9.484375 -1.085938 9.765625 -0.859375 C 10.046875 -0.628906 10.398438 -0.515625 10.828125 -0.515625 C 11.671875 -0.515625 12.492188 -0.695312 13.296875 -1.0625 C 14.109375 -1.4375 14.875 -1.894531 15.59375 -2.4375 C 16.320312 -2.976562 17.003906 -3.566406 17.640625 -4.203125 C 18.273438 -4.835938 18.84375 -5.421875 19.34375 -5.953125 C 19.65625 -5.671875 19.921875 -5.40625 20.140625 -5.15625 C 18.742188 -3.300781 17.210938 -1.757812 15.546875 -0.53125 C 13.890625 0.6875 12.316406 1.46875 10.828125 1.8125 C 8.691406 1.5625 7.023438 0.78125 5.828125 -0.53125 C 4.640625 -1.851562 4.046875 -3.441406 4.046875 -5.296875 C 4.046875 -6.566406 4.222656 -7.859375 4.578125 -9.171875 C 4.929688 -10.492188 5.425781 -11.765625 6.0625 -12.984375 C 6.695312 -14.210938 7.441406 -15.367188 8.296875 -16.453125 C 9.148438 -17.546875 10.066406 -18.492188 11.046875 -19.296875 C 12.023438 -20.097656 13.03125 -20.734375 14.0625 -21.203125 C 15.101562 -21.671875 16.132812 -21.90625 17.15625 -21.90625 C 18.582031 -21.71875 19.914062 -20.832031 21.15625 -19.25 Z M 17.953125 -17.71875 C 17.109375 -17.59375 16.238281 -17.25 15.34375 -16.6875 C 14.445312 -16.132812 13.601562 -15.390625 12.8125 -14.453125 C 12.019531 -13.523438 11.296875 -12.441406 10.640625 -11.203125 C 9.992188 -9.960938 9.484375 -8.628906 9.109375 -7.203125 C 11.585938 -8.441406 13.648438 -9.96875 15.296875 -11.78125 C 16.941406 -13.601562 17.828125 -15.582031 17.953125 -17.71875 Z M 17.953125 -17.71875 "/></g></g></g><g fill="#d1c7c7" fill-opacity="1"><g transform="translate(24.627766, 154.750345)"><g><path d="M 6.410156 -8.230469 L 6.410156 -4.726562 L 2.152344 -4.726562 L 2.152344 -8.230469 L 1.117188 -8.230469 L 1.117188 0 L 2.152344 0 L 2.152344 -3.738281 L 6.410156 -3.738281 L 6.410156 0 L 7.445312 0 L 7.445312 -8.230469 Z M 6.410156 -8.230469 "/></g></g></g><g fill="#d1c7c7" fill-opacity="1"><g transform="translate(42.608194, 154.750345)"><g><path d="M 4.867188 0.140625 C 7.363281 0.140625 9.171875 -1.683594 9.171875 -4.105469 C 9.171875 -6.539062 7.363281 -8.363281 4.867188 -8.363281 C 2.375 -8.363281 0.550781 -6.539062 0.550781 -4.105469 C 0.550781 -1.683594 2.375 0.140625 4.867188 0.140625 Z M 4.867188 -0.871094 C 3 -0.871094 1.609375 -2.269531 1.609375 -4.105469 C 1.609375 -5.949219 3 -7.351562 4.867188 -7.351562 C 6.738281 -7.351562 8.125 -5.960938 8.125 -4.105469 C 8.125 -2.257812 6.738281 -0.871094 4.867188 -0.871094 Z M 4.867188 -0.871094 "/></g></g></g><g fill="#d1c7c7" fill-opacity="1"><g transform="translate(61.76402, 154.750345)"><g><path d="M 10.726562 0 L 9.359375 -8.230469 L 8.335938 -8.230469 L 5.609375 -2.1875 L 2.894531 -8.230469 L 1.894531 -8.230469 L 0.503906 0 L 1.5625 0 L 2.644531 -6.421875 L 5.480469 -0.199219 L 5.761719 -0.199219 L 8.597656 -6.421875 L 9.667969 0 Z M 10.726562 0 "/></g></g></g><g fill="#d1c7c7" fill-opacity="1"><g transform="translate(82.424353, 154.750345)"><g><path d="M 2.152344 -0.988281 L 2.152344 -3.75 L 5.46875 -3.75 L 5.46875 -4.703125 L 2.152344 -4.703125 L 2.152344 -7.246094 L 5.773438 -7.246094 L 5.773438 -8.230469 L 1.117188 -8.230469 L 1.117188 0 L 5.902344 0 L 5.902344 -0.988281 Z M 2.152344 -0.988281 "/></g></g></g><g fill="#d1c7c7" fill-opacity="1"><g transform="translate(98.336079, 154.750345)"><g/></g></g><g fill="#d1c7c7" fill-opacity="1"><g transform="translate(110.827395, 154.750345)"><g><path d="M 4.867188 0.140625 C 7.363281 0.140625 9.171875 -1.683594 9.171875 -4.105469 C 9.171875 -6.539062 7.363281 -8.363281 4.867188 -8.363281 C 2.375 -8.363281 0.550781 -6.539062 0.550781 -4.105469 C 0.550781 -1.683594 2.375 0.140625 4.867188 0.140625 Z M 4.867188 -0.871094 C 3 -0.871094 1.609375 -2.269531 1.609375 -4.105469 C 1.609375 -5.949219 3 -7.351562 4.867188 -7.351562 C 6.738281 -7.351562 8.125 -5.960938 8.125 -4.105469 C 8.125 -2.257812 6.738281 -0.871094 4.867188 -0.871094 Z M 4.867188 -0.871094 "/></g></g></g><g fill="#d1c7c7" fill-opacity="1"><g transform="translate(129.983218, 154.750345)"><g><path d="M 5.738281 -7.246094 L 5.738281 -8.230469 L 1.117188 -8.230469 L 1.117188 0 L 2.152344 0 L 2.152344 -3.574219 L 5.433594 -3.574219 L 5.433594 -4.527344 L 2.152344 -4.527344 L 2.152344 -7.246094 Z M 5.738281 -7.246094 "/></g></g></g><g fill="#d1c7c7" fill-opacity="1"><g transform="translate(145.542328, 154.750345)"><g/></g></g><g fill="#d1c7c7" fill-opacity="1"><g transform="translate(158.033644, 154.750345)"><g><path d="M 6.28125 -8.230469 L 0.246094 -8.230469 L 0.246094 -7.257812 L 2.75 -7.257812 L 2.75 0 L 3.773438 0 L 3.773438 -7.257812 L 6.28125 -7.257812 Z M 6.28125 -8.230469 "/></g></g></g><g fill="#d1c7c7" fill-opacity="1"><g transform="translate(173.980629, 154.750345)"><g><path d="M 6.410156 -8.230469 L 6.410156 -4.726562 L 2.152344 -4.726562 L 2.152344 -8.230469 L 1.117188 -8.230469 L 1.117188 0 L 2.152344 0 L 2.152344 -3.738281 L 6.410156 -3.738281 L 6.410156 0 L 7.445312 0 L 7.445312 -8.230469 Z M 6.410156 -8.230469 "/></g></g></g><g fill="#d1c7c7" fill-opacity="1"><g transform="translate(191.961057, 154.750345)"><g><path d="M 2.152344 -0.988281 L 2.152344 -3.75 L 5.46875 -3.75 L 5.46875 -4.703125 L 2.152344 -4.703125 L 2.152344 -7.246094 L 5.773438 -7.246094 L 5.773438 -8.230469 L 1.117188 -8.230469 L 1.117188 0 L 5.902344 0 L 5.902344 -0.988281 Z M 2.152344 -0.988281 "/></g></g></g><g fill="#d1c7c7" fill-opacity="1"><g transform="translate(207.872783, 154.750345)"><g><path d="M 6.867188 0 L 7.984375 0 L 4.527344 -8.230469 L 3.5625 -8.230469 L 0.199219 0 L 1.292969 0 L 2.09375 -1.964844 L 6.054688 -1.964844 Z M 4.058594 -6.808594 L 5.667969 -2.917969 L 2.480469 -2.917969 Z M 4.058594 -6.808594 "/></g></g></g><g fill="#d1c7c7" fill-opacity="1"><g transform="translate(225.477067, 154.750345)"><g/></g></g><g fill="#d1c7c7" fill-opacity="1"><g transform="translate(237.968383, 154.750345)"><g><path d="M 4.867188 0.140625 C 7.363281 0.140625 9.171875 -1.683594 9.171875 -4.105469 C 9.171875 -6.539062 7.363281 -8.363281 4.867188 -8.363281 C 2.375 -8.363281 0.550781 -6.539062 0.550781 -4.105469 C 0.550781 -1.683594 2.375 0.140625 4.867188 0.140625 Z M 4.867188 -0.871094 C 3 -0.871094 1.609375 -2.269531 1.609375 -4.105469 C 1.609375 -5.949219 3 -7.351562 4.867188 -7.351562 C 6.738281 -7.351562 8.125 -5.960938 8.125 -4.105469 C 8.125 -2.257812 6.738281 -0.871094 4.867188 -0.871094 Z M 4.867188 -0.871094 "/></g></g></g><g fill="#d1c7c7" fill-opacity="1"><g transform="translate(257.124211, 154.750345)"><g><path d="M 10.726562 0 L 9.359375 -8.230469 L 8.335938 -8.230469 L 5.609375 -2.1875 L 2.894531 -8.230469 L 1.894531 -8.230469 L 0.503906 0 L 1.5625 0 L 2.644531 -6.421875 L 5.480469 -0.199219 L 5.761719 -0.199219 L 8.597656 -6.421875 L 9.667969 0 Z M 10.726562 0 "/></g></g></g><g fill="#d1c7c7" fill-opacity="1"><g transform="translate(277.784548, 154.750345)"><g><path d="M 4.867188 0.140625 C 7.363281 0.140625 9.171875 -1.683594 9.171875 -4.105469 C 9.171875 -6.539062 7.363281 -8.363281 4.867188 -8.363281 C 2.375 -8.363281 0.550781 -6.539062 0.550781 -4.105469 C 0.550781 -1.683594 2.375 0.140625 4.867188 0.140625 Z M 4.867188 -0.871094 C 3 -0.871094 1.609375 -2.269531 1.609375 -4.105469 C 1.609375 -5.949219 3 -7.351562 4.867188 -7.351562 C 6.738281 -7.351562 8.125 -5.960938 8.125 -4.105469 C 8.125 -2.257812 6.738281 -0.871094 4.867188 -0.871094 Z M 4.867188 -0.871094 "/></g></g></g><g fill="#d1c7c7" fill-opacity="1"><g transform="translate(296.940375, 154.750345)"><g><path d="M 5.914062 0 L 7.078125 0 L 5.105469 -3.339844 C 6.1875 -3.644531 6.925781 -4.550781 6.925781 -5.714844 C 6.925781 -7.171875 5.785156 -8.230469 4.246094 -8.230469 L 1.117188 -8.230469 L 1.117188 0 L 2.152344 0 L 2.152344 -3.210938 L 4.023438 -3.210938 Z M 2.152344 -7.246094 L 4.1875 -7.246094 C 5.199219 -7.246094 5.867188 -6.597656 5.867188 -5.714844 C 5.867188 -4.832031 5.199219 -4.199219 4.1875 -4.199219 L 2.152344 -4.199219 Z M 2.152344 -7.246094 "/></g></g></g><g fill="#d1c7c7" fill-opacity="1"><g transform="translate(313.921712, 154.750345)"><g><path d="M 5.738281 -7.246094 L 5.738281 -8.230469 L 1.117188 -8.230469 L 1.117188 0 L 2.152344 0 L 2.152344 -3.574219 L 5.433594 -3.574219 L 5.433594 -4.527344 L 2.152344 -4.527344 L 2.152344 -7.246094 Z M 5.738281 -7.246094 "/></g></g></g><g fill="#d1c7c7" fill-opacity="1"><g transform="translate(329.480822, 154.750345)"><g><path d="M 1.117188 0 L 2.152344 0 L 2.152344 -8.230469 L 1.117188 -8.230469 Z M 1.117188 0 "/></g></g></g><g fill="#d1c7c7" fill-opacity="1"><g transform="translate(342.171952, 154.750345)"><g><path d="M 6.867188 0 L 7.984375 0 L 4.527344 -8.230469 L 3.5625 -8.230469 L 0.199219 0 L 1.292969 0 L 2.09375 -1.964844 L 6.054688 -1.964844 Z M 4.058594 -6.808594 L 5.667969 -2.917969 L 2.480469 -2.917969 Z M 4.058594 -6.808594 "/></g></g></g><g fill="#d1c7c7" fill-opacity="1"><g transform="translate(359.783973, 154.750345)"><g/></g></g></svg>