<svg xmlns="http://www.w3.org/2000/svg" xmlns:xlink="http://www.w3.org/1999/xlink" width="500" zoomAndPan="magnify" viewBox="0 0 375 374.999991" height="500" preserveAspectRatio="xMidYMid meet" version="1.0"><defs><filter x="0%" y="0%" width="100%" height="100%" id="c69e53dc70"><feColorMatrix values="0 0 0 0 1 0 0 0 0 1 0 0 0 0 1 0 0 0 1 0" color-interpolation-filters="sRGB"/></filter><mask id="06b1ad19ae"><g filter="url(#c69e53dc70)"><rect x="-37.5" width="450" fill="#000000" y="-37.499999" height="449.999989" fill-opacity="0.15"/></g></mask><clipPath id="9556d2254c"><path d="M 0.964844 1.082031 L 123 1.082031 L 123 114.617188 L 0.964844 114.617188 Z M 0.964844 1.082031 " clip-rule="nonzero"/></clipPath><clipPath id="0859ab96c3"><path d="M 62.046875 1.082031 C 28.3125 1.082031 0.964844 26.496094 0.964844 57.847656 C 0.964844 89.199219 28.3125 114.617188 62.046875 114.617188 C 95.785156 114.617188 123.132812 89.199219 123.132812 57.847656 C 123.132812 26.496094 95.785156 1.082031 62.046875 1.082031 Z M 62.046875 1.082031 " clip-rule="nonzero"/></clipPath><clipPath id="78f104235d"><rect x="0" width="124" y="0" height="115"/></clipPath><mask id="d55f7b23fb"><g filter="url(#c69e53dc70)"><rect x="-37.5" width="450" fill="#000000" y="-37.499999" height="449.999989" fill-opacity="0.15"/></g></mask><clipPath id="9cee9cae8b"><path d="M 0.375 0.75 L 56 0.75 L 56 52.476562 L 0.375 52.476562 Z M 0.375 0.75 " clip-rule="nonzero"/></clipPath><clipPath id="e5c9698ec4"><path d="M 28.207031 0.75 C 12.835938 0.75 0.375 12.328125 0.375 26.613281 C 0.375 40.894531 12.835938 52.476562 28.207031 52.476562 C 43.574219 52.476562 56.035156 40.894531 56.035156 26.613281 C 56.035156 12.328125 43.574219 0.75 28.207031 0.75 Z M 28.207031 0.75 " clip-rule="nonzero"/></clipPath><clipPath id="dd936a022d"><rect x="0" width="57" y="0" height="53"/></clipPath><mask id="7363e8e6cf"><g filter="url(#c69e53dc70)"><rect x="-37.5" width="450" fill="#000000" y="-37.499999" height="449.999989" fill-opacity="0.15"/></g></mask><clipPath id="be2fd45e84"><path d="M 0.226562 0.753906 L 28.792969 0.753906 L 28.792969 27.25 L 0.226562 27.25 Z M 0.226562 0.753906 " clip-rule="nonzero"/></clipPath><clipPath id="93dc813f75"><path d="M 14.480469 0.753906 C 6.609375 0.753906 0.226562 6.683594 0.226562 14 C 0.226562 21.316406 6.609375 27.25 14.480469 27.25 C 22.355469 27.25 28.738281 21.316406 28.738281 14 C 28.738281 6.683594 22.355469 0.753906 14.480469 0.753906 Z M 14.480469 0.753906 " clip-rule="nonzero"/></clipPath><clipPath id="924233109e"><rect x="0" width="29" y="0" height="28"/></clipPath></defs><g mask="url(#06b1ad19ae)"><g transform="matrix(1, 0, 0, 1, 27, 102)"><g clip-path="url(#78f104235d)"><g clip-path="url(#9556d2254c)"><g clip-path="url(#0859ab96c3)"><path fill="#9e8689ff" d="M 0.964844 1.082031 L 122.925781 1.082031 L 122.925781 114.617188 L 0.964844 114.617188 Z M 0.964844 1.082031 " fill-opacity="1" fill-rule="nonzero"/></g></g></g></g></g><g mask="url(#d55f7b23fb)"><g transform="matrix(1, 0, 0, 1, 291, 18)"><g clip-path="url(#dd936a022d)"><g clip-path="url(#9cee9cae8b)"><g clip-path="url(#e5c9698ec4)"><path fill="red" d="M 0.375 0.75 L 55.941406 0.75 L 55.941406 52.476562 L 0.375 52.476562 Z M 0.375 0.75 " fill-opacity="1" fill-rule="nonzero"/></g></g></g></g></g><g mask="url(#7363e8e6cf)"><g transform="matrix(1, 0, 0, 1, 251, 329)"><g clip-path="url(#924233109e)"><g clip-path="url(#be2fd45e84)"><g clip-path="url(#93dc813f75)"><path fill="red" d="M 0.226562 0.753906 L 28.6875 0.753906 L 28.6875 27.25 L 0.226562 27.25 Z M 0.226562 0.753906 " fill-opacity="1" fill-rule="nonzero"/></g></g></g></g></g></svg>