<svg xmlns="http://www.w3.org/2000/svg" xmlns:xlink="http://www.w3.org/1999/xlink" width="500" zoomAndPan="magnify" viewBox="0 0 375 374.999991" height="500" preserveAspectRatio="xMidYMid meet" version="1.0"><defs><g/></defs><g fill="#2c1b12" fill-opacity="1"><g transform="translate(57.086712, 214.499986)"><g><path d="M 46.328125 0 L 39.859375 0 L 35.109375 -14.125 L 13.171875 -14.125 L 8.375 0 L 2.046875 0 L 20 -51.46875 L 28.375 -51.46875 Z M 23.703125 -45.25 L 14.859375 -19.1875 L 33.375 -19.1875 L 24.578125 -45.25 Z M 23.703125 -45.25 "/></g></g></g><g fill="#2c1b12" fill-opacity="1"><g transform="translate(105.454293, 214.499986)"><g/></g></g><g fill="#2c1b12" fill-opacity="1"><g transform="translate(123.125709, 214.499986)"><g><path d="M 28.03125 0 L 20.0625 0 L 2.21875 -51.46875 L 8.65625 -51.46875 L 23.765625 -7.5625 L 24.640625 -7.5625 L 39.578125 -51.46875 L 45.90625 -51.46875 Z M 28.03125 0 "/></g></g></g><g fill="#2c1b12" fill-opacity="1"><g transform="translate(171.211674, 214.499986)"><g/></g></g><g fill="#2c1b12" fill-opacity="1"><g transform="translate(188.883091, 214.499986)"><g><path d="M 28.234375 0.734375 C 23.773438 0.734375 19.804688 -0.222656 16.328125 -2.140625 C 12.859375 -4.066406 10.125 -7.007812 8.125 -10.96875 C 6.132812 -14.925781 5.140625 -19.847656 5.140625 -25.734375 C 5.140625 -31.628906 6.132812 -36.550781 8.125 -40.5 C 10.125 -44.457031 12.859375 -47.398438 16.328125 -49.328125 C 19.804688 -51.253906 23.773438 -52.21875 28.234375 -52.21875 C 32.691406 -52.21875 36.65625 -51.253906 40.125 -49.328125 C 43.601562 -47.398438 46.335938 -44.457031 48.328125 -40.5 C 50.328125 -36.550781 51.328125 -31.628906 51.328125 -25.734375 C 51.328125 -19.847656 50.328125 -14.925781 48.328125 -10.96875 C 46.335938 -7.007812 43.601562 -4.066406 40.125 -2.140625 C 36.65625 -0.222656 32.691406 0.734375 28.234375 0.734375 Z M 28.234375 -4.859375 C 33.585938 -4.859375 37.695312 -6.53125 40.5625 -9.875 C 43.425781 -13.21875 44.859375 -18.503906 44.859375 -25.734375 C 44.859375 -32.960938 43.425781 -38.25 40.5625 -41.59375 C 37.695312 -44.945312 33.585938 -46.625 28.234375 -46.625 C 17.160156 -46.625 11.625 -39.660156 11.625 -25.734375 C 11.625 -11.816406 17.160156 -4.859375 28.234375 -4.859375 Z M 28.234375 -4.859375 "/></g></g></g><g fill="#2c1b12" fill-opacity="1"><g transform="translate(245.347137, 214.499986)"><g/></g></g><g fill="#2c1b12" fill-opacity="1"><g transform="translate(263.018553, 214.499986)"><g><path d="M 13.703125 0 L 7.78125 0 L 7.78125 -51.46875 L 15.203125 -51.46875 L 40.3125 -12.140625 L 41.1875 -12.28125 L 41.1875 -51.46875 L 47.078125 -51.46875 L 47.078125 0 L 40.734375 0 L 14.578125 -42.078125 L 13.703125 -41.9375 Z M 13.703125 0 "/></g></g></g></svg>